<?xml version="1.0" encoding="UTF-8"?>
<svg width="144px" height="37px" viewBox="0 0 144 37" version="1.1" xmlns="http://www.w3.org/2000/svg" xmlns:xlink="http://www.w3.org/1999/xlink">
    <!-- Generator: Sketch 50.2 (55047) - http://www.bohemiancoding.com/sketch -->
    <title>Group 2</title>
    <desc>Created with Sketch.</desc>
    <defs>
        <polygon id="path-1" points="0.5962 0.5357 9.147 0.5357 9.147 2.6617 0.5962 2.6617"></polygon>
        <polygon id="path-3" points="0.0004 0.15 36.8504 0.15 36.8504 36.9996 0.0004 36.9996"></polygon>
    </defs>
    <g id="Page-1" stroke="none" stroke-width="1" fill="none" fill-rule="evenodd">
        <g id="home1" transform="translate(-527.000000, -4197.000000)">
            <g id="Group-2" transform="translate(527.000000, 4196.000000)">
                <path d="M77.3625,14.4642 L71.7405,14.4642 C71.1545,14.4642 70.6775,13.9882 70.6775,13.4022 C70.6775,12.8152 71.1545,12.3392 71.7405,12.3392 L77.3625,12.3392 C77.9495,12.3392 78.4255,12.8152 78.4255,13.4022 C78.4255,13.9882 77.9495,14.4642 77.3625,14.4642" id="Fill-3" fill="#20272D"></path>
                <g id="Group">
                    <path d="M71.7409,26.5121 C71.1549,26.5121 70.6779,26.0351 70.6779,25.4491 L70.6779,13.4021 C70.6779,12.8151 71.1549,12.3391 71.7409,12.3391 C72.3269,12.3391 72.8039,12.8151 72.8039,13.4021 L72.8039,25.4491 C72.8039,26.0351 72.3269,26.5121 71.7409,26.5121" id="Fill-1" fill="#20272D"></path>
                    <path d="M78.1662,26.5121 L71.7412,26.5121 C71.1542,26.5121 70.6782,26.0351 70.6782,25.4491 C70.6782,24.8631 71.1542,24.3861 71.7412,24.3861 L78.1662,24.3861 C78.7532,24.3861 79.2292,24.8631 79.2292,25.4491 C79.2292,26.0351 78.7532,26.5121 78.1662,26.5121" id="Fill-5" fill="#20272D"></path>
                    <path d="M76.9631,20.4877 L71.7411,20.4877 C71.1541,20.4877 70.6781,20.0117 70.6781,19.4257 C70.6781,18.8387 71.1541,18.3627 71.7411,18.3627 L76.9631,18.3627 C77.5501,18.3627 78.0251,18.8387 78.0251,19.4257 C78.0251,20.0117 77.5501,20.4877 76.9631,20.4877" id="Fill-7" fill="#20272D"></path>
                    <path d="M135.6584,26.5121 C135.0724,26.5121 134.5964,26.0351 134.5964,25.4491 L134.5964,13.4021 C134.5964,12.8151 135.0724,12.3391 135.6584,12.3391 C136.2454,12.3391 136.7214,12.8151 136.7214,13.4021 L136.7214,25.4491 C136.7214,26.0351 136.2454,26.5121 135.6584,26.5121" id="Fill-9" fill="#20272D"></path>
                    <g id="Group-13" transform="translate(134.000000, 23.850400)">
                        <mask id="mask-2" fill="white">
                            <use xlink:href="#path-1"></use>
                        </mask>
                        <g id="Clip-12"></g>
                        <path d="M8.0842,2.6617 L1.6582,2.6617 C1.0722,2.6617 0.5962,2.1847 0.5962,1.5987 C0.5962,1.0127 1.0722,0.5357 1.6582,0.5357 L8.0842,0.5357 C8.6712,0.5357 9.1472,1.0127 9.1472,1.5987 C9.1472,2.1847 8.6712,2.6617 8.0842,2.6617" id="Fill-11" fill="#20272D" mask="url(#mask-2)"></path>
                    </g>
                    <path d="M113.1867,26.5121 C113.0877,26.5121 112.9877,26.4971 112.8887,26.4701 C112.3267,26.3051 112.0027,25.7141 112.1657,25.1521 L115.6797,13.1041 C115.8467,12.5391 116.4357,12.2221 116.9987,12.3811 C117.5607,12.5461 117.8837,13.1361 117.7207,13.6991 L114.2077,25.7461 C114.0707,26.2101 113.6467,26.5121 113.1867,26.5121" id="Fill-14" fill="#20272D"></path>
                    <path d="M120.2151,26.5121 C119.7551,26.5121 119.3301,26.2101 119.1941,25.7461 L115.6801,13.6991 C115.5171,13.1361 115.8411,12.5461 116.4031,12.3811 C116.9601,12.2221 117.5551,12.5391 117.7211,13.1041 L121.2361,25.1521 C121.3991,25.7141 121.0741,26.3051 120.5121,26.4701 C120.4131,26.4971 120.3131,26.5121 120.2151,26.5121" id="Fill-16" fill="#20272D"></path>
                    <path d="M119.5119,24.5023 L113.8899,24.5023 C113.3029,24.5023 112.8259,24.0263 112.8259,23.4403 C112.8259,22.8533 113.3029,22.3763 113.8899,22.3763 L119.5119,22.3763 C120.0979,22.3763 120.5739,22.8533 120.5739,23.4403 C120.5739,24.0263 120.0979,24.5023 119.5119,24.5023" id="Fill-18" fill="#20272D"></path>
                    <path d="M50.4353,26.5121 C49.8483,26.5121 49.3723,26.0351 49.3723,25.4491 L49.3723,13.4021 C49.3723,12.8151 49.8483,12.3391 50.4353,12.3391 C51.0213,12.3391 51.4983,12.8151 51.4983,13.4021 L51.4983,25.4491 C51.4983,26.0351 51.0213,26.5121 50.4353,26.5121" id="Fill-20" fill="#20272D"></path>
                    <path d="M53.447,20.4877 L50.435,20.4877 C49.848,20.4877 49.372,20.0117 49.372,19.4257 C49.372,18.8387 49.848,18.3627 50.435,18.3627 L53.447,18.3627 C54.522,18.3627 55.396,17.4877 55.396,16.4137 C55.396,15.3387 54.522,14.4647 53.447,14.4647 L50.435,14.4647 C49.848,14.4647 49.372,13.9877 49.372,13.4017 C49.372,12.8147 49.848,12.3387 50.435,12.3387 L53.447,12.3387 C55.694,12.3387 57.522,14.1667 57.522,16.4137 C57.522,18.6597 55.694,20.4877 53.447,20.4877" id="Fill-22" fill="#20272D"></path>
                    <path d="M54.2507,26.5121 L50.4357,26.5121 C49.8487,26.5121 49.3727,26.0351 49.3727,25.4491 C49.3727,24.8631 49.8487,24.3861 50.4357,24.3861 L54.2507,24.3861 C55.3257,24.3861 56.1997,23.5121 56.1997,22.4371 C56.1997,21.3621 55.3257,20.4881 54.2507,20.4881 L50.4357,20.4881 C49.8487,20.4881 49.3727,20.0121 49.3727,19.4251 C49.3727,18.8391 49.8487,18.3621 50.4357,18.3621 L54.2507,18.3621 C56.4967,18.3621 58.3257,20.1911 58.3257,22.4371 C58.3257,24.6831 56.4967,26.5121 54.2507,26.5121" id="Fill-24" fill="#20272D"></path>
                    <path d="M93.0471,26.5121 C92.4601,26.5121 91.9841,26.0351 91.9841,25.4491 L91.9841,13.4021 C91.9841,12.8151 92.4601,12.3391 93.0471,12.3391 C93.6341,12.3391 94.1091,12.8151 94.1091,13.4021 L94.1091,25.4491 C94.1091,26.0351 93.6341,26.5121 93.0471,26.5121" id="Fill-26" fill="#20272D"></path>
                    <path d="M96.8625,20.4877 L93.0475,20.4877 C92.4605,20.4877 91.9835,20.0117 91.9835,19.4257 C91.9835,18.8387 92.4605,18.3627 93.0475,18.3627 L96.8625,18.3627 C97.9375,18.3627 98.8115,17.4877 98.8115,16.4137 C98.8115,15.3387 97.9375,14.4647 96.8625,14.4647 L93.0475,14.4647 C92.4605,14.4647 91.9835,13.9877 91.9835,13.4017 C91.9835,12.8147 92.4605,12.3387 93.0475,12.3387 L96.8625,12.3387 C99.1085,12.3387 100.9375,14.1667 100.9375,16.4137 C100.9375,18.6597 99.1085,20.4877 96.8625,20.4877" id="Fill-28" fill="#20272D"></path>
                    <g id="Group-32" transform="translate(0.000000, 0.850400)">
                        <mask id="mask-4" fill="white">
                            <use xlink:href="#path-3"></use>
                        </mask>
                        <g id="Clip-31"></g>
                        <path d="M12.2834,36.9996 L24.5674,36.9996 C31.3234,36.9996 36.8504,31.4726 36.8504,24.7166 L36.8504,12.4336 C36.8504,5.6776 31.3234,0.1496 24.5674,0.1496 L12.2834,0.1496 C5.5274,0.1496 0.0004,5.6776 0.0004,12.4336 L0.0004,24.7166 C0.0004,31.4726 5.5274,36.9996 12.2834,36.9996" id="Fill-30" fill="#20272D" mask="url(#mask-4)"></path>
                    </g>
                    <path d="M12.3781,24.2015 L17.0701,24.8375 L17.2221,23.7605 L12.3781,23.1055 L12.3781,17.4745 L23.1781,18.9265 C25.9111,19.3535 27.6761,21.5985 27.6761,24.6465 C27.6761,26.9665 26.8231,28.6685 25.1421,29.7055 C23.7311,30.5735 22.2621,30.6175 21.9821,30.6175 L12.3781,30.6175 L12.3781,24.2015 Z M22.0171,31.6805 C23.5701,31.6805 25.2171,31.0895 26.4221,30.1005 C27.4871,29.2265 28.7571,27.5685 28.7571,24.6345 C28.7571,22.6115 28.1981,20.9825 27.0981,19.7945 C26.2121,18.8355 25.2921,18.1515 23.6861,17.9265 L12.3781,16.3705 L12.3781,8.2265 L21.7761,8.2925 C23.0291,8.2925 24.3801,9.2445 25.0611,10.6075 C25.4351,11.3595 25.5411,12.2425 25.3771,13.2355 L26.4141,13.5955 C26.6661,12.2845 26.5401,11.1555 26.0341,10.1365 C24.9191,7.9025 22.9241,7.1805 22.1331,7.1805 L11.3451,7.1715 L11.3451,16.2235 L8.0981,15.7805 L8.0951,16.8775 L11.3451,17.3215 L11.3451,22.9545 L8.0981,22.5115 L8.0951,23.6085 L11.3451,24.0525 L11.3451,31.6805 L22.0171,31.6805 Z" id="Fill-33" fill="#FFFFFF"></path>
                </g>
            </g>
        </g>
    </g>
</svg>