<svg xmlns="http://www.w3.org/2000/svg" viewBox="0 0 136.22 91.35"><defs><style>.cls-1{fill:#fff;}</style></defs><title>Asset 3</title><g id="Layer_2" data-name="Layer 2"><g id="레이어_1" data-name="레이어 1"><path class="cls-1" d="M106.08,65.93V51.74l4.31-2.83,6.36,2v5.19l4.93,1.59v8.21h8.91c3.57,0,5.63-2.1,5.63-5.64C136.22,27,105.73,0,68.11,0S0,27,0,60.29c0,3.57,2.1,5.64,5.64,5.64h7.93V50.42L18,47.34h0l9.27,3.39v5.32l6.33,3v6.92h4.44V54l4.11-2.81,7,2.46V65.93h4.16V58.6l5.21-3.45h0l9.61,3.24v7.54h4.16V45.16L75.64,42h0l10.62,2.88v21.1h4.41V53.66l2.87-2.25,8.07,2.25V65.93ZM36.43,30.73A3.59,3.59,0,1,1,40,27.14,3.59,3.59,0,0,1,36.43,30.73Zm63.11,0a3.59,3.59,0,1,1,3.59-3.59A3.6,3.6,0,0,1,99.54,30.73Z"/><path class="cls-1" d="M4.89,91.17V77.9H6.35l3.85,7.86,3.85-7.86h1.47V91.17H14.05V80.65l-3.18,6.57H9.54L6.35,80.65V91.17Z"/><path class="cls-1" d="M26.35,78.37a4.54,4.54,0,0,1,2.5-.65,4.57,4.57,0,0,1,2.5.65,4,4,0,0,1,1.55,1.74,5.52,5.52,0,0,1,.43,1.48A12.11,12.11,0,0,1,33.5,83c0,.38,0,.88,0,1.52s0,1.15,0,1.52a12.25,12.25,0,0,1-.17,1.43A5.75,5.75,0,0,1,32.9,89a4,4,0,0,1-1.55,1.74,5.13,5.13,0,0,1-5,0A4,4,0,0,1,24.8,89a5.74,5.74,0,0,1-.44-1.48,11.92,11.92,0,0,1-.16-1.43c0-.37,0-.88,0-1.52s0-1.14,0-1.52a11.79,11.79,0,0,1,.16-1.42,5.51,5.51,0,0,1,.44-1.48A4,4,0,0,1,26.35,78.37Zm4.18,1.08a3.57,3.57,0,0,0-3.36,0,2.5,2.5,0,0,0-1,1.16,4.49,4.49,0,0,0-.35,1.24,10,10,0,0,0-.14,1.27c0,.35,0,.82,0,1.41s0,1.06,0,1.41a10.1,10.1,0,0,0,.14,1.28,4.59,4.59,0,0,0,.35,1.24,2.55,2.55,0,0,0,1,1.16,3.65,3.65,0,0,0,3.36,0,2.67,2.67,0,0,0,1-1.16,5,5,0,0,0,.35-1.24A9.88,9.88,0,0,0,32,85.94c0-.35,0-.82,0-1.41s0-1.06,0-1.41a9.75,9.75,0,0,0-.13-1.27,4.86,4.86,0,0,0-.35-1.24A2.62,2.62,0,0,0,30.53,79.45Z"/><path class="cls-1" d="M41.28,90.09l.65-1.18A7,7,0,0,0,45.34,90a3.11,3.11,0,0,0,1-.16,2.13,2.13,0,0,0,.73-.42,2.09,2.09,0,0,0,.46-.6,2.4,2.4,0,0,0,.25-.67,3.5,3.5,0,0,0,.07-.65,2.66,2.66,0,0,0-.35-1.35,2,2,0,0,0-1.12-.89,9,9,0,0,0-1.19-.3A8.9,8.9,0,0,1,44,84.68a3.5,3.5,0,0,1-2.44-3.4,3.49,3.49,0,0,1,1-2.53,3.7,3.7,0,0,1,2.77-1,8.13,8.13,0,0,1,3.49.94l-.56,1.2A7.11,7.11,0,0,0,45.34,79a2.2,2.2,0,0,0-1.74.66A2.34,2.34,0,0,0,43,81.28a2.39,2.39,0,0,0,.37,1.32,2,2,0,0,0,1.13.85,9.35,9.35,0,0,0,1.19.3,9,9,0,0,1,1.29.33,3.55,3.55,0,0,1,1.76,1.37,3.75,3.75,0,0,1,.59,2.08A4,4,0,0,1,49.09,89a3.76,3.76,0,0,1-.74,1.21,3.26,3.26,0,0,1-1.27.85,4.61,4.61,0,0,1-1.74.32A6.42,6.42,0,0,1,43.27,91,12.9,12.9,0,0,1,41.28,90.09Z"/><path class="cls-1" d="M56.64,90.09l.65-1.18A7,7,0,0,0,60.7,90a3,3,0,0,0,1-.16,2.18,2.18,0,0,0,.74-.42,2.51,2.51,0,0,0,.46-.6,2.75,2.75,0,0,0,.25-.67,3.49,3.49,0,0,0,.06-.65,2.66,2.66,0,0,0-.34-1.35,2.08,2.08,0,0,0-1.12-.89,9.26,9.26,0,0,0-1.2-.3,9.75,9.75,0,0,1-1.23-.31,3.5,3.5,0,0,1-2.44-3.4,3.46,3.46,0,0,1,1-2.53,3.67,3.67,0,0,1,2.76-1,8.17,8.17,0,0,1,3.5.94l-.56,1.2A7.11,7.11,0,0,0,60.7,79a2.17,2.17,0,0,0-1.73.66,2.29,2.29,0,0,0-.58,1.59,2.47,2.47,0,0,0,.36,1.32,2,2,0,0,0,1.14.85,9.09,9.09,0,0,0,1.18.3,9,9,0,0,1,1.29.33,3.51,3.51,0,0,1,1.76,1.37,3.67,3.67,0,0,1,.59,2.08A4,4,0,0,1,64.46,89a3.78,3.78,0,0,1-.75,1.21,3.3,3.3,0,0,1-1.26.85,4.62,4.62,0,0,1-1.75.32A6.31,6.31,0,0,1,58.64,91,13,13,0,0,1,56.64,90.09Z"/><path class="cls-1" d="M73.1,77.9h1.46v12h5.28v1.31H73.1Z"/><path class="cls-1" d="M91.22,77.9h1.41l4.5,13.27H95.6l-1-3.21H89.29l-1,3.21H86.73Zm2.91,8.75-2.2-6.78-2.21,6.78Z"/><path class="cls-1" d="M112.24,77.9h1.46V91.17h-1.47l-5.82-10.65V91.17H105V77.9h1.47l5.82,10.64Z"/><path class="cls-1" d="M122.83,77.9h3.37a8.25,8.25,0,0,1,2.14.21,3.47,3.47,0,0,1,1.48.85,4.47,4.47,0,0,1,1,1.37,5.91,5.91,0,0,1,.39,1.39c.08.55.13,1,.15,1.35s0,.84,0,1.46,0,1.11,0,1.46-.07.81-.15,1.35a5.91,5.91,0,0,1-.39,1.39,4.24,4.24,0,0,1-1,1.37,3.47,3.47,0,0,1-1.48.85,7.76,7.76,0,0,1-2.14.22h-3.37Zm1.47,1.31V89.86H127a5.47,5.47,0,0,0,.69-.09,2.49,2.49,0,0,0,.67-.23,2.39,2.39,0,0,0,.58-.47,3.41,3.41,0,0,0,.42-.56,2.93,2.93,0,0,0,.27-.7c.08-.29.13-.53.17-.74a5.43,5.43,0,0,0,.08-.84c0-.35,0-.62,0-.82V83.67c0-.2,0-.48,0-.82a5.43,5.43,0,0,0-.08-.84c0-.21-.09-.46-.17-.74a3,3,0,0,0-.27-.71,3.35,3.35,0,0,0-.42-.55,2.09,2.09,0,0,0-1.25-.7,3.26,3.26,0,0,0-.69-.09H124.3Z"/></g></g></svg>