<?xml version="1.0" standalone="no"?>
<!DOCTYPE svg PUBLIC "-//W3C//DTD SVG 20010904//EN"
 "http://www.w3.org/TR/2001/REC-SVG-20010904/DTD/svg10.dtd">
<svg version="1.0" xmlns="http://www.w3.org/2000/svg"
 width="512.000000pt" height="512.000000pt" viewBox="0 0 512.000000 512.000000"
 preserveAspectRatio="xMidYMid meet">
<metadata>
Created by potrace 1.11, written by Peter Selinger 2001-2013
</metadata>
<g transform="translate(0.000000,512.000000) scale(0.100000,-0.100000)"
fill="#000000" stroke="none">
<path d="M2240 3873 c-99 -11 -364 -60 -415 -76 -5 -2 -37 -11 -70 -21 -577
-170 -1082 -530 -1393 -993 -157 -233 -298 -578 -328 -798 -3 -22 -7 -46 -10
-54 -10 -30 -19 -162 -19 -276 0 -109 2 -124 24 -163 18 -30 39 -49 75 -67 48
-24 58 -25 228 -25 l178 0 0 295 0 294 23 12 c12 7 24 15 27 18 3 4 30 23 61
44 l56 38 139 -51 c76 -29 153 -56 170 -61 38 -11 40 -19 39 -129 l-1 -85 120
-60 121 -60 -2 -127 -2 -128 84 0 85 0 2 226 3 226 73 51 73 52 132 -46 132
-46 0 -231 0 -232 76 0 c53 0 78 4 81 12 2 7 3 69 3 138 l-2 126 100 67 c55
36 104 64 110 60 5 -3 85 -31 176 -62 l166 -56 2 -120 c1 -66 2 -130 2 -142 1
-22 5 -23 79 -23 l77 0 0 392 0 392 59 58 c52 52 63 59 90 54 45 -7 358 -95
365 -102 3 -3 6 -182 6 -397 l0 -392 83 -3 82 -3 1 28 c0 15 1 121 0 236 0
114 4 207 8 207 4 0 27 17 51 39 49 43 26 44 228 -10 l122 -33 0 -233 0 -233
85 0 85 0 0 268 0 269 81 52 81 53 119 -38 118 -38 3 -100 3 -100 82 -26 c45
-14 85 -29 90 -33 4 -4 7 -74 8 -155 l0 -147 191 -2 c208 -2 249 5 290 46 52
52 59 77 59 211 0 113 -8 224 -21 283 -3 12 -12 58 -20 102 -36 182 -142 453
-242 619 -23 37 -42 70 -42 73 0 9 -144 199 -199 263 -303 351 -718 618 -1181
762 -114 35 -278 76 -340 84 -25 3 -47 8 -50 9 -3 2 -37 7 -75 10 -38 4 -78 9
-90 12 -52 13 -486 10 -605 -4z m-811 -891 c66 -36 90 -124 51 -187 -55 -88
-188 -82 -233 11 -19 39 -14 110 10 136 50 57 113 72 172 40z m2365 3 c93 -44
96 -183 6 -234 -21 -11 -51 -21 -67 -21 -67 0 -133 67 -133 135 0 68 66 135
133 135 16 0 44 -7 61 -15z"/>
</g>
</svg>
