<svg xmlns="http://www.w3.org/2000/svg" xmlns:xlink="http://www.w3.org/1999/xlink" viewBox="0 0 366.59 265.33"><defs><style>.cls-1{mask:url(#mask);filter:url(#luminosity-noclip-38);}.cls-108,.cls-11,.cls-12,.cls-127,.cls-13,.cls-14,.cls-16,.cls-17,.cls-18,.cls-19,.cls-2,.cls-21,.cls-22,.cls-24,.cls-25,.cls-26,.cls-28,.cls-29,.cls-31,.cls-32,.cls-34,.cls-35,.cls-37,.cls-38,.cls-4,.cls-40,.cls-41,.cls-42,.cls-44,.cls-45,.cls-47,.cls-48,.cls-5,.cls-50,.cls-51,.cls-52,.cls-6,.cls-60,.cls-7,.cls-9{mix-blend-mode:multiply;}.cls-2{fill:url(#linear-gradient);}.cls-3{mask:url(#mask-2);}.cls-4{fill:url(#linear-gradient-2);}.cls-5{fill:url(#linear-gradient-3);}.cls-6{fill:url(#linear-gradient-4);}.cls-7{fill:url(#linear-gradient-5);}.cls-8{mask:url(#mask-6);}.cls-9{fill:url(#linear-gradient-6);}.cls-10{mask:url(#mask-7);}.cls-11{fill:url(#linear-gradient-7);}.cls-12{fill:url(#linear-gradient-8);}.cls-13{fill:url(#linear-gradient-9);}.cls-14{fill:url(#linear-gradient-10);}.cls-15{mask:url(#mask-11);}.cls-16{fill:url(#linear-gradient-11);}.cls-17{fill:url(#linear-gradient-12);}.cls-18{fill:url(#linear-gradient-13);}.cls-19{fill:url(#linear-gradient-14);}.cls-20{mask:url(#mask-15);}.cls-21{fill:url(#linear-gradient-15);}.cls-22{fill:url(#linear-gradient-16);}.cls-23{mask:url(#mask-17);}.cls-24{fill:url(#linear-gradient-17);}.cls-25{fill:url(#linear-gradient-18);}.cls-26{fill:url(#linear-gradient-19);}.cls-27{mask:url(#mask-20);}.cls-28{fill:url(#linear-gradient-20);}.cls-29{fill:url(#linear-gradient-21);}.cls-30{mask:url(#mask-22);}.cls-31{fill:url(#linear-gradient-22);}.cls-32{fill:url(#linear-gradient-23);}.cls-33{mask:url(#mask-24);}.cls-34{fill:url(#linear-gradient-24);}.cls-35{fill:url(#linear-gradient-25);}.cls-36{mask:url(#mask-26);}.cls-37{fill:url(#linear-gradient-26);}.cls-38{fill:url(#linear-gradient-27);}.cls-39{mask:url(#mask-28);}.cls-40{fill:url(#linear-gradient-28);}.cls-41{fill:url(#linear-gradient-29);}.cls-42{fill:url(#linear-gradient-30);}.cls-43{mask:url(#mask-31);}.cls-44{fill:url(#linear-gradient-31);}.cls-45{fill:url(#linear-gradient-32);}.cls-46{mask:url(#mask-33);}.cls-47{fill:url(#linear-gradient-33);}.cls-48{fill:url(#linear-gradient-34);}.cls-49{mask:url(#mask-35);}.cls-50{fill:url(#linear-gradient-35);}.cls-51{fill:url(#linear-gradient-36);}.cls-52{fill:url(#linear-gradient-37);}.cls-53{isolation:isolate;}.cls-54{fill:url(#linear-gradient-38);}.cls-55{fill:url(#linear-gradient-39);}.cls-56{mask:url(#mask-38);}.cls-57{fill:url(#linear-gradient-40);}.cls-58{fill:url(#linear-gradient-41);}.cls-59{opacity:0.68;fill:url(#linear-gradient-42);}.cls-108,.cls-61{fill:#e6e7e8;}.cls-62{fill:url(#linear-gradient-43);}.cls-63{fill:#26a9e0;}.cls-64{fill:#fff;}.cls-65{fill:#4d00b2;}.cls-66{fill:#3f00a3;}.cls-67{fill:#53c3ea;}.cls-68{fill:url(#linear-gradient-44);}.cls-69{fill:#5100d1;}.cls-70{fill:url(#linear-gradient-45);}.cls-71{fill:#360066;}.cls-72{fill:url(#linear-gradient-46);}.cls-73{fill:url(#linear-gradient-47);}.cls-74{fill:url(#linear-gradient-48);}.cls-75{fill:#6c00c1;}.cls-76{fill:#6cf8ff;}.cls-77{fill:#1b75bb;}.cls-78{mask:url(#mask-39);}.cls-79{fill:url(#linear-gradient-49);}.cls-80{mask:url(#mask-41);}.cls-81{fill:url(#linear-gradient-50);}.cls-82{mask:url(#mask-43);}.cls-83{fill:url(#linear-gradient-51);}.cls-84{mask:url(#mask-45);}.cls-85{fill:url(#linear-gradient-52);}.cls-86{mask:url(#mask-47);}.cls-87{fill:url(#linear-gradient-53);}.cls-88{mask:url(#mask-49);}.cls-89{fill:url(#linear-gradient-54);}.cls-90{fill:url(#linear-gradient-55);}.cls-91{fill:url(#linear-gradient-56);}.cls-92{fill:url(#linear-gradient-57);}.cls-93{fill:url(#linear-gradient-58);}.cls-94{fill:url(#linear-gradient-59);}.cls-95{mask:url(#mask-51);}.cls-96{fill:url(#linear-gradient-60);}.cls-97{mask:url(#mask-53);}.cls-98{fill:url(#linear-gradient-61);}.cls-99{fill:url(#linear-gradient-62);}.cls-100{fill:url(#linear-gradient-63);}.cls-101{fill:url(#linear-gradient-64);}.cls-102{fill:url(#linear-gradient-65);}.cls-103{fill:url(#linear-gradient-66);}.cls-104{fill:url(#linear-gradient-67);}.cls-105{fill:url(#linear-gradient-68);}.cls-106{fill:url(#linear-gradient-69);}.cls-107{fill:url(#linear-gradient-70);}.cls-109{fill:url(#linear-gradient-71);}.cls-110{fill:url(#linear-gradient-72);}.cls-111{fill:url(#linear-gradient-73);}.cls-112{fill:url(#linear-gradient-74);}.cls-113{fill:url(#linear-gradient-75);}.cls-114{fill:url(#linear-gradient-76);}.cls-115{fill:url(#linear-gradient-77);}.cls-116{fill:url(#linear-gradient-78);}.cls-117{fill:url(#linear-gradient-79);}.cls-118{fill:url(#linear-gradient-80);}.cls-119{fill:url(#linear-gradient-81);}.cls-120{fill:url(#linear-gradient-82);}.cls-121{fill:url(#linear-gradient-83);}.cls-122{fill:url(#linear-gradient-84);}.cls-123{fill:url(#linear-gradient-85);}.cls-124{fill:url(#linear-gradient-86);}.cls-125{mask:url(#mask-55);}.cls-126{fill:url(#linear-gradient-87);}.cls-127{fill:#d0d2d3;}.cls-128{fill:url(#linear-gradient-88);}.cls-129{fill:url(#linear-gradient-89);}.cls-130{fill:url(#linear-gradient-90);}.cls-131{fill:url(#linear-gradient-91);}.cls-132{fill:url(#linear-gradient-92);}.cls-133{fill:url(#linear-gradient-93);}.cls-134{fill:url(#linear-gradient-94);}.cls-135{fill:url(#linear-gradient-95);}.cls-136{fill:url(#linear-gradient-96);}.cls-137{fill:url(#linear-gradient-97);}.cls-138{fill:url(#linear-gradient-98);}.cls-139{fill:url(#linear-gradient-99);}.cls-140{fill:url(#linear-gradient-100);}.cls-141{fill:url(#linear-gradient-101);}.cls-142{fill:url(#linear-gradient-102);}.cls-143{mask:url(#mask-57);}.cls-144{fill:url(#linear-gradient-103);}.cls-145{mask:url(#mask-59);}.cls-146{fill:url(#linear-gradient-104);}.cls-147{fill:url(#linear-gradient-105);}.cls-148{fill:url(#linear-gradient-106);}.cls-149{fill:url(#linear-gradient-107);}.cls-150{fill:url(#linear-gradient-108);}.cls-151{fill:url(#linear-gradient-109);}.cls-152{fill:url(#linear-gradient-110);}.cls-153{fill:url(#linear-gradient-111);}.cls-154{fill:url(#linear-gradient-112);}.cls-155{fill:url(#linear-gradient-113);}.cls-156{fill:url(#linear-gradient-114);}.cls-157{fill:url(#linear-gradient-115);}.cls-158{fill:url(#linear-gradient-116);}.cls-159{fill:url(#linear-gradient-117);}.cls-160{fill:url(#linear-gradient-118);}.cls-161{fill:url(#linear-gradient-119);}.cls-162{fill:url(#linear-gradient-120);}.cls-163{fill:url(#linear-gradient-121);}.cls-164{fill:url(#linear-gradient-122);}.cls-165{fill:url(#linear-gradient-123);}.cls-166{fill:url(#linear-gradient-124);}.cls-167{fill:url(#linear-gradient-125);}.cls-168{fill:url(#linear-gradient-126);}.cls-169{fill:url(#linear-gradient-127);}.cls-170{fill:url(#linear-gradient-128);}.cls-171{mask:url(#mask-61);}.cls-172{fill:url(#linear-gradient-129);}.cls-173{fill:url(#linear-gradient-130);}.cls-174{fill:url(#linear-gradient-131);}.cls-175{fill:url(#linear-gradient-132);}.cls-176{fill:url(#linear-gradient-133);}.cls-177{fill:url(#linear-gradient-134);}.cls-178{fill:url(#linear-gradient-135);}.cls-179{fill:url(#linear-gradient-136);}.cls-180{fill:url(#linear-gradient-137);}.cls-181{mask:url(#mask-63);}.cls-182{fill:url(#linear-gradient-138);}.cls-183{mask:url(#mask-65);}.cls-184{fill:url(#linear-gradient-139);}.cls-185{mask:url(#mask-67);}.cls-186{fill:url(#linear-gradient-140);}.cls-187{mask:url(#mask-69);}.cls-188{fill:url(#linear-gradient-141);}.cls-189{mask:url(#mask-71);}.cls-190{fill:url(#linear-gradient-142);}.cls-191{mask:url(#mask-73);}.cls-192{fill:url(#linear-gradient-143);}.cls-193{filter:url(#luminosity-noclip-35);}.cls-194{filter:url(#luminosity-noclip-33);}.cls-195{filter:url(#luminosity-noclip-31);}.cls-196{filter:url(#luminosity-noclip-28);}.cls-197{filter:url(#luminosity-noclip-26);}.cls-198{filter:url(#luminosity-noclip-24);}.cls-199{filter:url(#luminosity-noclip-22);}.cls-200{filter:url(#luminosity-noclip-20);}.cls-201{filter:url(#luminosity-noclip-17);}.cls-202{filter:url(#luminosity-noclip-15);}.cls-203{filter:url(#luminosity-noclip-11);}.cls-204{filter:url(#luminosity-noclip-7);}.cls-205{filter:url(#luminosity-noclip-6);}.cls-206{filter:url(#luminosity-noclip-2);}.cls-207{filter:url(#luminosity-noclip);}</style><filter id="luminosity-noclip" x="14.61" y="-8325.66" width="565.08" height="32766" filterUnits="userSpaceOnUse" color-interpolation-filters="sRGB"><feFlood flood-color="#fff" result="bg"/><feBlend in="SourceGraphic" in2="bg"/></filter><mask id="mask" x="14.61" y="-8325.66" width="565.08" height="32766" maskUnits="userSpaceOnUse"><g class="cls-207"/></mask><linearGradient id="linear-gradient" x1="380.76" y1="0.04" x2="216.52" y2="286.77" gradientUnits="userSpaceOnUse"><stop offset="0"/><stop offset="0.11" stop-color="#1d1d1d"/><stop offset="0.73" stop-color="#bebebe"/><stop offset="1" stop-color="#fff"/></linearGradient><filter id="luminosity-noclip-2" x="71.65" y="-8325.66" width="12.61" height="32766" filterUnits="userSpaceOnUse" color-interpolation-filters="sRGB"><feFlood flood-color="#fff" result="bg"/><feBlend in="SourceGraphic" in2="bg"/></filter><mask id="mask-2" x="71.65" y="-8325.66" width="12.61" height="32766" maskUnits="userSpaceOnUse"><g class="cls-206"/></mask><linearGradient id="linear-gradient-2" x1="78.02" y1="218.94" x2="77.89" y2="242.61" gradientTransform="matrix(1, 0.58, 0, 1, 0, -121.63)" gradientUnits="userSpaceOnUse"><stop offset="0"/><stop offset="0.14" stop-color="#060606"/><stop offset="0.34" stop-color="#171717"/><stop offset="0.56" stop-color="#323232"/><stop offset="0.79" stop-color="#585858"/><stop offset="1" stop-color="gray"/></linearGradient><linearGradient id="linear-gradient-3" x1="78.02" y1="218.94" x2="77.89" y2="242.61" gradientTransform="matrix(1, 0.58, 0, 1, 0, -121.63)" gradientUnits="userSpaceOnUse"><stop offset="0"/><stop offset="0.09" stop-color="#070707"/><stop offset="0.22" stop-color="#191919"/><stop offset="0.37" stop-color="#383838"/><stop offset="0.53" stop-color="#626262"/><stop offset="0.71" stop-color="#989898"/><stop offset="0.9" stop-color="#dadada"/><stop offset="1" stop-color="#fff"/></linearGradient><linearGradient id="linear-gradient-4" x1="78.02" y1="127.35" x2="77.89" y2="151.01" gradientTransform="matrix(1, 0.58, 0, -1.85, 0, 400.94)" gradientUnits="userSpaceOnUse"><stop offset="0"/><stop offset="0.15" stop-color="#060606"/><stop offset="0.34" stop-color="#171717"/><stop offset="0.56" stop-color="#323232"/><stop offset="0.79" stop-color="#585858"/><stop offset="1" stop-color="gray"/></linearGradient><linearGradient id="linear-gradient-5" x1="78.02" y1="127.35" x2="77.89" y2="151.01" gradientTransform="matrix(1, 0.58, 0, -1.85, 0, 400.94)" xlink:href="#linear-gradient-3"/><filter id="luminosity-noclip-6" x="56.52" y="-8325.66" width="2.14" height="32766" filterUnits="userSpaceOnUse" color-interpolation-filters="sRGB"><feFlood flood-color="#fff" result="bg"/><feBlend in="SourceGraphic" in2="bg"/></filter><mask id="mask-6" x="56.52" y="-8325.66" width="2.14" height="32766" maskUnits="userSpaceOnUse"><g class="cls-205"/></mask><linearGradient id="linear-gradient-6" x1="57.66" y1="123.96" x2="57.53" y2="147.57" gradientTransform="matrix(1, 0, 0, 1, 0, 0)" xlink:href="#linear-gradient-2"/><filter id="luminosity-noclip-7" x="103.16" y="-8325.66" width="13.4" height="32766" filterUnits="userSpaceOnUse" color-interpolation-filters="sRGB"><feFlood flood-color="#fff" result="bg"/><feBlend in="SourceGraphic" in2="bg"/></filter><mask id="mask-7" x="103.16" y="-8325.66" width="13.4" height="32766" maskUnits="userSpaceOnUse"><g class="cls-204"/></mask><linearGradient id="linear-gradient-7" x1="109.93" y1="147.11" x2="109.79" y2="170.77" gradientTransform="matrix(1, 0, 0, 1, 0, 0)" xlink:href="#linear-gradient-2"/><linearGradient id="linear-gradient-8" x1="57.66" y1="123.96" x2="57.53" y2="147.57" gradientTransform="matrix(1, 0, 0, 1, 0, 0)" xlink:href="#linear-gradient-3"/><linearGradient id="linear-gradient-9" x1="57.66" y1="178.82" x2="57.53" y2="202.43" gradientTransform="matrix(1, 0, 0, -1.85, 0, 522.57)" xlink:href="#linear-gradient-4"/><linearGradient id="linear-gradient-10" x1="57.66" y1="178.82" x2="57.53" y2="202.43" gradientTransform="matrix(1, 0, 0, -1.85, 0, 522.57)" xlink:href="#linear-gradient-3"/><filter id="luminosity-noclip-11" x="223.79" y="-8325.66" width="118.11" height="32766" filterUnits="userSpaceOnUse" color-interpolation-filters="sRGB"><feFlood flood-color="#fff" result="bg"/><feBlend in="SourceGraphic" in2="bg"/></filter><mask id="mask-11" x="223.79" y="-8325.66" width="118.11" height="32766" maskUnits="userSpaceOnUse"><g class="cls-203"/></mask><linearGradient id="linear-gradient-11" x1="237.58" y1="293.51" x2="237.49" y2="259.3" gradientTransform="matrix(0.87, 0.5, 0, 1.15, 77.13, -302.09)" xlink:href="#linear-gradient-3"/><linearGradient id="linear-gradient-12" x1="237.58" y1="293.51" x2="237.49" y2="259.3" gradientTransform="matrix(0.87, 0.5, 0, 1.15, 77.13, -302.09)" xlink:href="#linear-gradient-3"/><linearGradient id="linear-gradient-13" x1="237.55" y1="192.53" x2="237.55" y2="220.98" gradientTransform="matrix(0.87, 0.5, 0, 1.15, 77.13, -302.09)" gradientUnits="userSpaceOnUse"><stop offset="0"/><stop offset="0.14" stop-color="#070707"/><stop offset="0.34" stop-color="#191919"/><stop offset="0.58" stop-color="#373737"/><stop offset="0.83" stop-color="#616161"/><stop offset="1" stop-color="gray"/></linearGradient><linearGradient id="linear-gradient-14" x1="237.55" y1="192.53" x2="237.55" y2="220.98" gradientTransform="matrix(0.87, 0.5, 0, 1.15, 77.13, -302.09)" xlink:href="#linear-gradient-3"/><filter id="luminosity-noclip-15" x="279.48" y="-8325.66" width="10.13" height="32766" filterUnits="userSpaceOnUse" color-interpolation-filters="sRGB"><feFlood flood-color="#fff" result="bg"/><feBlend in="SourceGraphic" in2="bg"/></filter><mask id="mask-15" x="279.48" y="-8325.66" width="10.13" height="32766" maskUnits="userSpaceOnUse"><g class="cls-202"/></mask><linearGradient id="linear-gradient-15" x1="284.54" y1="183.4" x2="284.54" y2="204.88" gradientTransform="matrix(1, 0, 0, 1, 0, 0)" xlink:href="#linear-gradient-13"/><linearGradient id="linear-gradient-16" x1="284.54" y1="183.4" x2="284.54" y2="204.88" gradientTransform="matrix(1, 0, 0, 1, 0, 0)" xlink:href="#linear-gradient-3"/><filter id="luminosity-noclip-17" x="161.89" y="-8325.66" width="14.72" height="32766" filterUnits="userSpaceOnUse" color-interpolation-filters="sRGB"><feFlood flood-color="#fff" result="bg"/><feBlend in="SourceGraphic" in2="bg"/></filter><mask id="mask-17" x="161.89" y="-8325.66" width="14.72" height="32766" maskUnits="userSpaceOnUse"><g class="cls-201"/></mask><linearGradient id="linear-gradient-17" x1="169.25" y1="156.46" x2="169.25" y2="187.67" gradientTransform="matrix(1, 0, 0, 1, 0, 0)" xlink:href="#linear-gradient-13"/><linearGradient id="linear-gradient-18" x1="109.93" y1="147.11" x2="109.79" y2="170.77" gradientTransform="matrix(1, 0, 0, 1, 0, 0)" xlink:href="#linear-gradient-3"/><linearGradient id="linear-gradient-19" x1="169.25" y1="156.46" x2="169.25" y2="187.67" gradientTransform="matrix(1, 0, 0, 1, 0, 0)" xlink:href="#linear-gradient-3"/><filter id="luminosity-noclip-20" x="135.12" y="-8325.66" width="1.65" height="32766" filterUnits="userSpaceOnUse" color-interpolation-filters="sRGB"><feFlood flood-color="#fff" result="bg"/><feBlend in="SourceGraphic" in2="bg"/></filter><mask id="mask-20" x="135.12" y="-8325.66" width="1.65" height="32766" maskUnits="userSpaceOnUse"><g class="cls-200"/></mask><linearGradient id="linear-gradient-20" x1="135.95" y1="206.51" x2="135.95" y2="214.88" gradientTransform="matrix(1, 0, 0, 1, 0, 0)" xlink:href="#linear-gradient-13"/><linearGradient id="linear-gradient-21" x1="135.95" y1="206.51" x2="135.95" y2="214.88" gradientTransform="matrix(1, 0, 0, 1, 0, 0)" xlink:href="#linear-gradient-3"/><filter id="luminosity-noclip-22" x="194.26" y="-8325.66" width="46.43" height="32766" filterUnits="userSpaceOnUse" color-interpolation-filters="sRGB"><feFlood flood-color="#fff" result="bg"/><feBlend in="SourceGraphic" in2="bg"/></filter><mask id="mask-22" x="194.26" y="-8325.66" width="46.43" height="32766" maskUnits="userSpaceOnUse"><g class="cls-199"/></mask><linearGradient id="linear-gradient-22" x1="217.47" y1="106.25" x2="217.47" y2="177.41" gradientTransform="matrix(1, 0, 0, 1, 0, 0)" xlink:href="#linear-gradient-13"/><linearGradient id="linear-gradient-23" x1="217.47" y1="106.25" x2="217.47" y2="177.41" gradientTransform="matrix(1, 0, 0, 1, 0, 0)" xlink:href="#linear-gradient-3"/><filter id="luminosity-noclip-24" x="214.79" y="-8325.66" width="4.97" height="32766" filterUnits="userSpaceOnUse" color-interpolation-filters="sRGB"><feFlood flood-color="#fff" result="bg"/><feBlend in="SourceGraphic" in2="bg"/></filter><mask id="mask-24" x="214.79" y="-8325.66" width="4.97" height="32766" maskUnits="userSpaceOnUse"><g class="cls-198"/></mask><linearGradient id="linear-gradient-24" x1="217.28" y1="192.41" x2="217.28" y2="211.44" gradientTransform="matrix(1, 0, 0, 1, 0, 0)" xlink:href="#linear-gradient-13"/><linearGradient id="linear-gradient-25" x1="217.28" y1="192.41" x2="217.28" y2="211.44" gradientTransform="matrix(1, 0, 0, 1, 0, 0)" xlink:href="#linear-gradient-3"/><filter id="luminosity-noclip-26" x="202.04" y="-8325.66" width="4.97" height="32766" filterUnits="userSpaceOnUse" color-interpolation-filters="sRGB"><feFlood flood-color="#fff" result="bg"/><feBlend in="SourceGraphic" in2="bg"/></filter><mask id="mask-26" x="202.04" y="-8325.66" width="4.97" height="32766" maskUnits="userSpaceOnUse"><g class="cls-197"/></mask><linearGradient id="linear-gradient-26" x1="204.53" y1="201.1" x2="204.53" y2="220.13" gradientTransform="matrix(1, 0, 0, 1, 0, 0)" xlink:href="#linear-gradient-13"/><linearGradient id="linear-gradient-27" x1="204.53" y1="201.1" x2="204.53" y2="220.13" gradientTransform="matrix(1, 0, 0, 1, 0, 0)" xlink:href="#linear-gradient-3"/><filter id="luminosity-noclip-28" x="193.92" y="-8325.66" width="4.97" height="32766" filterUnits="userSpaceOnUse" color-interpolation-filters="sRGB"><feFlood flood-color="#fff" result="bg"/><feBlend in="SourceGraphic" in2="bg"/></filter><mask id="mask-28" x="193.92" y="-8325.66" width="4.97" height="32766" maskUnits="userSpaceOnUse"><g class="cls-196"/></mask><linearGradient id="linear-gradient-28" x1="196.4" y1="210.9" x2="196.4" y2="229.93" gradientTransform="matrix(1, 0, 0, 1, 0, 0)" xlink:href="#linear-gradient-13"/><linearGradient id="linear-gradient-29" x1="109.93" y1="166.24" x2="109.79" y2="189.91" gradientTransform="matrix(1, 0, 0, -1.85, 0, 522.57)" xlink:href="#linear-gradient-4"/><linearGradient id="linear-gradient-30" x1="196.4" y1="210.9" x2="196.4" y2="229.93" gradientTransform="matrix(1, 0, 0, 1, 0, 0)" xlink:href="#linear-gradient-3"/><filter id="luminosity-noclip-31" x="235.92" y="-8325.66" width="4.97" height="32766" filterUnits="userSpaceOnUse" color-interpolation-filters="sRGB"><feFlood flood-color="#fff" result="bg"/><feBlend in="SourceGraphic" in2="bg"/></filter><mask id="mask-31" x="235.92" y="-8325.66" width="4.97" height="32766" maskUnits="userSpaceOnUse"><g class="cls-195"/></mask><linearGradient id="linear-gradient-31" x1="238.41" y1="204.6" x2="238.41" y2="223.63" gradientTransform="matrix(1, 0, 0, 1, 0, 0)" xlink:href="#linear-gradient-13"/><linearGradient id="linear-gradient-32" x1="238.41" y1="204.6" x2="238.41" y2="223.63" gradientTransform="matrix(1, 0, 0, 1, 0, 0)" xlink:href="#linear-gradient-3"/><filter id="luminosity-noclip-33" x="226.75" y="-8325.66" width="4.97" height="32766" filterUnits="userSpaceOnUse" color-interpolation-filters="sRGB"><feFlood flood-color="#fff" result="bg"/><feBlend in="SourceGraphic" in2="bg"/></filter><mask id="mask-33" x="226.75" y="-8325.66" width="4.97" height="32766" maskUnits="userSpaceOnUse"><g class="cls-194"/></mask><linearGradient id="linear-gradient-33" x1="229.23" y1="215.34" x2="229.23" y2="234.37" gradientTransform="matrix(1, 0, 0, 1, 0, 0)" xlink:href="#linear-gradient-13"/><linearGradient id="linear-gradient-34" x1="229.23" y1="215.34" x2="229.23" y2="234.37" gradientTransform="matrix(1, 0, 0, 1, 0, 0)" xlink:href="#linear-gradient-3"/><filter id="luminosity-noclip-35" x="215.05" y="-8325.66" width="4.97" height="32766" filterUnits="userSpaceOnUse" color-interpolation-filters="sRGB"><feFlood flood-color="#fff" result="bg"/><feBlend in="SourceGraphic" in2="bg"/></filter><mask id="mask-35" x="215.05" y="-8325.66" width="4.97" height="32766" maskUnits="userSpaceOnUse"><g class="cls-193"/></mask><linearGradient id="linear-gradient-35" x1="217.54" y1="223.09" x2="217.54" y2="242.12" gradientTransform="matrix(1, 0, 0, 1, 0, 0)" xlink:href="#linear-gradient-13"/><linearGradient id="linear-gradient-36" x1="217.54" y1="223.09" x2="217.54" y2="242.12" gradientTransform="matrix(1, 0, 0, 1, 0, 0)" xlink:href="#linear-gradient-3"/><linearGradient id="linear-gradient-37" x1="109.93" y1="166.24" x2="109.79" y2="189.91" gradientTransform="matrix(1, 0, 0, -1.85, 0, 522.57)" xlink:href="#linear-gradient-3"/><linearGradient id="linear-gradient-38" x1="285.47" y1="-44.35" x2="81.06" y2="309.7" gradientUnits="userSpaceOnUse"><stop offset="0" stop-color="#3e0060"/><stop offset="1" stop-color="#220049"/></linearGradient><linearGradient id="linear-gradient-39" x1="285.47" y1="-44.35" x2="81.06" y2="309.7" gradientUnits="userSpaceOnUse"><stop offset="0" stop-color="#4e0062"/><stop offset="1" stop-color="#220076"/></linearGradient><filter id="luminosity-noclip-38" x="14.61" y="-17.17" width="565.08" height="326.45" filterUnits="userSpaceOnUse" color-interpolation-filters="sRGB"><feFlood flood-color="#fff" result="bg"/><feBlend in="SourceGraphic" in2="bg"/></filter><mask id="mask-38" x="14.61" y="-17.17" width="565.08" height="326.45" maskUnits="userSpaceOnUse"><g class="cls-1"><path class="cls-2" d="M575.37,118.94,343.92-14.69c-6.37-3.68-17.5-3.22-24.85,1L20.69,158.81c-6.51,3.76-7.87,9.22-3.69,13a11,11,0,0,0,1.91,1.37L250.36,306.79c6.37,3.68,17.5,3.22,24.85-1L573.59,133.29l.36-.23c6.85-4.47,5.66-8.45,5.67-8.47C579.41,122.47,578,120.47,575.37,118.94Z"/></g></mask><linearGradient id="linear-gradient-40" x1="324.41" y1="-27.89" x2="162.19" y2="255.33" gradientUnits="userSpaceOnUse"><stop offset="0" stop-color="#3a065b"/><stop offset="0.21" stop-color="#41056d"/><stop offset="1" stop-color="#5900ad"/></linearGradient><linearGradient id="linear-gradient-41" x1="505.36" y1="120.5" x2="525.4" y2="207.12" gradientTransform="matrix(0.87, 0.5, -1.5, 0.29, -93.02, -92.22)" gradientUnits="userSpaceOnUse"><stop offset="0" stop-color="#43006b"/><stop offset="0.18" stop-color="#44026f"/><stop offset="0.35" stop-color="#46077a"/><stop offset="0.5" stop-color="#4a0f8c"/><stop offset="0.66" stop-color="#501ba6"/><stop offset="0.8" stop-color="#582ac7"/><stop offset="0.95" stop-color="#603cef"/><stop offset="1" stop-color="#6443ff"/></linearGradient><linearGradient id="linear-gradient-42" x1="505.36" y1="120.5" x2="525.4" y2="207.12" gradientTransform="matrix(0.87, 0.5, -1.5, 0.29, -93.02, -92.22)" gradientUnits="userSpaceOnUse"><stop offset="0" stop-color="#632ada"/><stop offset="0.08" stop-color="#5f3de0"/><stop offset="0.26" stop-color="#565feb"/><stop offset="0.43" stop-color="#5079f4"/><stop offset="0.61" stop-color="#4c8cfa"/><stop offset="0.8" stop-color="#4997fe"/><stop offset="1" stop-color="#489bff"/></linearGradient><linearGradient id="linear-gradient-43" x1="84.26" y1="98.95" x2="158.77" y2="166.1" gradientUnits="userSpaceOnUse"><stop offset="0" stop-color="#0089e5"/><stop offset="0.26" stop-color="#007ed3"/><stop offset="0.75" stop-color="#0064a8"/></linearGradient><linearGradient id="linear-gradient-44" x1="56.52" y1="166.92" x2="126.22" y2="166.92" gradientUnits="userSpaceOnUse"><stop offset="0.3" stop-color="#0089e5"/><stop offset="0.49" stop-color="#009be5"/><stop offset="0.65" stop-color="#00aee5"/><stop offset="0.94" stop-color="#0064a8"/></linearGradient><linearGradient id="linear-gradient-45" x1="56.52" y1="157.72" x2="126.22" y2="157.72" gradientUnits="userSpaceOnUse"><stop offset="0" stop-color="#68f5ea"/><stop offset="0.09" stop-color="#538bea"/><stop offset="0.24" stop-color="#579dea"/><stop offset="0.54" stop-color="#60ccea"/><stop offset="0.83" stop-color="#6affea"/><stop offset="1" stop-color="#5390ea"/></linearGradient><linearGradient id="linear-gradient-46" x1="72.47" y1="136.52" x2="133.79" y2="136.52" gradientUnits="userSpaceOnUse"><stop offset="0" stop-color="#538bea"/><stop offset="0.11" stop-color="#579dea"/><stop offset="0.34" stop-color="#60ccea"/><stop offset="0.56" stop-color="#6affea"/><stop offset="1" stop-color="#5390ea"/></linearGradient><linearGradient id="linear-gradient-47" x1="70.86" y1="137.42" x2="132.81" y2="137.42" gradientUnits="userSpaceOnUse"><stop offset="0.3" stop-color="#0089e5"/><stop offset="0.52" stop-color="#007ed3"/><stop offset="0.94" stop-color="#0064a8"/></linearGradient><linearGradient id="linear-gradient-48" x1="70.86" y1="143.35" x2="160.53" y2="143.35" gradientUnits="userSpaceOnUse"><stop offset="0.28" stop-color="#0089e5"/><stop offset="0.44" stop-color="#007ed3"/><stop offset="0.75" stop-color="#0064a8"/></linearGradient><mask id="mask-39" x="103.16" y="146.84" width="13.4" height="24.32" maskUnits="userSpaceOnUse"><g class="cls-10"><rect class="cls-11" x="103.16" y="146.84" width="13.4" height="24.32"/></g></mask><filter id="luminosity-noclip-39" x="103.16" y="146.84" width="13.4" height="24.32" filterUnits="userSpaceOnUse" color-interpolation-filters="sRGB"><feFlood flood-color="#fff" result="bg"/><feBlend in="SourceGraphic" in2="bg"/></filter><linearGradient id="linear-gradient-49" x1="109.93" y1="147.11" x2="109.79" y2="170.77" gradientUnits="userSpaceOnUse"><stop offset="0" stop-color="#fff"/><stop offset="0.13" stop-color="#f8ffff"/><stop offset="0.31" stop-color="#e6feff"/><stop offset="0.53" stop-color="#c7fcff"/><stop offset="0.76" stop-color="#9dfaff"/><stop offset="1" stop-color="#6cf8ff"/></linearGradient><mask id="mask-41" x="103.16" y="171.16" width="13.4" height="44.91" maskUnits="userSpaceOnUse"><g class="cls-10"><rect class="cls-41" x="103.16" y="171.16" width="13.4" height="44.91"/></g></mask><filter id="luminosity-noclip-40" x="103.16" y="171.16" width="13.4" height="44.91" filterUnits="userSpaceOnUse" color-interpolation-filters="sRGB"><feFlood flood-color="#fff" result="bg"/><feBlend in="SourceGraphic" in2="bg"/></filter><linearGradient id="linear-gradient-50" x1="109.93" y1="166.24" x2="109.79" y2="189.91" gradientTransform="matrix(1, 0, 0, -1.85, 0, 522.57)" xlink:href="#linear-gradient-49"/><mask id="mask-43" x="71.65" y="138.5" width="12.61" height="31.61" maskUnits="userSpaceOnUse"><g class="cls-3"><polygon class="cls-4" points="84.26 170.11 71.65 162.81 71.65 138.5 84.26 145.79 84.26 170.11"/></g></mask><filter id="luminosity-noclip-41" x="71.65" y="138.5" width="12.61" height="31.61" filterUnits="userSpaceOnUse" color-interpolation-filters="sRGB"><feFlood flood-color="#fff" result="bg"/><feBlend in="SourceGraphic" in2="bg"/></filter><linearGradient id="linear-gradient-51" x1="78.02" y1="218.94" x2="77.89" y2="242.61" gradientTransform="matrix(1, 0.58, 0, 1, 0, -121.63)" xlink:href="#linear-gradient-49"/><mask id="mask-45" x="71.65" y="162.81" width="12.61" height="52.2" maskUnits="userSpaceOnUse"><g class="cls-3"><polygon class="cls-6" points="84.26 170.11 71.65 162.81 71.65 207.72 84.26 215.02 84.26 170.11"/></g></mask><filter id="luminosity-noclip-42" x="71.65" y="162.81" width="12.61" height="52.2" filterUnits="userSpaceOnUse" color-interpolation-filters="sRGB"><feFlood flood-color="#fff" result="bg"/><feBlend in="SourceGraphic" in2="bg"/></filter><linearGradient id="linear-gradient-52" x1="78.02" y1="127.35" x2="77.89" y2="151.01" gradientTransform="matrix(1, 0.58, 0, -1.85, 0, 400.94)" xlink:href="#linear-gradient-49"/><mask id="mask-47" x="56.52" y="123.66" width="2.14" height="24.32" maskUnits="userSpaceOnUse"><g class="cls-8"><rect class="cls-9" x="56.52" y="123.66" width="2.14" height="24.32"/></g></mask><filter id="luminosity-noclip-43" x="56.52" y="123.66" width="2.14" height="24.32" filterUnits="userSpaceOnUse" color-interpolation-filters="sRGB"><feFlood flood-color="#fff" result="bg"/><feBlend in="SourceGraphic" in2="bg"/></filter><linearGradient id="linear-gradient-53" x1="57.66" y1="123.96" x2="57.53" y2="147.57" xlink:href="#linear-gradient-49"/><mask id="mask-49" x="56.52" y="147.98" width="2.14" height="44.91" maskUnits="userSpaceOnUse"><g class="cls-8"><rect class="cls-13" x="56.52" y="147.98" width="2.14" height="44.91"/></g></mask><filter id="luminosity-noclip-44" x="56.52" y="147.98" width="2.14" height="44.91" filterUnits="userSpaceOnUse" color-interpolation-filters="sRGB"><feFlood flood-color="#fff" result="bg"/><feBlend in="SourceGraphic" in2="bg"/></filter><linearGradient id="linear-gradient-54" x1="57.66" y1="178.82" x2="57.53" y2="202.43" gradientTransform="matrix(1, 0, 0, -1.85, 0, 522.57)" xlink:href="#linear-gradient-49"/><linearGradient id="linear-gradient-55" x1="244.62" y1="165.11" x2="301.28" y2="165.11" gradientUnits="userSpaceOnUse"><stop offset="0" stop-color="#671de7"/><stop offset="1" stop-color="#8c3ff2"/></linearGradient><linearGradient id="linear-gradient-56" x1="244.62" y1="152.42" x2="301.28" y2="152.42" gradientUnits="userSpaceOnUse"><stop offset="0" stop-color="#7c64ff"/><stop offset="0.12" stop-color="#7759ff"/><stop offset="0.3" stop-color="#7251ff"/><stop offset="0.57" stop-color="#714eff"/><stop offset="1" stop-color="#7e84ff"/></linearGradient><linearGradient id="linear-gradient-57" x1="269.24" y1="188.57" x2="205.87" y2="298.34" gradientTransform="matrix(0.87, 0.5, 0, 1.15, 77.13, -302.09)" gradientUnits="userSpaceOnUse"><stop offset="0" stop-color="#00dfff"/><stop offset="0.65" stop-color="#00baff"/><stop offset="1" stop-color="#00acff"/></linearGradient><linearGradient id="linear-gradient-58" x1="222.18" y1="97.81" x2="343.51" y2="97.81" gradientUnits="userSpaceOnUse"><stop offset="0" stop-color="#7c64ff"/><stop offset="0.07" stop-color="#7c6aff"/><stop offset="0.3" stop-color="#7d79ff"/><stop offset="0.58" stop-color="#7e81ff"/><stop offset="1" stop-color="#7e84ff"/></linearGradient><linearGradient id="linear-gradient-59" x1="268.32" y1="188.04" x2="206.78" y2="294.63" xlink:href="#linear-gradient-57"/><mask id="mask-51" x="223.79" y="97.86" width="118.11" height="95.34" maskUnits="userSpaceOnUse"><g class="cls-15"><polygon class="cls-16" points="341.9 166.05 223.79 97.86 223.79 125.02 341.9 193.2 341.9 166.05"/></g></mask><filter id="luminosity-noclip-45" x="223.79" y="97.86" width="118.11" height="95.34" filterUnits="userSpaceOnUse" color-interpolation-filters="sRGB"><feFlood flood-color="#fff" result="bg"/><feBlend in="SourceGraphic" in2="bg"/></filter><linearGradient id="linear-gradient-60" x1="237.58" y1="293.51" x2="237.49" y2="259.3" gradientTransform="matrix(0.87, 0.5, 0, 1.15, 77.13, -302.09)" xlink:href="#linear-gradient-49"/><mask id="mask-53" x="223.79" y="1.83" width="118.11" height="91.1" maskUnits="userSpaceOnUse"><g class="cls-15"><polygon class="cls-18" points="341.9 92.93 223.79 24.74 223.79 1.83 341.9 70.02 341.9 92.93"/></g></mask><filter id="luminosity-noclip-46" x="223.79" y="1.83" width="118.11" height="91.1" filterUnits="userSpaceOnUse" color-interpolation-filters="sRGB"><feFlood flood-color="#fff" result="bg"/><feBlend in="SourceGraphic" in2="bg"/></filter><linearGradient id="linear-gradient-61" x1="237.55" y1="192.53" x2="237.55" y2="220.98" gradientTransform="matrix(0.87, 0.5, 0, 1.15, 77.13, -302.09)" xlink:href="#linear-gradient-49"/><linearGradient id="linear-gradient-62" x1="345.06" y1="90.18" x2="345.06" y2="173.73" gradientUnits="userSpaceOnUse"><stop offset="0" stop-color="#7c64ff"/><stop offset="0.2" stop-color="#7759ff"/><stop offset="0.52" stop-color="#7251ff"/><stop offset="1" stop-color="#714eff"/></linearGradient><linearGradient id="linear-gradient-63" x1="222.18" y1="56.03" x2="346.6" y2="56.03" gradientUnits="userSpaceOnUse"><stop offset="0" stop-color="#714eff"/><stop offset="1" stop-color="#7c64ff"/></linearGradient><linearGradient id="linear-gradient-64" x1="281.98" y1="136.37" x2="283.72" y2="134.64" gradientTransform="matrix(1, 0, 0, 1, 0, 0)" xlink:href="#linear-gradient-57"/><linearGradient id="linear-gradient-65" x1="318.89" y1="156.77" x2="319.72" y2="155.95" gradientTransform="matrix(1, 0, 0, 1, 0, 0)" xlink:href="#linear-gradient-57"/><linearGradient id="linear-gradient-66" x1="321.23" y1="158.15" x2="322.05" y2="157.32" gradientTransform="matrix(1, 0, 0, 1, 0, 0)" xlink:href="#linear-gradient-57"/><linearGradient id="linear-gradient-67" x1="323.56" y1="159.52" x2="324.38" y2="158.7" gradientTransform="matrix(1, 0, 0, 1, 0, 0)" xlink:href="#linear-gradient-57"/><linearGradient id="linear-gradient-68" x1="325.89" y1="160.9" x2="326.72" y2="160.07" gradientTransform="matrix(1, 0, 0, 1, 0, 0)" xlink:href="#linear-gradient-57"/><linearGradient id="linear-gradient-69" x1="328.23" y1="162.27" x2="329.05" y2="161.45" gradientTransform="matrix(1, 0, 0, 1, 0, 0)" xlink:href="#linear-gradient-57"/><linearGradient id="linear-gradient-70" x1="330.56" y1="163.65" x2="331.38" y2="162.82" gradientTransform="matrix(1, 0, 0, 1, 0, 0)" xlink:href="#linear-gradient-57"/><linearGradient id="linear-gradient-71" x1="445.67" y1="294.78" x2="512.57" y2="294.78" gradientTransform="matrix(0.87, 0.5, -1, 0.58, 182.19, -195.87)" gradientUnits="userSpaceOnUse"><stop offset="0" stop-color="#671de7"/><stop offset="0.23" stop-color="#8c3ef2"/><stop offset="0.45" stop-color="#ab5afc"/><stop offset="0.58" stop-color="#b664ff"/><stop offset="0.65" stop-color="#b25af6"/><stop offset="0.78" stop-color="#a63edf"/><stop offset="0.94" stop-color="#9211b9"/><stop offset="1" stop-color="#8b00aa"/></linearGradient><linearGradient id="linear-gradient-72" x1="445.53" y1="293.83" x2="510.43" y2="293.83" gradientTransform="matrix(0.87, 0.5, -1, 0.58, 182.19, -195.87)" xlink:href="#linear-gradient-56"/><linearGradient id="linear-gradient-73" x1="468.32" y1="288.52" x2="485.92" y2="288.52" gradientTransform="matrix(0.87, 0.5, -1, 0.58, 182.19, -195.87)" gradientUnits="userSpaceOnUse"><stop offset="0" stop-color="#7c7aff"/><stop offset="1" stop-color="#8980ff"/></linearGradient><linearGradient id="linear-gradient-74" x1="298.2" y1="216.93" x2="304.56" y2="216.93" gradientUnits="userSpaceOnUse"><stop offset="0" stop-color="#420091"/><stop offset="0.31" stop-color="#45008a"/><stop offset="0.74" stop-color="#4c0078"/><stop offset="1" stop-color="#52006a"/></linearGradient><linearGradient id="linear-gradient-75" x1="290.34" y1="212.39" x2="296.7" y2="212.39" xlink:href="#linear-gradient-74"/><linearGradient id="linear-gradient-76" x1="308.45" y1="209.68" x2="313.73" y2="209.68" xlink:href="#linear-gradient-74"/><linearGradient id="linear-gradient-77" x1="301.93" y1="205.92" x2="307.21" y2="205.92" xlink:href="#linear-gradient-74"/><linearGradient id="linear-gradient-78" x1="279.46" y1="201.86" x2="289.62" y2="201.86" gradientTransform="matrix(1, 0, 0, 1, 0, 0)" xlink:href="#linear-gradient-57"/><linearGradient id="linear-gradient-79" x1="318.59" y1="217.89" x2="322.76" y2="217.89" xlink:href="#linear-gradient-74"/><linearGradient id="linear-gradient-80" x1="311.55" y1="221.95" x2="315.72" y2="221.95" xlink:href="#linear-gradient-74"/><linearGradient id="linear-gradient-81" x1="311.55" y1="217.89" x2="315.72" y2="217.89" xlink:href="#linear-gradient-74"/><linearGradient id="linear-gradient-82" x1="318.59" y1="221.95" x2="322.76" y2="221.95" xlink:href="#linear-gradient-74"/><linearGradient id="linear-gradient-83" x1="782.29" y1="323.75" x2="783.71" y2="323.75" gradientTransform="matrix(0.87, 0.5, -1, 0.58, -33.75, -360.61)" xlink:href="#linear-gradient-57"/><linearGradient id="linear-gradient-84" x1="778.22" y1="327.27" x2="779.65" y2="327.27" gradientTransform="matrix(0.87, 0.5, -1, 0.58, -33.75, -360.61)" xlink:href="#linear-gradient-57"/><linearGradient id="linear-gradient-85" x1="782.48" y1="330.79" x2="783.71" y2="330.79" gradientTransform="matrix(0.87, 0.5, -1, 0.58, -33.75, -360.61)" xlink:href="#linear-gradient-57"/><linearGradient id="linear-gradient-86" x1="786.31" y1="327.27" x2="787.81" y2="327.27" gradientTransform="matrix(0.87, 0.5, -1, 0.58, -33.75, -360.61)" xlink:href="#linear-gradient-57"/><mask id="mask-55" x="279.48" y="183.68" width="10.13" height="21.16" maskUnits="userSpaceOnUse"><g class="cls-20"><path class="cls-21" d="M279.48,183.68v18.24h0A2.5,2.5,0,0,0,281,204a7.86,7.86,0,0,0,7.16,0,2.5,2.5,0,0,0,1.48-2.06h0V183.68Z"/></g></mask><filter id="luminosity-noclip-47" x="279.48" y="183.68" width="10.13" height="21.16" filterUnits="userSpaceOnUse" color-interpolation-filters="sRGB"><feFlood flood-color="#fff" result="bg"/><feBlend in="SourceGraphic" in2="bg"/></filter><linearGradient id="linear-gradient-87" x1="284.54" y1="183.4" x2="284.54" y2="204.88" xlink:href="#linear-gradient-49"/><linearGradient id="linear-gradient-88" x1="158.82" y1="189.56" x2="180.15" y2="189.56" xlink:href="#linear-gradient-56"/><linearGradient id="linear-gradient-89" x1="133.23" y1="225.17" x2="169.7" y2="184.63" xlink:href="#linear-gradient-56"/><linearGradient id="linear-gradient-90" x1="133.98" y1="223.24" x2="170.26" y2="182.9" gradientUnits="userSpaceOnUse"><stop offset="0" stop-color="#6630e7"/><stop offset="0" stop-color="#662fe7"/><stop offset="0.14" stop-color="#5c1add"/><stop offset="0.28" stop-color="#560bd6"/><stop offset="0.45" stop-color="#5203d2"/><stop offset="0.72" stop-color="#5100d1"/><stop offset="1" stop-color="#714eff"/></linearGradient><linearGradient id="linear-gradient-91" x1="159.73" y1="184.27" x2="178.77" y2="184.27" xlink:href="#linear-gradient-56"/><linearGradient id="linear-gradient-92" x1="161.89" y1="184.27" x2="176.61" y2="184.27" xlink:href="#linear-gradient-74"/><linearGradient id="linear-gradient-93" x1="165.86" y1="186.98" x2="172.77" y2="179.62" gradientTransform="matrix(1, 0, 0, 1, 0, 0)" xlink:href="#linear-gradient-57"/><linearGradient id="linear-gradient-94" x1="221.39" y1="463.71" x2="226.43" y2="463.71" gradientTransform="matrix(0.87, 0.5, -0.85, 0.78, 355.43, -276.54)" xlink:href="#linear-gradient-74"/><linearGradient id="linear-gradient-95" x1="221.55" y1="457.54" x2="225.59" y2="469.18" gradientTransform="matrix(0.87, 0.5, -0.85, 0.78, 355.43, -276.54)" xlink:href="#linear-gradient-56"/><linearGradient id="linear-gradient-96" x1="154.84" y1="196.25" x2="148.82" y2="206.68" xlink:href="#linear-gradient-74"/><linearGradient id="linear-gradient-97" x1="157.66" y1="197.88" x2="151.65" y2="208.31" xlink:href="#linear-gradient-74"/><linearGradient id="linear-gradient-98" x1="160.44" y1="199.49" x2="154.42" y2="209.91" xlink:href="#linear-gradient-74"/><linearGradient id="linear-gradient-99" x1="154.8" y1="195.9" x2="148.78" y2="206.32" xlink:href="#linear-gradient-56"/><linearGradient id="linear-gradient-100" x1="157.62" y1="197.53" x2="151.6" y2="207.96" xlink:href="#linear-gradient-56"/><linearGradient id="linear-gradient-101" x1="160.4" y1="199.14" x2="154.38" y2="209.56" xlink:href="#linear-gradient-56"/><linearGradient id="linear-gradient-102" x1="133.76" y1="218.2" x2="130.14" y2="224.47" gradientTransform="matrix(1, 0, 0, 1, 0, 0)" xlink:href="#linear-gradient-57"/><mask id="mask-57" x="161.89" y="156.87" width="14.72" height="30.75" maskUnits="userSpaceOnUse"><g class="cls-23"><path class="cls-24" d="M161.89,156.87v26.5h0a3.66,3.66,0,0,0,2.16,3,11.57,11.57,0,0,0,10.41,0,3.67,3.67,0,0,0,2.15-3h0v-26.5Z"/></g></mask><filter id="luminosity-noclip-48" x="161.89" y="156.87" width="14.72" height="30.75" filterUnits="userSpaceOnUse" color-interpolation-filters="sRGB"><feFlood flood-color="#fff" result="bg"/><feBlend in="SourceGraphic" in2="bg"/></filter><linearGradient id="linear-gradient-103" x1="169.25" y1="156.46" x2="169.25" y2="187.67" xlink:href="#linear-gradient-49"/><mask id="mask-59" x="135.12" y="206.62" width="1.65" height="8.24" maskUnits="userSpaceOnUse"><g class="cls-27"><path class="cls-28" d="M135.12,206.62v7.77h0a.4.4,0,0,0,.24.33,1.27,1.27,0,0,0,1.17,0,.4.4,0,0,0,.24-.33h0v-7.77Z"/></g></mask><filter id="luminosity-noclip-49" x="135.12" y="206.62" width="1.65" height="8.24" filterUnits="userSpaceOnUse" color-interpolation-filters="sRGB"><feFlood flood-color="#fff" result="bg"/><feBlend in="SourceGraphic" in2="bg"/></filter><linearGradient id="linear-gradient-104" x1="135.95" y1="206.51" x2="135.95" y2="214.88" xlink:href="#linear-gradient-49"/><linearGradient id="linear-gradient-105" x1="181.56" y1="166.72" x2="252.96" y2="166.72" gradientUnits="userSpaceOnUse"><stop offset="0" stop-color="#671de7"/><stop offset="0.28" stop-color="#8c3ef2"/><stop offset="0.55" stop-color="#ab5afc"/><stop offset="0.7" stop-color="#b664ff"/><stop offset="0.71" stop-color="#b056f3"/><stop offset="0.73" stop-color="#a53bdc"/><stop offset="0.76" stop-color="#9b25ca"/><stop offset="0.78" stop-color="#9414bb"/><stop offset="0.82" stop-color="#8f09b1"/><stop offset="0.87" stop-color="#8c02ac"/><stop offset="1" stop-color="#8b00aa"/></linearGradient><linearGradient id="linear-gradient-106" x1="194.26" y1="163.86" x2="240.69" y2="163.86" gradientTransform="matrix(1, 0, 0, 1, 0, 0)" xlink:href="#linear-gradient-57"/><linearGradient id="linear-gradient-107" x1="181.57" y1="151.31" x2="209.06" y2="151.31" xlink:href="#linear-gradient-56"/><linearGradient id="linear-gradient-108" x1="225.47" y1="176.66" x2="252.96" y2="176.66" xlink:href="#linear-gradient-56"/><linearGradient id="linear-gradient-109" x1="196.69" y1="147.41" x2="202.49" y2="147.41" gradientTransform="matrix(1, 0, 0, 1, 0, 0)" xlink:href="#linear-gradient-57"/><linearGradient id="linear-gradient-110" x1="237.49" y1="177.72" x2="243.28" y2="177.72" gradientTransform="matrix(1, 0, 0, 1, 0, 0)" xlink:href="#linear-gradient-57"/><linearGradient id="linear-gradient-111" x1="193.99" y1="150.05" x2="196.04" y2="150.05" xlink:href="#linear-gradient-74"/><linearGradient id="linear-gradient-112" x1="190.54" y1="152.05" x2="192.59" y2="152.05" xlink:href="#linear-gradient-74"/><linearGradient id="linear-gradient-113" x1="233.15" y1="179.64" x2="235.19" y2="179.64" xlink:href="#linear-gradient-74"/><linearGradient id="linear-gradient-114" x1="190.54" y1="150.05" x2="192.59" y2="150.05" xlink:href="#linear-gradient-74"/><linearGradient id="linear-gradient-115" x1="193.99" y1="152.05" x2="196.04" y2="152.05" xlink:href="#linear-gradient-74"/><linearGradient id="linear-gradient-116" x1="188.88" y1="154.33" x2="191.78" y2="154.33" xlink:href="#linear-gradient-74"/><linearGradient id="linear-gradient-117" x1="204.84" y1="146.58" x2="206.45" y2="146.58" xlink:href="#linear-gradient-74"/><linearGradient id="linear-gradient-118" x1="246.75" y1="170.78" x2="248.37" y2="170.78" xlink:href="#linear-gradient-74"/><linearGradient id="linear-gradient-119" x1="247.46" y1="173.05" x2="249.51" y2="173.05" xlink:href="#linear-gradient-74"/><linearGradient id="linear-gradient-120" x1="244.02" y1="175.04" x2="246.06" y2="175.04" xlink:href="#linear-gradient-74"/><linearGradient id="linear-gradient-121" x1="244.02" y1="173.05" x2="246.06" y2="173.05" xlink:href="#linear-gradient-74"/><linearGradient id="linear-gradient-122" x1="247.46" y1="175.04" x2="249.51" y2="175.04" xlink:href="#linear-gradient-74"/><linearGradient id="linear-gradient-123" x1="696.19" y1="321.01" x2="696.89" y2="321.01" gradientTransform="matrix(0.87, 0.5, -1, 0.58, -33.75, -360.61)" xlink:href="#linear-gradient-57"/><linearGradient id="linear-gradient-124" x1="694.2" y1="322.74" x2="694.9" y2="322.74" gradientTransform="matrix(0.87, 0.5, -1, 0.58, -33.75, -360.61)" xlink:href="#linear-gradient-57"/><linearGradient id="linear-gradient-125" x1="696.29" y1="324.46" x2="696.89" y2="324.46" gradientTransform="matrix(0.87, 0.5, -1, 0.58, -33.75, -360.61)" xlink:href="#linear-gradient-57"/><linearGradient id="linear-gradient-126" x1="698.16" y1="322.74" x2="698.9" y2="322.74" gradientTransform="matrix(0.87, 0.5, -1, 0.58, -33.75, -360.61)" xlink:href="#linear-gradient-57"/><linearGradient id="linear-gradient-127" x1="197.19" y1="147.41" x2="201.99" y2="147.41" xlink:href="#linear-gradient-74"/><linearGradient id="linear-gradient-128" x1="237.99" y1="177.72" x2="242.78" y2="177.72" xlink:href="#linear-gradient-74"/><mask id="mask-61" x="194.26" y="107.17" width="46.43" height="70.13" maskUnits="userSpaceOnUse"><g class="cls-30"><path class="cls-31" d="M194.26,107.17V160a.2.2,0,0,0,.11.19l29.44,17a.58.58,0,0,0,.57,0l16.24-9.38s0-.05,0-.09h0V107.17Z"/></g></mask><filter id="luminosity-noclip-50" x="194.26" y="107.17" width="46.43" height="70.13" filterUnits="userSpaceOnUse" color-interpolation-filters="sRGB"><feFlood flood-color="#fff" result="bg"/><feBlend in="SourceGraphic" in2="bg"/></filter><linearGradient id="linear-gradient-129" x1="217.47" y1="106.25" x2="217.47" y2="177.41" xlink:href="#linear-gradient-49"/><linearGradient id="linear-gradient-130" x1="241.81" y1="348.74" x2="302.7" y2="348.74" gradientTransform="matrix(0.68, 0.4, -0.76, 0.69, 297.53, -124.46)" xlink:href="#linear-gradient-56"/><linearGradient id="linear-gradient-131" x1="263.35" y1="348.76" x2="281.13" y2="348.76" gradientTransform="matrix(0.68, 0.4, -0.76, 0.69, 297.53, -124.46)" xlink:href="#linear-gradient-57"/><linearGradient id="linear-gradient-132" x1="202.04" y1="218.28" x2="207.01" y2="218.28" gradientTransform="matrix(1, 0, 0, 1, 0, 0)" xlink:href="#linear-gradient-57"/><linearGradient id="linear-gradient-133" x1="214.79" y1="209.6" x2="219.76" y2="209.6" gradientTransform="matrix(1, 0, 0, 1, 0, 0)" xlink:href="#linear-gradient-57"/><linearGradient id="linear-gradient-134" x1="193.92" y1="228.09" x2="198.89" y2="228.09" gradientTransform="matrix(1, 0, 0, 1, 0, 0)" xlink:href="#linear-gradient-57"/><linearGradient id="linear-gradient-135" x1="226.75" y1="232.53" x2="231.72" y2="232.53" gradientTransform="matrix(1, 0, 0, 1, 0, 0)" xlink:href="#linear-gradient-57"/><linearGradient id="linear-gradient-136" x1="235.92" y1="221.78" x2="240.9" y2="221.78" gradientTransform="matrix(1, 0, 0, 1, 0, 0)" xlink:href="#linear-gradient-57"/><linearGradient id="linear-gradient-137" x1="215.05" y1="240.27" x2="220.02" y2="240.27" gradientTransform="matrix(1, 0, 0, 1, 0, 0)" xlink:href="#linear-gradient-57"/><mask id="mask-63" x="214.79" y="192.41" width="4.97" height="19.03" maskUnits="userSpaceOnUse"><g class="cls-33"><path class="cls-34" d="M219.76,192.41h-5V210h0a1.38,1.38,0,0,0,.75,1.12,3.25,3.25,0,0,0,3.51-.5,1.84,1.84,0,0,0,.7-1.44h0Z"/></g></mask><filter id="luminosity-noclip-51" x="214.79" y="192.41" width="4.97" height="19.03" filterUnits="userSpaceOnUse" color-interpolation-filters="sRGB"><feFlood flood-color="#fff" result="bg"/><feBlend in="SourceGraphic" in2="bg"/></filter><linearGradient id="linear-gradient-138" x1="217.28" y1="192.41" x2="217.28" y2="211.44" xlink:href="#linear-gradient-49"/><mask id="mask-65" x="202.04" y="201.1" width="4.97" height="19.03" maskUnits="userSpaceOnUse"><g class="cls-36"><path class="cls-37" d="M207,201.1h-5v17.59h0a1.38,1.38,0,0,0,.75,1.12,3.23,3.23,0,0,0,3.51-.5,1.8,1.8,0,0,0,.69-1.44h0Z"/></g></mask><filter id="luminosity-noclip-52" x="202.04" y="201.1" width="4.97" height="19.03" filterUnits="userSpaceOnUse" color-interpolation-filters="sRGB"><feFlood flood-color="#fff" result="bg"/><feBlend in="SourceGraphic" in2="bg"/></filter><linearGradient id="linear-gradient-139" x1="204.53" y1="201.1" x2="204.53" y2="220.13" xlink:href="#linear-gradient-49"/><mask id="mask-67" x="193.92" y="210.9" width="4.97" height="19.03" maskUnits="userSpaceOnUse"><g class="cls-39"><path class="cls-40" d="M198.89,210.9h-5v17.6h0a1.36,1.36,0,0,0,.74,1.12,3.27,3.27,0,0,0,3.52-.5,1.83,1.83,0,0,0,.69-1.44h0Z"/></g></mask><filter id="luminosity-noclip-53" x="193.92" y="210.9" width="4.97" height="19.03" filterUnits="userSpaceOnUse" color-interpolation-filters="sRGB"><feFlood flood-color="#fff" result="bg"/><feBlend in="SourceGraphic" in2="bg"/></filter><linearGradient id="linear-gradient-140" x1="196.4" y1="210.9" x2="196.4" y2="229.93" xlink:href="#linear-gradient-49"/><mask id="mask-69" x="235.92" y="204.6" width="4.97" height="19.03" maskUnits="userSpaceOnUse"><g class="cls-43"><path class="cls-44" d="M240.9,204.6h-5v17.59h0a1.43,1.43,0,0,0,.75,1.13,3.27,3.27,0,0,0,3.52-.51,1.8,1.8,0,0,0,.69-1.43h0Z"/></g></mask><filter id="luminosity-noclip-54" x="235.92" y="204.6" width="4.97" height="19.03" filterUnits="userSpaceOnUse" color-interpolation-filters="sRGB"><feFlood flood-color="#fff" result="bg"/><feBlend in="SourceGraphic" in2="bg"/></filter><linearGradient id="linear-gradient-141" x1="238.41" y1="204.6" x2="238.41" y2="223.63" xlink:href="#linear-gradient-49"/><mask id="mask-71" x="226.75" y="215.34" width="4.97" height="19.03" maskUnits="userSpaceOnUse"><g class="cls-46"><path class="cls-47" d="M231.72,215.34h-5v17.6h0a1.38,1.38,0,0,0,.74,1.13,3.27,3.27,0,0,0,3.52-.5,1.83,1.83,0,0,0,.69-1.44h0Z"/></g></mask><filter id="luminosity-noclip-55" x="226.75" y="215.34" width="4.97" height="19.03" filterUnits="userSpaceOnUse" color-interpolation-filters="sRGB"><feFlood flood-color="#fff" result="bg"/><feBlend in="SourceGraphic" in2="bg"/></filter><linearGradient id="linear-gradient-142" x1="229.23" y1="215.34" x2="229.23" y2="234.37" xlink:href="#linear-gradient-49"/><mask id="mask-73" x="215.05" y="223.09" width="4.97" height="19.03" maskUnits="userSpaceOnUse"><g class="cls-49"><path class="cls-50" d="M220,223.09h-5v17.59h0a1.38,1.38,0,0,0,.75,1.12,3.23,3.23,0,0,0,3.51-.5,1.77,1.77,0,0,0,.69-1.43h0Z"/></g></mask><filter id="luminosity-noclip-56" x="215.05" y="223.09" width="4.97" height="19.03" filterUnits="userSpaceOnUse" color-interpolation-filters="sRGB"><feFlood flood-color="#fff" result="bg"/><feBlend in="SourceGraphic" in2="bg"/></filter><linearGradient id="linear-gradient-143" x1="217.54" y1="223.09" x2="217.54" y2="242.12" xlink:href="#linear-gradient-49"/></defs><title>home_1</title><g class="cls-53"><g id="Layer_2" data-name="Layer 2"><g id="background"><rect class="cls-54" y="0.03" width="366.54" height="265.3" rx="5.73"/><rect class="cls-55" y="0.03" width="366.54" height="265.3" rx="5.73"/></g><g id="cryptocurrency"><g id="ground"><g class="cls-56"><path class="cls-57" d="M366.54,5.76C366.33.29,360.8,0,360.8,0L295.43,0,20.69,158.81c-6.51,3.76-7.87,9.22-3.69,13a11,11,0,0,0,1.91,1.37l159.63,92.17,155.09,0,32.91-19C366.66,246.23,366.54,5.76,366.54,5.76Z"/></g><path class="cls-58" d="M178.54,265.33,18.91,173.2c-.74-.43-4.29-6.16-4.29-6.16s0,8.35,0,10.14c0,2.3,1.44,4.49,4.29,6.13l142,82Z"/><path class="cls-59" d="M178.54,265.33,18.91,173.2c-.74-.43-4.29-6.16-4.29-6.16s0,8.35,0,10.14c0,2.3,1.44,4.49,4.29,6.13l142,82Z"/></g><g id="vr_helmet" data-name="vr helmet"><g class="cls-60"><path class="cls-61" d="M160.53,150.67v-.74l0,.18c-.09-5.66-4.46-11.65-13.11-16.65-17.51-10.13-45.9-12.41-63.41-5.09-8.71,3.63-13.08,9-13.12,14.64,0-.17,0-.28,0-.28v.72s0,4.62,0,5.05a11,11,0,0,0,.24,2.27c-2.36.27-8.34,1-11.56,1.74a9,9,0,0,0-1.41.37l0,0L58,153l-.31.15-.09.06-.28.19-.07.06-.24.24,0,.05,0,0a2.62,2.62,0,0,0-.17.28s0,0,0,0l-.06.13s0,.07,0,.09,0,.2-.07.3,0,.07,0,.11a1,1,0,0,0,0,.15h0v.91h0v5.28h0v16.34h0v1.43a7.38,7.38,0,0,0,.07.81,2.93,2.93,0,0,0,0,.29,6.41,6.41,0,0,0,.17.73c0,.08,0,.16.07.24a7.38,7.38,0,0,0,.29.73c0,.1.09.21.14.31a7.88,7.88,0,0,0,.4.76,2.9,2.9,0,0,0,.19.29c.13.21.26.41.41.62l.24.33.08.11h0a18.89,18.89,0,0,0,2.58,2.67,186.39,186.39,0,0,0,16.6,10.49C89,203.69,96,206.78,96,206.78a36.64,36.64,0,0,0,7.17,2.16h.07c.5.1,1,.18,1.51.25l.45.07c.51.07,1,.11,1.52.16l.46,0c.5,0,1,.06,1.51.07l.45,0c.65,0,1.29,0,1.93,0a4,4,0,0,0,.44-.05l.13,0,.4-.08.13,0a11.35,11.35,0,0,0,1.24-.38l.06,0,.68-.27h0a22.08,22.08,0,0,0,4.2-2.35c2.85-1.83,11.92-7.69,13.32-8.56,2.86-1.8,5.93-5,5.93-9.38,0-.15,0-.3,0-.45,0-5.73-7.43-5.51-10-5.13l-12.24,1.8-1.13.17-.36.05h0c-1.12.18-2.08.35-2.76.39A35.14,35.14,0,0,1,96,182.46s-7-3.1-18.18-9.58q-2.32-1.33-4.3-2.53l.47.28.35.2.5.3.5.3.44.25.63.37.37.22,1,.6C89,179.35,96,182.45,96,182.45a35.14,35.14,0,0,0,15.07,2.74l.33,0h.1l.27,0,.12,0,.38,0h0l.45-.07.13,0,.4-.07.23,0,.33-.06h0l.36-.06.35-.05.78-.11h0l12.24-1.8.3,0,.1,0,.25,0h.12l.27,0h.11l.4,0h1.51l.48,0h.14l.35,0,.17,0,.35,0,.15,0,.49.08h0l.43.1.15,0a3.37,3.37,0,0,1,.34.09l.15.05.37.12.1,0,.44.19.11.05.31.17-3.58-2.07c-1.42-.82-6-.53-6-.53A16.88,16.88,0,0,1,114.85,179l-10.66-6.19.68.13c14.75,3,31,2.34,42.53-2.47,8.8-3.68,13.17-9.08,13.12-14.84v-.71h0v-.06c0-1.42,0-4.19,0-4.19Zm-63.66-9.24c7.34,5.85,13.83,16.16,21.34,22.54C110.69,157.63,104.23,147.3,96.87,141.43Z"/></g><path class="cls-62" d="M160.53,134.76a44.37,44.37,0,0,1-.5,6.67c-3.22,21.6-89.16,18.09-89.16-6.67a44.83,44.83,0,1,1,89.66,0Z"/><path class="cls-63" d="M56.52,140h0v0Z"/><path class="cls-63" d="M56.52,155.48v0Z"/><path class="cls-64" d="M126.21,160.85h0v0Z"/><path class="cls-65" d="M137.6,172.18c0-5.74-7.43-5.51-10-5.14l-13.73,2,3.7,22.06S130,183,131.69,182c2.86-1.79,5.93-5,5.93-9.37C137.62,172.47,137.6,172.32,137.6,172.18Z"/><path class="cls-66" d="M137.6,172.18c0-5.74-7.43-5.51-10-5.14l-13.73,2,3.7,22.06S130,183,131.69,182c2.86-1.79,5.93-5,5.93-9.37C137.62,172.47,137.6,172.32,137.6,172.18Z"/><path class="cls-65" d="M82.15,140.05c0-5.73-7.43-5.51-10.05-5.13l-12.55,1.85L62.06,159s12.52-8.08,14.18-9.12c2.86-1.79,5.92-5,5.92-9.37C82.16,140.35,82.15,140.2,82.15,140.05Z"/><path class="cls-67" d="M73.19,147.05c0-.28,0-.56,0-.86,0-9.52-16.69-11.85-16.69-7.09a5.65,5.65,0,0,0,0,.71C57.48,135.63,72.91,138,73.19,147.05Z"/><path class="cls-63" d="M73.19,147.05c-.28-9-15.71-11.42-16.62-7.24a1.75,1.75,0,0,0,0,.4c0,2.67,1.74,5.47,4.69,8,0,0,8,5.18,8.67,5.57l1.24-.61a9.72,9.72,0,0,0,2.09-5.86A2,2,0,0,0,73.19,147.05Z"/><path class="cls-68" d="M126.19,176.49c-.5-9.58-11.59-5.85-15.13-5.66A35.14,35.14,0,0,1,96,168.09s-7-3.09-18.18-9.58c-3.09-1.78-5.72-3.37-7.93-4.74C64,150.13,61.21,148,61.21,148c-3-2.53-4.72-5.32-4.69-8h0v23c0,2.65,1.76,5.43,4.69,7.93a184.56,184.56,0,0,0,16.6,10.5C89,187.94,96,191,96,191a35.3,35.3,0,0,0,15.07,2.74c3.62-.2,15.16-6.17,15.16-16.61C126.22,176.94,126.2,176.72,126.19,176.49Z"/><path class="cls-67" d="M78.23,150.65v0C78.46,150.78,78.43,150.76,78.23,150.65Z"/><path class="cls-67" d="M135.27,168Z"/><path class="cls-67" d="M135.26,168l-.06,0h0l.08.05Z"/><path class="cls-67" d="M126.21,160.84Z"/><path class="cls-67" d="M56.52,155.46V140h0Z"/><path class="cls-67" d="M56.52,161.69v0Z"/><path class="cls-69" d="M125.58,165.38a16.88,16.88,0,0,1-10.73-2.13L74.88,140a2,2,0,0,1,.73-3.68s.27,0,2.17-.29c2.9-.41,4.36,3.61,4.36,3.61a4.38,4.38,0,0,0-2.47-3.87l-.24-.12-.11-.06-.44-.19-.1,0-.37-.13-.15-.05-.34-.09-.15,0c-.14,0-.28-.07-.43-.09l-.06,0-.49-.08-.14,0-.35,0h-.17l-.35,0h-.14l-.48,0H73.65l-.4,0h-.11l-.28,0h-.12l-.24,0h-.1l-.3,0s-8.49.94-12.55,1.86a8,8,0,0,0-1.41.37,2.83,2.83,0,0,0-1.25.86,1.47,1.47,0,0,0-.25.45,1.68,1.68,0,0,0-.11.5,7.16,7.16,0,0,0,.09,1.29,12.18,12.18,0,0,0,1.65,4L62,148l12,6.85.35.21.5.29.5.3.44.26.63.37.37.21,1,.61C89,163.61,96,166.71,96,166.71a35.29,35.29,0,0,0,15.07,2.73l.33,0h.1l.27,0h.12l.38-.06h0l.45-.07.13,0,.4-.06.23,0,.33-.05h0l.36-.05.35-.05.78-.12h0l12.24-1.8.3,0h.1l.25,0h.12l.27,0h.11l.4,0h1.51l.48,0,.14,0c.12,0,.23,0,.35,0h.17l.35,0,.15,0,.48.08.06,0,.43.09.15,0,.34.09.15.05.37.13.1,0c.15.05.3.12.44.18l.11.06.31.16-3.58-2.07C130.19,165.08,125.58,165.38,125.58,165.38Z"/><path class="cls-70" d="M61.21,148s2.83,2.11,8.67,5.75c2.21,1.37,4.84,3,7.93,4.74C89,165,96,168.09,96,168.09a35.14,35.14,0,0,0,15.07,2.74c3.54-.19,14.63-3.92,15.13,5.66,0-.23,0-.46,0-.69,0-10.45-11.54-6.54-15.16-6.35A35.14,35.14,0,0,1,96,166.72s-7-3.1-18.18-9.58c-3.09-1.78-5.72-3.38-7.93-4.75-5.84-3.64-8.67-5.75-8.67-5.75-2.85-2.43-4.59-5.11-4.68-7.69,0,0,0,.15,0,.32V140h0C56.49,142.7,58.26,145.49,61.21,148Z"/><path class="cls-71" d="M82.94,153.29c-6.12-3.55-7.08-5.31-5.74-5.48h0a7.13,7.13,0,0,1,3.72.42l7.44,4.29,7.45,4.3c.71.41.19.89-1.15,1.06h0C93.31,158.06,89.06,156.85,82.94,153.29Z"/><path class="cls-72" d="M93.67,123.48c11.6,6.71,20.64,26.56,33.65,29.87a40.38,40.38,0,0,0,6.47-.61c-16.24,2-26-22.51-39.25-30.14-9.33-5.4-18.48-1.7-20.68-1.2l-1.08.25s-.21.33-.3.5.16.17.34.15C74.71,122.28,84.08,117.94,93.67,123.48Z"/><path class="cls-73" d="M127.18,153.23c-13-3.31-21.91-23-33.51-29.75-9.59-5.54-19-1.2-20.85-1.18-.2,0-.31,0-.34-.15C68.33,129.31,72.17,138,84,144.81c13.2,7.63,32.58,10.81,48.82,8.78A15.07,15.07,0,0,1,127.18,153.23Z"/><path class="cls-67" d="M147.4,149.18c-11.54,4.82-27.79,5.47-42.54,2.47C97.21,150.09,90,145.2,84,141.74s-9.93-5-11.82-9a10.42,10.42,0,0,1-1-3,19.88,19.88,0,0,1-.27-2.7s0,4.63,0,5a12.6,12.6,0,0,0,1.33,5.57C74.1,141.55,78,149,84,152.42s13.23,2.48,20.88,4c14.75,3,31,2.35,42.53-2.47,8.8-3.67,13.17-9.08,13.12-14.83,0-.4,0-5,0-5l-.27,2.65C159.2,141.64,154.92,146,147.4,149.18Z"/><path class="cls-74" d="M147.4,149.9c-11.54,4.82-27.79,5.47-42.54,2.47C97.21,150.81,90,145.92,84,142.46s-9.93-5-11.82-9a12.58,12.58,0,0,1-1-3,15.89,15.89,0,0,1-.27-2.7s0,4.63,0,5a12.57,12.57,0,0,0,1.33,5.57c1.9,4,5.83,11.38,11.79,14.82s13.23,2.48,20.88,4c14.75,3,31,2.35,42.53-2.47,8.8-3.67,13.17-9.08,13.12-14.83,0-.4,0-5,0-5l-.27,2.66C159.2,142.36,154.92,146.76,147.4,149.9Z"/><path class="cls-75" d="M56.52,145.34v0h0v0Z"/><path class="cls-76" d="M111.06,176.11c.7,0,1.69-.22,2.84-.4a3.16,3.16,0,0,0,2.66-3.12v-2.52c-2.23.22-4.3.69-5.5.76a33.56,33.56,0,0,1-7.9-.58v2.85a2.83,2.83,0,0,0,2.5,2.81A31.63,31.63,0,0,0,111.06,176.11Z"/><path class="cls-76" d="M58.63,145.36A8.68,8.68,0,0,1,56.52,140h0v5.31a7,7,0,0,0,.4,2.27.88.88,0,0,0,1.71-.31Z"/><path class="cls-77" d="M56.52,157.8v0Z"/><path class="cls-76" d="M103.16,190.86v2.34a33.56,33.56,0,0,0,7.9.58,14.41,14.41,0,0,0,5.5-2.06v-2.4A1.46,1.46,0,0,0,114.5,188a10.73,10.73,0,0,1-3.44,1,31.5,31.5,0,0,1-5.56-.21A2.08,2.08,0,0,0,103.16,190.86Z"/><path class="cls-77" d="M56.52,145.36v0Z"/><path class="cls-76" d="M56.52,160.75v2.34a8.72,8.72,0,0,0,2.11,5.21V166a8.48,8.48,0,0,0-1.09-4.12,7.6,7.6,0,0,1-1-3.56Z"/><path class="cls-75" d="M56.52,155.48v0Z"/><path class="cls-76" d="M82.21,175.32,73,170a2.63,2.63,0,0,1-1.3-2.26v-1.8a1.25,1.25,0,0,1,1.88-1.08l9.14,5.28a2.78,2.78,0,0,1,1.39,2.41v1.72A1.23,1.23,0,0,1,82.21,175.32Z"/><g class="cls-78"><g class="cls-78"><rect class="cls-79" x="103.16" y="146.84" width="13.4" height="24.32"/></g></g><g class="cls-80"><g class="cls-80"><rect class="cls-81" x="103.16" y="171.16" width="13.4" height="44.91"/></g></g><g class="cls-82"><g class="cls-82"><polygon class="cls-83" points="84.26 170.11 71.65 162.81 71.65 138.5 84.26 145.79 84.26 170.11"/></g></g><g class="cls-84"><g class="cls-84"><polygon class="cls-85" points="84.26 170.11 71.65 162.81 71.65 207.72 84.26 215.02 84.26 170.11"/></g></g><g class="cls-86"><g class="cls-86"><rect class="cls-87" x="56.52" y="123.66" width="2.14" height="24.32"/></g></g><g class="cls-88"><g class="cls-88"><rect class="cls-89" x="56.52" y="147.98" width="2.14" height="44.91"/></g></g></g><g id="screen"><path class="cls-90" d="M294.45,180.77a54.91,54.91,0,0,0-17.83-17c-11.58-6.69-29.5-10.3-29.5-10.3-1.48-.27-2.5-1-2.5-1.67,0-.32,0-3.72,0-3.72s4.32.7,8.8,1.76c0,0,18.4,3.89,29.49,10.29a75.66,75.66,0,0,1,18.37,15.15s0,3.21,0,3.72c0,1.48-1.26,2.22-2.36,2.85A3.9,3.9,0,0,1,294.45,180.77Z"/><path class="cls-91" d="M300.74,173.42a59,59,0,0,0-15.09-15.32V129.34l-5.1-3v28.72c-11.16-5.64-27.13-9-27.13-9-4.48-1.06-6.61.18-8.12,1s-.33,2.19,1.82,2.58c0,0,17.92,3.61,29.5,10.3a54.91,54.91,0,0,1,17.83,17,3.9,3.9,0,0,0,4.47,1C300.4,177.25,302.18,176.22,300.74,173.42Z"/><polygon class="cls-92" points="341.9 170.94 223.79 102.75 223.79 24.68 341.9 92.87 341.9 170.94"/><polygon class="cls-93" points="222.18 103.68 222.18 21.89 343.51 91.94 343.51 173.73 222.18 103.68"/><polygon class="cls-94" points="341.9 166.05 223.79 97.86 223.79 24.68 341.9 92.87 341.9 166.05"/><g class="cls-95"><g class="cls-95"><polygon class="cls-96" points="341.9 166.05 223.79 97.86 223.79 125.02 341.9 193.2 341.9 166.05"/></g></g><g class="cls-97"><g class="cls-97"><polygon class="cls-98" points="341.9 92.93 223.79 24.74 223.79 1.83 341.9 70.02 341.9 92.93"/></g></g><polygon class="cls-99" points="346.6 171.97 343.51 173.73 343.51 91.94 346.6 90.18 346.6 171.97"/><polygon class="cls-100" points="225.27 20.13 222.18 21.89 343.51 91.94 346.6 90.18 225.27 20.13"/><path class="cls-101" d="M284.26,136.32c0,.9-.63,1.27-1.41.82a3.14,3.14,0,0,1-1.42-2.45c0-.9.64-1.27,1.42-.82A3.13,3.13,0,0,1,284.26,136.32Z"/><path class="cls-102" d="M320,156.75c0,.43-.3.6-.68.39a1.5,1.5,0,0,1-.67-1.17c0-.43.3-.6.67-.39A1.49,1.49,0,0,1,320,156.75Z"/><path class="cls-103" d="M322.31,158.12c0,.43-.3.61-.67.39a1.47,1.47,0,0,1-.67-1.16c0-.43.3-.61.67-.39A1.47,1.47,0,0,1,322.31,158.12Z"/><path class="cls-104" d="M324.64,159.5c0,.43-.3.6-.67.39a1.5,1.5,0,0,1-.67-1.17c0-.43.3-.6.67-.39A1.5,1.5,0,0,1,324.64,159.5Z"/><path class="cls-105" d="M327,160.87c0,.43-.3.61-.68.39a1.47,1.47,0,0,1-.67-1.16c0-.43.3-.61.67-.39A1.45,1.45,0,0,1,327,160.87Z"/><path class="cls-106" d="M329.31,162.25c0,.43-.3.6-.67.39a1.5,1.5,0,0,1-.67-1.17c0-.43.3-.6.67-.39A1.5,1.5,0,0,1,329.31,162.25Z"/><path class="cls-107" d="M331.64,163.62c0,.43-.3.61-.67.39a1.47,1.47,0,0,1-.67-1.16c0-.43.3-.61.67-.39A1.47,1.47,0,0,1,331.64,163.62Z"/></g><g id="joystick_3"><path class="cls-108" d="M329.89,241h0c0-3.09-2.33-6.56-7.11-10.52-1.53-1.3-5.61-5.1-5.61-5.1-2.1-1.42-4.53-2.94-7.34-4.56s-5.45-3-7.91-4.24a6.88,6.88,0,0,0-.5.63c-21.59-10.47-30-5.82-33.09-4a.93.93,0,0,0-.36.35l-.07,0a1.54,1.54,0,0,0-.89,1.36h0s0,2.2,0,2.53c.08,1.66,2.84,3,10.79,6.52l2.64,1.18a39.78,39.78,0,0,1,7.43,4.77,67.35,67.35,0,0,0,6.76,4.61,85.37,85.37,0,0,0,8,3.9,47.31,47.31,0,0,1,8.27,4.3l2,1.51c4.92,3.68,8.18,6.11,10.57,6.11A2.88,2.88,0,0,0,325,250c1.56-.89,4.8-2.76,4.93-6.31C329.91,243,329.89,241,329.89,241Z"/><path class="cls-71" d="M323.47,237.11c-2.39,0-5.65-2.43-10.57-6.11l-2-1.51a47.33,47.33,0,0,0-8.27-4.29,85.37,85.37,0,0,1-8-3.9,67.36,67.36,0,0,1-6.76-4.62,40.3,40.3,0,0,0-7.43-4.77l-2.64-1.18c-8-3.55-10.71-4.86-10.79-6.52,0-.33,0-2.53,0-2.53a46.79,46.79,0,0,1,11.34-1.61c6.51,0,14.57,2.33,24,6.94l1,.51-.78.85a3.47,3.47,0,0,0-1.05,2.91,5.17,5.17,0,0,0,2.83,3.41,15.29,15.29,0,0,0,7.54,1.79,17.37,17.37,0,0,0,5-.72l.4-.12.34.23a58.65,58.65,0,0,1,12.25,11.89s0,2,0,2.65c-.13,3.55-3.37,5.42-4.93,6.32a3,3,0,0,1-1.49.38Z"/><path class="cls-109" d="M323.47,234.66c-2.39,0-5.65-2.43-10.57-6.11l-2-1.51a47.31,47.31,0,0,0-8.27-4.3,85.37,85.37,0,0,1-8-3.9,67.35,67.35,0,0,1-6.76-4.61,39.78,39.78,0,0,0-7.43-4.77l-2.64-1.18c-8-3.55-10.71-4.86-10.79-6.52a1.52,1.52,0,0,1,.89-1.43,19.28,19.28,0,0,1,10.45-2.71c6.51,0,14.57,2.33,24,6.94l1,.51-.78.85a3.47,3.47,0,0,0-1.05,2.91,5.22,5.22,0,0,0,2.83,3.41,15.4,15.4,0,0,0,7.54,1.79,17.37,17.37,0,0,0,5-.72l.4-.12.34.23c8.39,5.7,12.4,10.45,12.25,14.54-.13,3.55-3.37,5.42-4.93,6.31a2.88,2.88,0,0,1-1.49.39Z"/><path class="cls-69" d="M303.9,211.85c3.59,2.07,9,2.45,13.26,1.15v-.86s-4.82-2.25-7.34-3.71c-2.82-1.62-5.45-3-7.91-4.23C299.65,206.66,300.31,209.78,303.9,211.85Z"/><path class="cls-110" d="M317.16,213c-4.27,1.31-9.67.92-13.26-1.15s-4.25-5.19-2-7.65c-22-10.78-30.45-6.07-33.59-4.26-2.22,1.28,3.8,3.7,12.47,7.6,4.95,2.22,8.62,6.17,14.26,9.42s12.48,5.39,16.34,8.25c6.74,5,10.92,8.46,13.14,7.18C327.67,230.58,335.83,225.69,317.16,213Z"/><path class="cls-111" d="M303.9,211c3.59,2.07,9,2.45,13.26,1.15-2.1-1.42-4.53-2.94-7.34-4.57s-5.45-3-7.91-4.23C299.65,205.8,300.31,208.92,303.9,211Z"/><path class="cls-69" d="M302.65,219.39,298.46,217c-.39-.23-.34-.63.11-.89h0a1.69,1.69,0,0,1,1.53-.06l4.19,2.42c.4.23.35.62-.11.88h0A1.73,1.73,0,0,1,302.65,219.39Z"/><path class="cls-69" d="M294.8,214.85l-4.19-2.42c-.39-.23-.35-.62.11-.88h0a1.73,1.73,0,0,1,1.53-.07l4.19,2.42c.39.23.34.63-.11.89h0A1.69,1.69,0,0,1,294.8,214.85Z"/><path class="cls-69" d="M312.15,211.86l-3.48-2c-.32-.19-.28-.52.09-.73h0a1.4,1.4,0,0,1,1.27-.06l3.48,2c.33.19.29.52-.09.73h0A1.43,1.43,0,0,1,312.15,211.86Z"/><path class="cls-69" d="M305.63,208.09l-3.48-2c-.32-.18-.28-.51.09-.73h0a1.4,1.4,0,0,1,1.27,0l3.48,2c.33.18.29.51-.09.73h0A1.4,1.4,0,0,1,305.63,208.09Z"/><path class="cls-69" d="M288.83,204.3c-2.09,1.76-6.49,1.76-8.57,0a2.12,2.12,0,0,1,0-3.32c2.08-1.76,6.48-1.76,8.57,0A2.13,2.13,0,0,1,288.83,204.3Z"/><path class="cls-112" d="M302.65,218.61l-4.19-2.42c-.39-.23-.34-.62.11-.88h0a1.7,1.7,0,0,1,1.53-.07l4.19,2.42c.4.23.35.62-.11.89h0A1.69,1.69,0,0,1,302.65,218.61Z"/><path class="cls-113" d="M294.8,214.07l-4.19-2.42c-.39-.22-.35-.62.11-.88h0a1.69,1.69,0,0,1,1.53-.06l4.19,2.42c.39.22.34.62-.11.88h0A1.69,1.69,0,0,1,294.8,214.07Z"/><path class="cls-114" d="M312.15,211.08l-3.48-2c-.32-.19-.28-.51.09-.73h0a1.4,1.4,0,0,1,1.27-.05l3.48,2c.33.19.29.52-.09.74h0A1.43,1.43,0,0,1,312.15,211.08Z"/><path class="cls-115" d="M305.63,207.32l-3.48-2c-.32-.19-.28-.52.09-.74h0a1.43,1.43,0,0,1,1.27,0l3.48,2c.33.19.29.52-.09.73h0A1.43,1.43,0,0,1,305.63,207.32Z"/><path class="cls-116" d="M288.83,203.53c-2.09,1.75-6.49,1.75-8.57,0a2.13,2.13,0,0,1,0-3.33c2.08-1.75,6.48-1.75,8.57,0A2.14,2.14,0,0,1,288.83,203.53Z"/><path class="cls-69" d="M322.63,219.05a2.88,2.88,0,0,1-3.91,0,.78.78,0,0,1,0-.88,2.88,2.88,0,0,1,3.91,0A.82.82,0,0,1,322.63,219.05Z"/><path class="cls-69" d="M315.59,223.11a2.88,2.88,0,0,1-3.91,0,.81.81,0,0,1,0-.87,2.86,2.86,0,0,1,3.91,0A.77.77,0,0,1,315.59,223.11Z"/><path class="cls-69" d="M314.19,217.44c2.05.39,2.05,1.95,0,2.35a2.91,2.91,0,0,1-1.1,0c-2-.4-2-2,0-2.35A2.91,2.91,0,0,1,314.19,217.44Z"/><path class="cls-69" d="M321.22,221.5c2,.39,2,1.95,0,2.35a2.86,2.86,0,0,1-1.09,0c-2.06-.4-2.06-2,0-2.35A2.86,2.86,0,0,1,321.22,221.5Z"/><path class="cls-117" d="M322.15,218.74a3.26,3.26,0,0,1-2.95,0,.89.89,0,0,1,0-1.7,3.26,3.26,0,0,1,2.95,0A.9.9,0,0,1,322.15,218.74Z"/><path class="cls-118" d="M315.11,222.81a3.26,3.26,0,0,1-2.95,0,.91.91,0,0,1,0-1.71,3.26,3.26,0,0,1,2.95,0A.9.9,0,0,1,315.11,222.81Z"/><path class="cls-119" d="M315.11,217a.89.89,0,0,1,0,1.7,3.26,3.26,0,0,1-2.95,0,.9.9,0,0,1,0-1.7A3.26,3.26,0,0,1,315.11,217Z"/><path class="cls-120" d="M322.15,221.1a.91.91,0,0,1,0,1.71,3.26,3.26,0,0,1-2.95,0,.9.9,0,0,1,0-1.71A3.26,3.26,0,0,1,322.15,221.1Z"/><path class="cls-121" d="M320.1,218.37l.13-.22.13-.22h0L320,218l-.38.08-.36-.21,1.13-.18.31-.64.37.22-.14.22-.13.2h0l.33-.08.39-.08.36.21-1.1.17-.3.67Z"/><path class="cls-122" d="M312.65,218.14l.59-.34.39-.75.37.21-.2.29-.16.22h0l.39-.1.48-.11.37.21-1.31.21-.59.34Z"/><path class="cls-123" d="M313.79,221.23a3,3,0,0,1,.45.22c.2.11.3.19.34.29s0,.19-.11.26a.73.73,0,0,1-.54,0h0c.12.12.11.26-.07.37a.85.85,0,0,1-.45.09,1.62,1.62,0,0,1-.69-.25c-.16-.09-.27-.17-.33-.21Zm-.22.5.1.06a.48.48,0,0,0,.44.05c.11-.07.08-.15-.07-.23l-.14-.08Zm-.64.36.12.08a.51.51,0,0,0,.48,0c.15-.09.08-.19-.09-.29l-.11-.06Z"/><path class="cls-124" d="M320,222l-.47.15-.33-.19,1.86-.57.43.24-1,1.08-.35-.2.26-.27Zm.61.07.21-.23.2-.2h0l-.34.12-.39.13Z"/><g class="cls-125"><g class="cls-125"><path class="cls-126" d="M279.48,183.68v18.24h0A2.5,2.5,0,0,0,281,204a7.86,7.86,0,0,0,7.16,0,2.5,2.5,0,0,0,1.48-2.06h0V183.68Z"/></g></g></g><g id="joystick_2"><path class="cls-127" d="M176.08,204.08a16,16,0,0,0-14.47,0c-2.34,1.35-3.3,3.18-2.91,4.93l-30.84,17.81h0c-2.63,1.51-2.63,4,0,5.49a10.52,10.52,0,0,0,9.33.08h0l.14-.08h0l0,0,31.4-18.13a14.82,14.82,0,0,0,7.26-1.73C180.08,210.13,180.08,206.39,176.08,204.08Z"/><path class="cls-128" d="M175,194.2a12.63,12.63,0,0,1-11.42,0c-1.58-.91-4.72-4.61-4.72-7.82s21.33-4,21.33-.68S176.54,193.29,175,194.2Z"/><path class="cls-129" d="M177,183.87a17,17,0,0,0-15.41,0c-2.24,1.29-4,6.58-4,6.58L125.9,217.89v2.56a3.36,3.36,0,0,0,2,2.76,10.57,10.57,0,0,0,9.55,0L167.09,196a13.75,13.75,0,0,1,6.39-2.76,8,8,0,0,0,6.67-7.18A35.94,35.94,0,0,0,177,183.87Z"/><path class="cls-130" d="M177,181.25a17.07,17.07,0,0,0-15.41,0c-2.24,1.3-4,6.59-4,6.59l-29.65,27.24c-2.64,1.52-2.64,4,0,5.51a10.51,10.51,0,0,0,9.55,0h0l29.65-27.24s7.36-1.77,9.87-3.21C181.21,187.69,181.21,183.71,177,181.25Z"/><path class="cls-131" d="M176,188.16a14.85,14.85,0,0,1-13.46,0c-3.72-2.15-3.72-5.63,0-7.77a14.85,14.85,0,0,1,13.46,0C179.7,182.53,179.7,186,176,188.16Z"/><path class="cls-132" d="M174.46,187.28a11.5,11.5,0,0,1-10.41,0c-2.87-1.66-2.87-4.35,0-6a11.5,11.5,0,0,1,10.41,0C177.33,182.93,177.33,185.62,174.46,187.28Z"/><path class="cls-133" d="M174.46,186.38a11.57,11.57,0,0,1-10.41,0c-2.87-1.66-2.87-4.35,0-6a11.5,11.5,0,0,1,10.41,0C177.33,182,177.33,184.72,174.46,186.38Z"/><path class="cls-134" d="M153,200.82l3.93-3.61a3.62,3.62,0,0,0,2.64-.85,1.74,1.74,0,0,0-.32-3,3.66,3.66,0,0,0-4.05.44,1.78,1.78,0,0,0-.54,2.07l-3.93,3.61a3.59,3.59,0,0,0-2.64.85,1.75,1.75,0,0,0,.32,3,3.65,3.65,0,0,0,4-.45A1.75,1.75,0,0,0,153,200.82Z"/><path class="cls-135" d="M153,200.38l3.93-3.61a3.58,3.58,0,0,0,2.64-.85,1.74,1.74,0,0,0-.32-3,3.65,3.65,0,0,0-4.05.45,1.76,1.76,0,0,0-.54,2.06l-3.93,3.61a3.59,3.59,0,0,0-2.64.85,1.75,1.75,0,0,0,.32,3,3.65,3.65,0,0,0,4-.45A1.75,1.75,0,0,0,153,200.38Z"/><path class="cls-136" d="M159.78,189.57a1,1,0,0,0-.42-.43,1.38,1.38,0,0,0-.67-.19,1.76,1.76,0,0,0-1.26.4l0,0-.06.07s0,0,0,0l-.07.09h0a.8.8,0,0,0-.06.76.94.94,0,0,0,.41.43,1.41,1.41,0,0,0,.67.19,1.74,1.74,0,0,0,1.26-.4l0,0,.06-.07,0,0,.07-.09h0A.83.83,0,0,0,159.78,189.57Z"/><path class="cls-137" d="M162.6,191.21a1,1,0,0,0-.41-.44,1.53,1.53,0,0,0-.67-.19,1.74,1.74,0,0,0-1.27.41l0,0-.06.07,0,0-.07.09h0a.77.77,0,0,0-.07.76,1,1,0,0,0,.41.43,1.54,1.54,0,0,0,.68.2,1.76,1.76,0,0,0,1.26-.41l0,0,.07-.07,0,0,.07-.09h0A.78.78,0,0,0,162.6,191.21Z"/><path class="cls-138" d="M165.38,192.81a1,1,0,0,0-.41-.44,1.68,1.68,0,0,0-.67-.19,1.74,1.74,0,0,0-1.27.41l0,0-.07.06,0,0a.61.61,0,0,0-.07.1h0a.78.78,0,0,0-.06.75,1,1,0,0,0,.41.44,1.68,1.68,0,0,0,.67.19,1.74,1.74,0,0,0,1.27-.41l0,0,.07-.06,0,0a.61.61,0,0,0,.07-.1h0A.78.78,0,0,0,165.38,192.81Z"/><path class="cls-139" d="M159.73,189.22a.94.94,0,0,0-.41-.43,1.41,1.41,0,0,0-.67-.19,1.74,1.74,0,0,0-1.26.4l0,0-.06.07,0,0-.07.09h0a.76.76,0,0,0-.07.75,1.07,1.07,0,0,0,.41.44,1.57,1.57,0,0,0,.68.19,1.76,1.76,0,0,0,1.26-.4.08.08,0,0,1,0,0l.06-.07,0,0,.07-.09h0A.8.8,0,0,0,159.73,189.22Z"/><path class="cls-140" d="M162.56,190.86a1,1,0,0,0-.41-.44,1.57,1.57,0,0,0-.68-.19,1.76,1.76,0,0,0-1.26.4.08.08,0,0,1,0,0l-.06.07,0,0-.07.09h0a.8.8,0,0,0-.06.76.94.94,0,0,0,.41.43,1.41,1.41,0,0,0,.67.19,1.74,1.74,0,0,0,1.26-.4l0,0,.06-.07,0,0,.07-.09h0A.76.76,0,0,0,162.56,190.86Z"/><path class="cls-141" d="M165.34,192.46a1.07,1.07,0,0,0-.41-.44,1.76,1.76,0,0,0-1.94.22l0,0-.06.06,0,0a.61.61,0,0,0-.07.1h0a.78.78,0,0,0-.06.75.89.89,0,0,0,.41.43,1.54,1.54,0,0,0,.67.2,1.71,1.71,0,0,0,1.26-.41l0,0,.06-.06,0,0a.86.86,0,0,1,.07-.1h0A.75.75,0,0,0,165.34,192.46Z"/><path class="cls-142" d="M136.73,214.18a.56.56,0,0,0-.25-.26.8.8,0,0,0-.4-.11,1,1,0,0,0-.76.24l0,0,0,0,0,0,0,.06h0a.5.5,0,0,0,0,.46.62.62,0,0,0,.25.26.92.92,0,0,0,.4.11,1,1,0,0,0,.76-.24l0,0,0,0,0,0,0-.06h0A.48.48,0,0,0,136.73,214.18Z"/><g class="cls-143"><g class="cls-143"><path class="cls-144" d="M161.89,156.87v26.5h0a3.66,3.66,0,0,0,2.16,3,11.57,11.57,0,0,0,10.41,0,3.67,3.67,0,0,0,2.15-3h0v-26.5Z"/></g></g><g class="cls-145"><g class="cls-145"><path class="cls-146" d="M135.12,206.62v7.77h0a.4.4,0,0,0,.24.33,1.27,1.27,0,0,0,1.17,0,.4.4,0,0,0,.24-.33h0v-7.77Z"/></g></g></g><g id="joystick_1"><path class="cls-108" d="M251.17,182.3l-44.66-25.78c-2.66-1.54-7.31-1.34-10.38.43l-12,6.94c-3.07,1.77-3.41,4.46-.75,6l2.56,1.48L228,195.67c2.66,1.53,7.31,1.34,10.38-.43l12-7C253.49,186.52,253.83,183.84,251.17,182.3Z"/><path class="cls-147" d="M253,172.78l-4.35-1.32-39.55-22.84-2.55-1.47c-2.66-1.54-7.31-1.34-10.38.43l-14.56,7.59s0,1.58,0,2.76a3.07,3.07,0,0,0,1.79,2.58l2.56,1.48,39.55,22.83L228,186.3c2.66,1.53,7.31,1.34,10.38-.43l12-7c1.71-1,2.57-2.24,2.54-3.43C252.94,174.53,253,172.78,253,172.78Z"/><polygon class="cls-69" points="225.47 182.08 185.92 159.25 209.06 145.88 248.61 168.72 225.47 182.08"/><path class="cls-148" d="M223.81,177.22l-29.44-17a.22.22,0,0,1,0-.38l16.22-9.37a.38.38,0,0,1,.36,0l29.67,17.14a.13.13,0,0,1,0,.23l-16.24,9.38A.58.58,0,0,1,223.81,177.22Z"/><path class="cls-71" d="M225.28,180.62a1.86,1.86,0,0,1-.87-.2l-35.48-20.49a.66.66,0,0,1-.38-.57.87.87,0,0,1,.51-.72l19.22-11.09a2.18,2.18,0,0,1,2-.08L245.74,168a.68.68,0,0,1,.38.57.86.86,0,0,1-.52.71l-19.21,11.1A2.34,2.34,0,0,1,225.28,180.62Zm-.74-.42a1.91,1.91,0,0,0,1.72-.08L245.48,169c.25-.15.39-.33.39-.5a.42.42,0,0,0-.26-.35l-35.48-20.49a1.9,1.9,0,0,0-1.73.08l-19.21,11.09a.65.65,0,0,0-.39.5.45.45,0,0,0,.25.35Z"/><path class="cls-149" d="M183.36,157.77l2.56,1.48,23.14-13.37-2.55-1.47c-2.66-1.54-7.31-1.34-10.38.43l-12,6.94C181,153.56,180.7,156.24,183.36,157.77Z"/><path class="cls-150" d="M228,183.56l-2.55-1.48,23.14-13.36,2.56,1.47c2.66,1.54,2.32,4.22-.75,6l-12,6.95C235.33,184.9,230.68,185.09,228,183.56Z"/><path class="cls-151" d="M199.59,149.3a3.88,3.88,0,0,1-1.94-.48,1.52,1.52,0,0,1,0-2.82,4.24,4.24,0,0,1,3.89,0,1.52,1.52,0,0,1,0,2.82h0A3.94,3.94,0,0,1,199.59,149.3Zm0-2.77a2.89,2.89,0,0,0-1.44.34c-.29.16-.46.36-.46.54s.17.38.46.55a3.26,3.26,0,0,0,2.89,0h0c.28-.17.45-.37.45-.55s-.17-.38-.45-.54A2.93,2.93,0,0,0,199.59,146.53Z"/><path class="cls-152" d="M240.38,179.61a4,4,0,0,1-1.94-.47,1.53,1.53,0,0,1,0-2.83,4.24,4.24,0,0,1,3.89,0,1.53,1.53,0,0,1,0,2.83h0A4,4,0,0,1,240.38,179.61Zm0-2.77a2.92,2.92,0,0,0-1.44.34c-.29.17-.45.36-.45.54s.16.38.45.55a3.26,3.26,0,0,0,2.89,0h0c.29-.17.45-.36.45-.55s-.16-.37-.45-.54A2.93,2.93,0,0,0,240.38,176.84Z"/><ellipse class="cls-153" cx="195.01" cy="150.05" rx="1.02" ry="0.59"/><path class="cls-154" d="M192.29,152.46a1.61,1.61,0,0,1-1.45,0,.44.44,0,0,1,0-.83,1.61,1.61,0,0,1,1.45,0A.44.44,0,0,1,192.29,152.46Z"/><path class="cls-155" d="M234.89,180.06a1.59,1.59,0,0,1-1.44,0c-.4-.23-.4-.6,0-.84a1.59,1.59,0,0,1,1.44,0C235.29,179.46,235.29,179.83,234.89,180.06Z"/><path class="cls-156" d="M192.29,149.64a.44.44,0,0,1,0,.83,1.61,1.61,0,0,1-1.45,0,.44.44,0,0,1,0-.83A1.61,1.61,0,0,1,192.29,149.64Z"/><path class="cls-157" d="M195.74,151.63a.44.44,0,0,1,0,.83,1.61,1.61,0,0,1-1.45,0,.44.44,0,0,1,0-.83A1.61,1.61,0,0,1,195.74,151.63Z"/><polygon class="cls-158" points="190.33 155.17 188.88 154.33 190.33 153.5 191.78 154.33 190.33 155.17"/><path class="cls-71" d="M193.53,161.84l-1.45-.84a.46.46,0,0,0-.41,0l-.3.17,1.83,1.06.3-.17C193.62,162,193.63,161.9,193.53,161.84Z"/><path class="cls-71" d="M221,177.69l1.45.83c.1.06.09.17,0,.24l-.3.17-1.83-1.05.29-.18A.48.48,0,0,1,221,177.69Z"/><polygon class="cls-159" points="206.05 147.05 204.84 146.34 205.23 146.11 206.45 146.82 206.05 147.05"/><polygon class="cls-160" points="248.37 170.54 247.97 170.31 247.56 170.55 247.15 170.31 246.75 170.54 247.17 170.78 246.75 171.02 247.15 171.25 247.56 171.01 247.97 171.25 248.37 171.02 247.96 170.78 248.37 170.54"/><path class="cls-161" d="M249.21,173.46a1.61,1.61,0,0,1-1.45,0,.44.44,0,0,1,0-.83,1.61,1.61,0,0,1,1.45,0A.44.44,0,0,1,249.21,173.46Z"/><path class="cls-162" d="M245.76,175.46a1.59,1.59,0,0,1-1.44,0c-.4-.24-.4-.61,0-.84a1.59,1.59,0,0,1,1.44,0C246.16,174.85,246.16,175.22,245.76,175.46Z"/><path class="cls-163" d="M245.76,172.63a.44.44,0,0,1,0,.83,1.59,1.59,0,0,1-1.44,0,.44.44,0,0,1,0-.83A1.59,1.59,0,0,1,245.76,172.63Z"/><ellipse class="cls-164" cx="248.49" cy="175.04" rx="1.02" ry="0.59"/><path class="cls-165" d="M248.21,173.28l.06-.11.06-.1h0l-.18.05-.18,0-.18-.1.55-.09.15-.31.19.11-.07.1-.06.1h0l.16,0,.19,0,.18.11-.54.08-.15.33Z"/><path class="cls-166" d="M244.56,173.17l.28-.17.2-.37.18.11-.1.14L245,173h0l.19-.05.24-.06.18.11-.64.1-.29.17Z"/><path class="cls-167" d="M245.11,174.68l.22.11a.43.43,0,0,1,.17.14s0,.09-.05.13a.34.34,0,0,1-.27,0h0c.06.06.06.13,0,.18a.34.34,0,0,1-.22,0,.73.73,0,0,1-.34-.12l-.16-.1Zm-.11.25.06,0a.23.23,0,0,0,.21,0s0-.07,0-.11l-.07,0Zm-.31.18.06,0a.26.26,0,0,0,.24,0c.07,0,0-.09-.05-.14l-.05,0Z"/><path class="cls-168" d="M248.16,175l-.23.08-.16-.1.91-.28.21.12-.48.53-.17-.1.12-.13Zm.3,0,.1-.12.1-.09h0a.85.85,0,0,1-.17.06l-.19.07Z"/><path class="cls-169" d="M201.29,148.39a3.75,3.75,0,0,1-3.39,0,1,1,0,0,1,0-2,3.75,3.75,0,0,1,3.39,0A1,1,0,0,1,201.29,148.39Z"/><path class="cls-170" d="M242.08,178.7a3.75,3.75,0,0,1-3.39,0,1,1,0,0,1,0-1.95,3.75,3.75,0,0,1,3.39,0A1,1,0,0,1,242.08,178.7Z"/><g class="cls-171"><g class="cls-171"><path class="cls-172" d="M194.26,107.17V160a.2.2,0,0,0,.11.19l29.44,17a.58.58,0,0,0,.57,0l16.24-9.38s0-.05,0-.09h0V107.17Z"/></g></g></g><g id="rudder"><path class="cls-127" d="M267.05,241.61c.51-.87-.19-2.58-2.05-3.65s-4.24-1-4.71-.25c0,0-.16.25-.47.68l-.28.38c0-.67-.68-1.73-3.33-3.26l-31.13-18a14.31,14.31,0,0,0-4.39-1.78l1.13-.26c1.22-.27,1.43-1.64-.43-2.72a10.91,10.91,0,0,0-6.33-1.18s-13,2.77-21.92,7.91a43.48,43.48,0,0,0-13.71,12.65c-.65.93-.12,2.9,1.75,4s4.52.63,5-.07l.16-.24a71.1,71.1,0,0,0,7.05,4.74c4.45,2.57,11.29,3.29,14.26,5,3.19,1.85,4.19,5.65,8.66,8.23a90.82,90.82,0,0,0,8.87,4.36l-.53.12c-1.22.28-2,1.81-.12,2.89a11.77,11.77,0,0,0,6.88,1s13-2.77,21.92-7.91A43.44,43.44,0,0,0,267.05,241.61Zm-59.8-21.67c3.1-1.22,6.17-2.2,8.69-2.93h0l1.74-.48h0c1.22-.33,8.78,4.15,1.15,8.55S205,226.59,205,226.59c.82-.47,1.22-1.07,1.17-1.59a1.07,1.07,0,0,0-.6-.81,5.65,5.65,0,0,1-.51-.33s0,0,0,0a3.63,3.63,0,0,1-.35-.3h0C203.17,222,205.53,220.62,207.25,219.94ZM191.6,237.77c-2.63-.25-4.11-2.41-4.1-3.51a45.25,45.25,0,0,1,6-6.25c1.34-1.16,4.31-2.84,7.34-1.09h0s7.41,4.08,1.53,7.68C198.64,236.87,194.68,238.07,191.6,237.77Zm47,16.3a102.66,102.66,0,0,1-10.84,3.45c-1.9,0-5.64-.85-6.07-2.37-.51-1.77,1.56-4.06,5.49-6.2,6.21-3.39,13.26.85,13.31.88h0C243.53,251.58,240.62,253.3,238.62,254.07Zm6.61-7a4.69,4.69,0,0,0-4.15.33s-5-3.61,2.63-8c7.3-4.22,14.7-.4,14.83.55l.12-.07a44.58,44.58,0,0,1-6.07,6.22C251.25,247.25,248.3,248.88,245.23,247.1Z"/><path class="cls-66" d="M256.82,231.76a1.51,1.51,0,0,0,0-.32c0-1,0-2.87,0-2.87s-6.5-1.44-6.75-.68c0,0-.08.27-.24.74a35.87,35.87,0,0,1-4.46,8.42,4.4,4.4,0,0,1-6.12,1.31c-1-.56-4.2-.51-4.2-.51s0,1.88,0,2.32a1.39,1.39,0,0,0,.76,1.25c3,1.73.89,3.65-.66,4.53a66,66,0,0,1-10.11,4.63c-.6.22-1.74-1.36-1.74-1.36v2.86a2.26,2.26,0,0,0,1.34,1.89,9.17,9.17,0,0,0,6.16.81s10.58-3.4,17.07-9.16A33.5,33.5,0,0,0,256.82,231.76Z"/><path class="cls-66" d="M205.19,202a8.73,8.73,0,0,1,5.72,1c1.86,1.07,2,2.53,1,2.86l-1,.32a66.11,66.11,0,0,0-10.58,4.9c-1.51.89-3.55,2.79-.5,4.55a1.48,1.48,0,0,1,.06,2.55,3.25,3.25,0,0,1-3.51.5,4.37,4.37,0,0,0-6.07,1.42,36.14,36.14,0,0,0-4.19,8c-.16.47-.24.73-.24.73-.27.76-2.45,1.33-4.3.26a4.78,4.78,0,0,1-2.49-3.67v-2.3a35.53,35.53,0,0,1,9-12C194.61,205.4,205.19,202,205.19,202Z"/><path class="cls-66" d="M220.86,245.61c-.84-1.86.42-4.35,3.32-6.75,4.59-3.82,11.66.44,11.66.44l.45.29,3.49-3.09c-.16-.07-.33-.16-.49-.25a3.23,3.23,0,0,0-3.51.5s-5.14-3.62.43-8.56c5.33-4.72,12.58-1,12.91,0l.39-.35s1.58-1.39-3.42-4.27l-30.91-17.83c-5-2.88-6.71-1.82-6.71-1.82l-2.3,1.3a11.75,11.75,0,0,1,2.3-.32c1.42-.07,8.63,4.09,3.06,9a11,11,0,0,1-11.6,2.11,1.48,1.48,0,0,0-.06-2.55,4.76,4.76,0,0,1-.92-.67l-3.24,2.87-.39.35a6.19,6.19,0,0,1,1.1.5s7.32,4,3.07,8.06c-2.67,2.53-5.81,3.93-8.52,3.74s-4.69-3.22-4.32-4c.13-.3.28-.63.44-1l-2.42,2.14a81.53,81.53,0,0,0,8.48,5.75c4.42,2.55,10.48,3.06,13.42,4.76,3.17,1.83,4.91,5.81,9.35,8.37a93.58,93.58,0,0,0,9.66,4.71l1.39-1.24C225.53,248.07,221.63,247.31,220.86,245.61Z"/><path class="cls-173" d="M220.86,244.86c-.84-1.86.42-4.35,3.32-6.75,4.59-3.82,11.66.44,11.66.44l.45.29,3.49-3.09c-.16-.07-.33-.16-.49-.25a3.23,3.23,0,0,0-3.51.5s-5.14-3.62.43-8.56c5.33-4.72,12.58-1,12.91,0l.11.76.28-1.11s1.58-1.39-3.42-4.27L215.18,205c-5-2.88-6.57-1.48-6.57-1.48l-1.43,1.27c.49-.22,1-.42,1.41-.59,1-.39,8.51,4.05,2.94,9a11,11,0,0,1-11.6,2.11,1.48,1.48,0,0,0-.06-2.55,4.76,4.76,0,0,1-.92-.67l-3.63,3.22a6.19,6.19,0,0,1,1.1.5s7.32,4,3.07,8.06c-2.67,2.53-5.81,3.93-8.52,3.74s-4.69-3.22-4.32-4c.13-.3.28-.63.44-1l-2.42,2.14a81.53,81.53,0,0,0,8.48,5.75c4.42,2.55,10.48,3.06,13.42,4.76,3.17,1.83,4.91,5.81,9.35,8.37a93.58,93.58,0,0,0,9.66,4.71L227,247.1C225.53,247.32,221.63,246.56,220.86,244.86Z"/><path class="cls-66" d="M256.82,229.45c.24-.94-.75-2.71-2.6-3.78s-3.87-.85-4.12-.09c0,0-.08.27-.24.73a35.68,35.68,0,0,1-4.46,8.43,4.4,4.4,0,0,1-6.12,1.31,3.24,3.24,0,0,0-3.5.5c-.95.84-.93,2,.06,2.55,3,1.74.89,3.65-.66,4.54a66,66,0,0,1-10.11,4.63l-.95.33c-1,.34-1.3,2,.55,3.06a9.23,9.23,0,0,0,6.16.81s10.58-3.41,17.07-9.16A33.5,33.5,0,0,0,256.82,229.45Z"/><path class="cls-66" d="M205.19,199.68a8.74,8.74,0,0,1,5.72,1c1.86,1.07,2,2.52,1,2.85l-1,.33a65.84,65.84,0,0,0-10.58,4.89c-1.51.9-3.55,2.8-.5,4.55,1,.57,1,1.71.06,2.56a3.27,3.27,0,0,1-3.51.5,4.37,4.37,0,0,0-6.07,1.41,35.93,35.93,0,0,0-4.19,8.05c-.16.46-.24.73-.24.73-.27.76-2.45,1.33-4.3.26s-2.76-3.13-2.42-4.13a33.5,33.5,0,0,1,8.92-13.86C194.61,203.08,205.19,199.68,205.19,199.68Z"/><path class="cls-69" d="M256.82,228.9c.24-.94-.75-2.72-2.6-3.78s-3.87-.86-4.12-.09c0,0-.08.26-.24.73a35.48,35.48,0,0,1-4.46,8.42,4.41,4.41,0,0,1-6.12,1.32,3.22,3.22,0,0,0-3.5.5c-.95.84-.93,2,.06,2.55,3,1.73.89,3.65-.66,4.54a66,66,0,0,1-10.11,4.63l-.95.32c-1,.35-1.3,2,.55,3.06a9.11,9.11,0,0,0,6.16.81s10.58-3.4,17.07-9.15A33.56,33.56,0,0,0,256.82,228.9Z"/><path class="cls-69" d="M205.19,199.13a8.74,8.74,0,0,1,5.72,1c1.86,1.06,2,2.52,1,2.85,0,0-.35.11-1,.33a64.94,64.94,0,0,0-10.58,4.89c-1.51.89-3.55,2.79-.5,4.55a1.48,1.48,0,0,1,.06,2.55,3.23,3.23,0,0,1-3.51.5,4.37,4.37,0,0,0-6.07,1.42,36.14,36.14,0,0,0-4.19,8c-.16.47-.24.74-.24.74-.27.76-2.45,1.33-4.3.26s-2.76-3.13-2.42-4.13a33.5,33.5,0,0,1,8.92-13.86C194.61,202.53,205.19,199.13,205.19,199.13Z"/><path class="cls-174" d="M216.45,232a8.72,8.72,0,0,1-4.32-1.05,5,5,0,0,1-2.62-3.78,6.17,6.17,0,0,1,2.36-5.13c3.16-2.81,8.42-3.55,11.71-1.65a5,5,0,0,1,2.62,3.78,6.2,6.2,0,0,1-2.36,5.14h0A11.41,11.41,0,0,1,216.45,232Zm2.79-11.68a10.4,10.4,0,0,0-6.71,2.46,5.28,5.28,0,0,0-2,4.29,4,4,0,0,0,2.13,3c3,1.7,7.68,1,10.55-1.52h0a5.24,5.24,0,0,0,2-4.29,4,4,0,0,0-2.12-3A7.64,7.64,0,0,0,219.24,220.31Z"/><path class="cls-69" d="M223.51,228.92c-3,2.68-8,3.39-11.13,1.59s-3.2-5.43-.18-8.11,8-3.39,11.13-1.59S226.53,226.24,223.51,228.92Z"/><path class="cls-69" d="M206.63,220.18a3.25,3.25,0,0,1-3.52.5c-1-.56-1-1.71-.06-2.56a3.27,3.27,0,0,1,3.52-.5A1.49,1.49,0,0,1,206.63,220.18Z"/><path class="cls-69" d="M219.38,211.5a3.25,3.25,0,0,1-3.52.5c-1-.57-1-1.71-.06-2.56a3.27,3.27,0,0,1,3.52-.5C220.31,209.51,220.33,210.66,219.38,211.5Z"/><path class="cls-69" d="M198.5,230a3.23,3.23,0,0,1-3.51.5c-1-.57-1-1.71-.06-2.56a3.23,3.23,0,0,1,3.51-.5A1.48,1.48,0,0,1,198.5,230Z"/><path class="cls-69" d="M227.76,232.37a1.48,1.48,0,0,0,.06,2.56,3.23,3.23,0,0,0,3.51-.5c1-.85.93-2-.06-2.56A3.23,3.23,0,0,0,227.76,232.37Z"/><path class="cls-69" d="M236.94,221.63a1.49,1.49,0,0,0,.05,2.56,3.27,3.27,0,0,0,3.52-.5c1-.85.93-2-.06-2.56A3.23,3.23,0,0,0,236.94,221.63Z"/><path class="cls-69" d="M216.06,240.12c-.95.84-.93,2,.06,2.56a3.27,3.27,0,0,0,3.52-.5c1-.85.92-2-.06-2.56A3.25,3.25,0,0,0,216.06,240.12Z"/><path class="cls-175" d="M206.31,219.31a3.23,3.23,0,0,1-3.51.5c-1-.57-1-1.71-.06-2.56a3.25,3.25,0,0,1,3.52-.5C207.24,217.32,207.27,218.46,206.31,219.31Z"/><path class="cls-176" d="M219.06,210.63a3.25,3.25,0,0,1-3.51.5c-1-.57-1-1.72-.06-2.56a3.25,3.25,0,0,1,3.52-.5C220,208.64,220,209.78,219.06,210.63Z"/><path class="cls-177" d="M198.19,229.12a3.27,3.27,0,0,1-3.52.5,1.49,1.49,0,0,1,0-2.56,3.23,3.23,0,0,1,3.51-.5C199.12,227.12,199.14,228.27,198.19,229.12Z"/><path class="cls-178" d="M227.45,231.5a1.49,1.49,0,0,0,.05,2.56,3.27,3.27,0,0,0,3.52-.5c.95-.85.93-2-.06-2.57A3.26,3.26,0,0,0,227.45,231.5Z"/><path class="cls-179" d="M236.62,220.75a1.5,1.5,0,0,0,.06,2.57,3.27,3.27,0,0,0,3.52-.51c1-.84.93-2-.06-2.56A3.27,3.27,0,0,0,236.62,220.75Z"/><path class="cls-180" d="M215.75,239.24c-.95.85-.93,2,.06,2.56a3.23,3.23,0,0,0,3.51-.5,1.49,1.49,0,0,0,0-2.56A3.27,3.27,0,0,0,215.75,239.24Z"/><g class="cls-181"><g class="cls-181"><path class="cls-182" d="M219.76,192.41h-5V210h0a1.38,1.38,0,0,0,.75,1.12,3.25,3.25,0,0,0,3.51-.5,1.84,1.84,0,0,0,.7-1.44h0Z"/></g></g><g class="cls-183"><g class="cls-183"><path class="cls-184" d="M207,201.1h-5v17.59h0a1.38,1.38,0,0,0,.75,1.12,3.23,3.23,0,0,0,3.51-.5,1.8,1.8,0,0,0,.69-1.44h0Z"/></g></g><g class="cls-185"><g class="cls-185"><path class="cls-186" d="M198.89,210.9h-5v17.6h0a1.36,1.36,0,0,0,.74,1.12,3.27,3.27,0,0,0,3.52-.5,1.83,1.83,0,0,0,.69-1.44h0Z"/></g></g><g class="cls-187"><g class="cls-187"><path class="cls-188" d="M240.9,204.6h-5v17.59h0a1.43,1.43,0,0,0,.75,1.13,3.27,3.27,0,0,0,3.52-.51,1.8,1.8,0,0,0,.69-1.43h0Z"/></g></g><g class="cls-189"><g class="cls-189"><path class="cls-190" d="M231.72,215.34h-5v17.6h0a1.38,1.38,0,0,0,.74,1.13,3.27,3.27,0,0,0,3.52-.5,1.83,1.83,0,0,0,.69-1.44h0Z"/></g></g><g class="cls-191"><g class="cls-191"><path class="cls-192" d="M220,223.09h-5v17.59h0a1.38,1.38,0,0,0,.75,1.12,3.23,3.23,0,0,0,3.51-.5,1.77,1.77,0,0,0,.69-1.43h0Z"/></g></g></g></g></g></g></svg>