<?xml version="1.0" encoding="utf-8"?>
<!-- Generator: Adobe Illustrator 16.0.0, SVG Export Plug-In . SVG Version: 6.00 Build 0)  -->
<!DOCTYPE svg PUBLIC "-//W3C//DTD SVG 1.1//EN" "http://www.w3.org/Graphics/SVG/1.1/DTD/svg11.dtd">
<svg version="1.1" id="Layer_1" xmlns="http://www.w3.org/2000/svg" xmlns:xlink="http://www.w3.org/1999/xlink" x="0px" y="0px"
	 width="232.721px" height="36.351px" viewBox="0 0 232.721 36.351" enable-background="new 0 0 232.721 36.351"
	 xml:space="preserve">
<g>
	<defs>
		<path id="SVGID_1_" d="M18.105,14.964c0-1.094,0.886-1.98,1.981-1.98c1.094,0,1.981,0.887,1.981,1.98s-0.887,1.981-1.981,1.981
			C18.991,16.945,18.105,16.058,18.105,14.964 M52.899,14.964c0-1.094,0.887-1.98,1.982-1.98c1.094,0,1.981,0.887,1.981,1.98
			s-0.887,1.981-1.981,1.981C53.786,16.945,52.899,16.058,52.899,14.964 M0,33.243c0,1.966,1.157,3.107,3.107,3.107h4.374v-8.548
			l2.464-1.698l5.114,1.864v2.938l3.491,1.63v3.813h2.446v-6.562l2.267-1.547l3.881,1.354v6.754h2.292v-4.039l2.874-1.9l5.298,1.781
			v4.158h2.291V24.899l1.805-1.771l5.856,1.587v11.636h2.434v-6.765l1.582-1.242l4.446,1.241v6.766h2.468v-7.823l2.375-1.562
			l3.505,1.121v2.865l2.721,0.874v4.525h2.638h2.272c1.972,0,3.108-1.157,3.108-3.107C75.109,14.884,58.295,0,37.555,0
			C16.814,0,0,14.884,0,33.243"/>
	</defs>
	<use xlink:href="#SVGID_1_"  overflow="visible" fill="#FFFFFF"/>
	<clipPath id="SVGID_2_">
		<use xlink:href="#SVGID_1_"  overflow="visible"/>
	</clipPath>
	<defs>
		<filter id="Adobe_OpacityMaskFilter" filterUnits="userSpaceOnUse" x="0" y="0" width="75.109" height="36.351">
			<feColorMatrix  type="matrix" values="1 0 0 0 0  0 1 0 0 0  0 0 1 0 0  0 0 0 1 0"/>
		</filter>
	</defs>
	<mask maskUnits="userSpaceOnUse" x="0" y="0" width="75.109" height="36.351" id="SVGID_3_">
		<g filter="url(#Adobe_OpacityMaskFilter)">
			
				<linearGradient id="SVGID_4_" gradientUnits="userSpaceOnUse" x1="-164.2729" y1="374.084" x2="-163.2729" y2="374.084" gradientTransform="matrix(0 -36.3499 -36.3499 0 13635.4775 -5934.9551)">
				<stop  offset="0" style="stop-color:#FFFFFF"/>
				<stop  offset="0.6004" style="stop-color:#FBFBFB"/>
				<stop  offset="1" style="stop-color:#FBFBFB"/>
			</linearGradient>
			<rect clip-path="url(#SVGID_2_)" fill="url(#SVGID_4_)" width="75.109" height="36.351"/>
		</g>
	</mask>
	<rect clip-path="url(#SVGID_2_)" mask="url(#SVGID_3_)" fill="#FFFFFF" width="75.109" height="36.351"/>
</g>
<polygon fill="#FFFFFF" points="86.104,36.144 86.104,20.756 87.798,20.756 92.266,29.874 96.731,20.756 98.426,20.756 
	98.426,36.144 96.731,36.144 96.731,23.951 93.037,31.569 91.494,31.569 87.798,23.951 87.798,36.144 "/>
<path fill="#FFFFFF" d="M110.982,21.299c0.804-0.499,1.772-0.749,2.901-0.749c1.131,0,2.098,0.25,2.901,0.749
	c0.805,0.5,1.402,1.174,1.793,2.022c0.226,0.478,0.394,1.05,0.505,1.717c0.113,0.666,0.178,1.217,0.191,1.652
	c0.014,0.434,0.022,1.021,0.022,1.76c0,0.738-0.009,1.326-0.022,1.761c-0.014,0.434-0.078,0.985-0.191,1.651
	c-0.111,0.667-0.279,1.238-0.505,1.717c-0.391,0.848-0.988,1.521-1.793,2.021c-0.804,0.5-1.771,0.749-2.901,0.749
	c-1.129,0-2.098-0.249-2.901-0.749s-1.402-1.174-1.793-2.021c-0.225-0.479-0.393-1.05-0.505-1.717
	c-0.113-0.666-0.176-1.218-0.19-1.651c-0.015-0.435-0.022-1.022-0.022-1.761c0-0.739,0.007-1.326,0.022-1.76
	c0.014-0.436,0.077-0.986,0.19-1.652c0.112-0.667,0.28-1.239,0.505-1.717C109.581,22.473,110.179,21.799,110.982,21.299z
	 M115.829,22.555c-0.529-0.323-1.177-0.483-1.945-0.483c-0.768,0-1.416,0.16-1.944,0.483c-0.53,0.322-0.924,0.77-1.185,1.342
	c-0.182,0.384-0.317,0.863-0.408,1.44c-0.09,0.575-0.143,1.068-0.157,1.479c-0.015,0.408-0.022,0.953-0.022,1.635
	c0,0.681,0.008,1.226,0.022,1.635c0.015,0.41,0.067,0.903,0.157,1.478c0.091,0.577,0.227,1.058,0.408,1.44
	c0.261,0.573,0.654,1.02,1.185,1.342c0.528,0.323,1.177,0.484,1.944,0.484c0.769,0,1.416-0.161,1.945-0.484
	c0.529-0.322,0.924-0.769,1.186-1.342c0.181-0.383,0.315-0.863,0.407-1.44c0.091-0.574,0.143-1.067,0.157-1.478
	c0.015-0.409,0.021-0.954,0.021-1.635c0-0.682-0.007-1.227-0.021-1.635c-0.015-0.41-0.066-0.903-0.157-1.479
	c-0.092-0.577-0.227-1.057-0.407-1.44C116.753,23.324,116.358,22.877,115.829,22.555z"/>
<path fill="#FFFFFF" d="M128.298,34.895l0.75-1.369c1.5,0.869,2.818,1.304,3.956,1.304c0.448,0,0.851-0.063,1.206-0.189
	c0.355-0.127,0.64-0.29,0.853-0.49c0.214-0.199,0.392-0.43,0.534-0.695c0.14-0.264,0.235-0.521,0.286-0.771
	c0.052-0.251,0.076-0.502,0.076-0.757c0-0.578-0.132-1.101-0.396-1.564s-0.697-0.807-1.298-1.032
	c-0.29-0.108-0.751-0.227-1.386-0.354c-0.635-0.126-1.11-0.244-1.43-0.353c-0.912-0.326-1.611-0.84-2.097-1.544
	c-0.486-0.703-0.729-1.503-0.729-2.4c0-1.16,0.392-2.139,1.174-2.935c0.782-0.797,1.851-1.196,3.206-1.196
	c1.195,0,2.546,0.362,4.054,1.087l-0.652,1.402c-1.333-0.645-2.467-0.967-3.401-0.967c-0.892,0-1.562,0.253-2.011,0.76
	c-0.449,0.508-0.674,1.123-0.674,1.849c0,0.564,0.142,1.075,0.424,1.531c0.283,0.457,0.721,0.786,1.315,0.989
	c0.268,0.095,0.726,0.207,1.374,0.337s1.146,0.261,1.494,0.392c0.905,0.348,1.588,0.875,2.043,1.582
	c0.456,0.704,0.686,1.512,0.686,2.416c0,0.588-0.1,1.144-0.299,1.67c-0.2,0.524-0.485,0.993-0.859,1.406
	c-0.373,0.413-0.862,0.74-1.466,0.984c-0.606,0.242-1.281,0.363-2.027,0.363c-0.848,0-1.645-0.13-2.391-0.392
	C129.866,35.698,129.095,35.343,128.298,34.895z"/>
<path fill="#FFFFFF" d="M146.114,34.895l0.75-1.369c1.5,0.869,2.818,1.304,3.956,1.304c0.448,0,0.851-0.063,1.206-0.189
	c0.355-0.127,0.64-0.29,0.853-0.49c0.214-0.199,0.392-0.43,0.534-0.695c0.14-0.264,0.235-0.521,0.286-0.771
	c0.052-0.251,0.076-0.502,0.076-0.757c0-0.578-0.132-1.101-0.396-1.564s-0.697-0.807-1.298-1.032
	c-0.29-0.108-0.751-0.227-1.386-0.354c-0.635-0.126-1.11-0.244-1.43-0.353c-0.912-0.326-1.611-0.84-2.097-1.544
	c-0.486-0.703-0.729-1.503-0.729-2.4c0-1.16,0.392-2.139,1.174-2.935c0.782-0.797,1.851-1.196,3.206-1.196
	c1.195,0,2.546,0.362,4.054,1.087l-0.652,1.402c-1.333-0.645-2.467-0.967-3.401-0.967c-0.892,0-1.562,0.253-2.011,0.76
	c-0.449,0.508-0.674,1.123-0.674,1.849c0,0.564,0.142,1.075,0.424,1.531c0.283,0.457,0.721,0.786,1.315,0.989
	c0.268,0.095,0.726,0.207,1.374,0.337s1.146,0.261,1.494,0.392c0.905,0.348,1.588,0.875,2.043,1.582
	c0.456,0.704,0.686,1.512,0.686,2.416c0,0.588-0.1,1.144-0.299,1.67c-0.2,0.524-0.485,0.993-0.859,1.406
	c-0.373,0.413-0.862,0.74-1.466,0.984c-0.606,0.242-1.281,0.363-2.027,0.363c-0.848,0-1.645-0.13-2.391-0.392
	C147.683,35.698,146.911,35.343,146.114,34.895z"/>
<polygon fill="#FFFFFF" points="165.19,20.756 166.886,20.756 166.886,34.623 173.015,34.623 173.015,36.144 165.19,36.144 "/>
<path fill="#FFFFFF" d="M186.212,20.756h1.63l5.216,15.388h-1.771l-1.206-3.717h-6.107l-1.207,3.717h-1.771L186.212,20.756z
	 M189.581,30.906l-2.555-7.857l-2.554,7.857H189.581z"/>
<polygon fill="#FFFFFF" points="210.58,20.756 212.275,20.756 212.275,36.144 210.569,36.144 203.821,23.799 203.821,36.144 
	202.125,36.144 202.125,20.756 203.831,20.756 210.58,33.101 "/>
<path fill="#FFFFFF" d="M222.865,20.757h3.9c1.087,0,1.916,0.083,2.489,0.25c0.666,0.194,1.237,0.522,1.712,0.982
	c0.474,0.46,0.845,0.991,1.113,1.592c0.195,0.449,0.345,0.987,0.445,1.613c0.102,0.627,0.159,1.147,0.175,1.561
	c0.014,0.412,0.021,0.978,0.021,1.695c0,0.717-0.007,1.282-0.021,1.695c-0.016,0.413-0.073,0.933-0.175,1.56
	c-0.101,0.626-0.25,1.164-0.445,1.613c-0.269,0.602-0.64,1.132-1.113,1.592c-0.475,0.46-1.046,0.788-1.712,0.984
	c-0.573,0.166-1.402,0.25-2.489,0.25h-3.9V20.757z M224.56,22.277v12.345h2.206c0.37,0,0.661-0.003,0.875-0.011
	c0.213-0.007,0.479-0.042,0.793-0.103c0.316-0.062,0.574-0.15,0.777-0.267c0.253-0.145,0.478-0.326,0.674-0.544
	c0.196-0.217,0.357-0.433,0.483-0.646c0.127-0.214,0.233-0.485,0.32-0.816c0.087-0.329,0.152-0.615,0.196-0.856
	c0.043-0.244,0.076-0.568,0.098-0.974c0.021-0.406,0.034-0.723,0.037-0.952c0.004-0.227,0.006-0.562,0.006-1.004
	s-0.002-0.777-0.006-1.005c-0.003-0.229-0.016-0.546-0.037-0.952c-0.021-0.404-0.055-0.729-0.098-0.973
	c-0.044-0.242-0.109-0.528-0.196-0.857c-0.087-0.33-0.193-0.602-0.32-0.815c-0.126-0.213-0.287-0.429-0.483-0.646
	s-0.421-0.398-0.674-0.544c-0.203-0.116-0.461-0.204-0.777-0.266c-0.314-0.062-0.58-0.096-0.793-0.104
	c-0.214-0.008-0.505-0.011-0.875-0.011H224.56z"/>
</svg>
