<?xml version="1.0" encoding="UTF-8"?><!DOCTYPE svg PUBLIC "-//W3C//DTD SVG 1.1//EN" "http://www.w3.org/Graphics/SVG/1.1/DTD/svg11.dtd"><svg xmlns="http://www.w3.org/2000/svg" xmlns:xlink="http://www.w3.org/1999/xlink"><defs>
        <path id="a" d="M18.105 14.964a1.98 1.98 0 1 1 1.981 1.981 1.98 1.98 0 0 1-1.981-1.981m34.794 0a1.98 1.98 0 1 1 3.96 0 1.98 1.98 0 0 1-3.96 0M0 33.243c0 1.966 1.157 3.107 3.107 3.107h4.374v-8.548l2.464-1.698 5.114 1.864v2.938l3.491 1.63v3.813h2.446v-6.562l2.267-1.547 3.881 1.354v6.754h2.292v-4.039l2.874-1.9 5.298 1.781v4.158h2.291V24.899l1.805-1.771 5.856 1.587v11.636h2.434v-6.765l1.582-1.242 4.446 1.241v6.766h2.468v-7.823l2.375-1.562 3.505 1.121v2.865l2.721.874v4.525h4.91c1.972 0 3.108-1.157 3.108-3.107C75.109 14.884 58.295 0 37.555 0 16.814 0 0 14.884 0 33.243"/>
    
        <filter id="b" filterUnits="userSpaceOnUse" x="0" y="0" width="75.109" height="36.351">
            <feColorMatrix values="1 0 0 0 0 0 1 0 0 0 0 0 1 0 0 0 0 0 1 0"/>
        </filter>
    </defs><symbol id="icon-arrow-right" viewBox="0 0 31.49 31.49">
    <path d="M21.205 5.007a1.112 1.112 0 0 0-1.587 0 1.12 1.12 0 0 0 0 1.571l8.047 8.047H1.111A1.106 1.106 0 0 0 0 15.737c0 .619.492 1.127 1.111 1.127h26.554l-8.047 8.032c-.429.444-.429 1.159 0 1.587a1.112 1.112 0 0 0 1.587 0l9.952-9.952a1.093 1.093 0 0 0 0-1.571l-9.952-9.953z"/>
</symbol><symbol id="icon-logo_dark" viewBox="0 0 232.721 36.351">
    
    <use xlink:href="#a" overflow="visible"/>
    <clipPath id="c">
        <use xlink:href="#a" overflow="visible"/>
    </clipPath>
    
    <mask maskUnits="userSpaceOnUse" x="0" y="0" width="75.109" height="36.351" id="e">
        <g filter="url(#b)">
            <linearGradient id="d" gradientUnits="userSpaceOnUse" x1="-164.273" y1="374.084" x2="-163.273" y2="374.084" gradientTransform="matrix(0 -36.3499 -36.3499 0 13635.478 -5934.955)">
                <stop offset="0" stop-color="#fff"/>
                <stop offset=".6" stop-color="#fbfbfb"/>
                <stop offset="1" stop-color="#fbfbfb"/>
            </linearGradient>
            <path clip-path="url(#c)" d="M0 0h75.109v36.351H0z"/>
        </g>
    </mask>
    <path clip-path="url(#c)" mask="url(#e)" d="M0 0h75.109v36.351H0z"/>
    <path d="M86.104 36.144V20.756h1.694l4.468 9.118 4.465-9.118h1.695v15.388h-1.695V23.951l-3.694 7.618h-1.543l-3.696-7.618v12.193z"/>
    <path d="M110.982 21.299c.804-.499 1.772-.749 2.901-.749 1.131 0 2.098.25 2.901.749a4.604 4.604 0 0 1 1.793 2.022c.226.478.394 1.05.505 1.717.113.666.178 1.217.191 1.652.014.434.022 1.021.022 1.76 0 .738-.009 1.326-.022 1.761-.014.434-.078.985-.191 1.651-.111.667-.279 1.238-.505 1.717a4.602 4.602 0 0 1-1.793 2.021c-.804.5-1.771.749-2.901.749-1.129 0-2.098-.249-2.901-.749s-1.402-1.174-1.793-2.021c-.225-.479-.393-1.05-.505-1.717a12.697 12.697 0 0 1-.19-1.651 54.087 54.087 0 0 1-.022-1.761c0-.739.007-1.326.022-1.76.014-.436.077-.986.19-1.652.112-.667.28-1.239.505-1.717a4.623 4.623 0 0 1 1.793-2.022zm4.847 1.256c-.529-.323-1.177-.483-1.945-.483s-1.416.16-1.944.483c-.53.322-.924.77-1.185 1.342-.182.384-.317.863-.408 1.44-.09.575-.143 1.068-.157 1.479-.015.408-.022.953-.022 1.635 0 .681.008 1.226.022 1.635.015.41.067.903.157 1.478.091.577.227 1.058.408 1.44.261.573.654 1.02 1.185 1.342.528.323 1.177.484 1.944.484.769 0 1.416-.161 1.945-.484a2.988 2.988 0 0 0 1.186-1.342c.181-.383.315-.863.407-1.44.091-.574.143-1.067.157-1.478.015-.409.021-.954.021-1.635 0-.682-.007-1.227-.021-1.635-.015-.41-.066-.903-.157-1.479-.092-.577-.227-1.057-.407-1.44a2.988 2.988 0 0 0-1.186-1.342z"/>
    <path d="M128.298 34.895l.75-1.369c1.5.869 2.818 1.304 3.956 1.304.448 0 .851-.063 1.206-.189.355-.127.64-.29.853-.49a2.65 2.65 0 0 0 .534-.695c.14-.264.235-.521.286-.771a3.71 3.71 0 0 0 .076-.757c0-.578-.132-1.101-.396-1.564s-.697-.807-1.298-1.032c-.29-.108-.751-.227-1.386-.354-.635-.126-1.11-.244-1.43-.353-.912-.326-1.611-.84-2.097-1.544-.486-.703-.729-1.503-.729-2.4 0-1.16.392-2.139 1.174-2.935.782-.797 1.851-1.196 3.206-1.196 1.195 0 2.546.362 4.054 1.087l-.652 1.402c-1.333-.645-2.467-.967-3.401-.967-.892 0-1.562.253-2.011.76-.449.508-.674 1.123-.674 1.849 0 .564.142 1.075.424 1.531.283.457.721.786 1.315.989.268.095.726.207 1.374.337s1.146.261 1.494.392c.905.348 1.588.875 2.043 1.582.456.704.686 1.512.686 2.416 0 .588-.1 1.144-.299 1.67-.2.524-.485.993-.859 1.406-.373.413-.862.74-1.466.984-.606.242-1.281.363-2.027.363-.848 0-1.645-.13-2.391-.392a14.528 14.528 0 0 1-2.315-1.064z"/>
    <path d="M146.114 34.895l.75-1.369c1.5.869 2.818 1.304 3.956 1.304.448 0 .851-.063 1.206-.189.355-.127.64-.29.853-.49a2.65 2.65 0 0 0 .534-.695c.14-.264.235-.521.286-.771a3.71 3.71 0 0 0 .076-.757c0-.578-.132-1.101-.396-1.564s-.697-.807-1.298-1.032c-.29-.108-.751-.227-1.386-.354-.635-.126-1.11-.244-1.43-.353-.912-.326-1.611-.84-2.097-1.544-.486-.703-.729-1.503-.729-2.4 0-1.16.392-2.139 1.174-2.935.782-.797 1.851-1.196 3.206-1.196 1.195 0 2.546.362 4.054 1.087l-.652 1.402c-1.333-.645-2.467-.967-3.401-.967-.892 0-1.562.253-2.011.76-.449.508-.674 1.123-.674 1.849 0 .564.142 1.075.424 1.531.283.457.721.786 1.315.989.268.095.726.207 1.374.337s1.146.261 1.494.392c.905.348 1.588.875 2.043 1.582.456.704.686 1.512.686 2.416 0 .588-.1 1.144-.299 1.67-.2.524-.485.993-.859 1.406-.373.413-.862.74-1.466.984-.606.242-1.281.363-2.027.363-.848 0-1.645-.13-2.391-.392a14.568 14.568 0 0 1-2.315-1.064z"/>
    <path d="M165.19 20.756h1.696v13.867h6.129v1.521h-7.825z"/>
    <path d="M186.212 20.756h1.63l5.216 15.388h-1.771l-1.206-3.717h-6.107l-1.207 3.717h-1.771l5.216-15.388zm3.369 10.15l-2.555-7.857-2.554 7.857h5.109z"/>
    <path d="M210.58 20.756h1.695v15.388h-1.706l-6.748-12.345v12.345h-1.696V20.756h1.706l6.749 12.345z"/>
    <path d="M222.865 20.757h3.9c1.087 0 1.916.083 2.489.25a4.046 4.046 0 0 1 1.712.982c.474.46.845.991 1.113 1.592.195.449.345.987.445 1.613.102.627.159 1.147.175 1.561.014.412.021.978.021 1.695 0 .717-.007 1.282-.021 1.695-.016.413-.073.933-.175 1.56-.101.626-.25 1.164-.445 1.613a5.107 5.107 0 0 1-1.113 1.592 4.07 4.07 0 0 1-1.712.984c-.573.166-1.402.25-2.489.25h-3.9V20.757zm1.695 1.52v12.345h2.206c.37 0 .661-.003.875-.011.213-.007.479-.042.793-.103.316-.062.574-.15.777-.267.253-.145.478-.326.674-.544.196-.217.357-.433.483-.646.127-.214.233-.485.32-.816.087-.329.152-.615.196-.856.043-.244.076-.568.098-.974.021-.406.034-.723.037-.952.004-.227.006-.562.006-1.004s-.002-.777-.006-1.005a26.697 26.697 0 0 0-.037-.952 8.291 8.291 0 0 0-.098-.973 11.37 11.37 0 0 0-.196-.857 3.189 3.189 0 0 0-.32-.815c-.126-.213-.287-.429-.483-.646s-.421-.398-.674-.544a2.564 2.564 0 0 0-.777-.266 5.231 5.231 0 0 0-.793-.104 25.17 25.17 0 0 0-.875-.011h-2.206z"/>
</symbol></svg>