<?xml version="1.0" encoding="utf-8"?>
<!-- Generator: Adobe Illustrator 22.1.0, SVG Export Plug-In . SVG Version: 6.00 Build 0)  -->
<svg version="1.1" xmlns="http://www.w3.org/2000/svg" xmlns:xlink="http://www.w3.org/1999/xlink" x="0px" y="0px"
	 viewBox="0 0 747.8 1080" style="enable-background:new 0 0 747.8 1080;" xml:space="preserve">
<style type="text/css">
	.st0{fill:none;}
	.st1{fill:#EE483E;}
</style>
<g id="레이어_1">
</g>
<g id="Layer_2">
	<g>
		<polygon class="st0" points="32.4,785 388.8,785 32.4,428.7 		"/>
		<polygon class="st0" points="32.4,1037 644.2,1037 435.1,827.9 32.4,827.9 		"/>
		<path class="st0" d="M456.2,0c4.9,1.4,9.8,3,14.6,4.7c147.5,50.2,246.6,188.7,246.6,344.5c0,191.8-149.1,349.4-337.4,363.1
			L747.8,1080V0H456.2z"/>
		<path class="st0" d="M124.7,460.2l210,210h18.7c177,0,321-144,321-321c0-137-86.8-258.6-216-303.4c2.4,16.8,3.6,34,3.6,51.4
			C462.1,288.8,313,446.5,124.7,460.2z"/>
		<path class="st0" d="M419,97.2c0-21.6-2.2-42.9-6.3-63.5c-19.5-3.7-39.3-5.5-59.3-5.5h-321v390.1H98C275,418.2,419,274.2,419,97.2
			z"/>
		<path class="st1" d="M717.4,349.2c0-155.8-99.1-294.3-246.6-344.5C466,3,461.1,1.4,456.2,0H0v1080h747.8L380,712.2
			C568.3,698.5,717.4,540.9,717.4,349.2z M674.5,349.2c0,177-144,321-321,321h-18.7l-210-210C313,446.5,462.1,288.8,462.1,97.1
			c0-17.4-1.2-34.5-3.6-51.4C587.7,90.5,674.5,212.2,674.5,349.2z M32.4,28.1h321c20,0,39.8,1.9,59.3,5.5
			c4.2,20.6,6.3,41.9,6.3,63.5c0,177-144,321-321,321H32.4V28.1z M644.2,1037H32.4V827.9h402.7L644.2,1037z M388.8,785H32.4V428.7
			L388.8,785z"/>
	</g>
</g>
</svg>
