<?xml version="1.0" encoding="UTF-8"?><!DOCTYPE svg PUBLIC "-//W3C//DTD SVG 1.1//EN" "http://www.w3.org/Graphics/SVG/1.1/DTD/svg11.dtd"><svg xmlns="http://www.w3.org/2000/svg" xmlns:xlink="http://www.w3.org/1999/xlink"><defs>
        <path id="a" d="M18.105 14.964a1.98 1.98 0 1 1 1.981 1.981 1.98 1.98 0 0 1-1.981-1.981m34.794 0a1.98 1.98 0 1 1 3.96 0 1.98 1.98 0 0 1-3.96 0M0 33.243c0 1.966 1.157 3.107 3.107 3.107h4.374v-8.548l2.464-1.698 5.114 1.864v2.938l3.491 1.63v3.813h2.446v-6.562l2.267-1.547 3.881 1.354v6.754h2.292v-4.039l2.874-1.9 5.298 1.781v4.158h2.291V24.899l1.805-1.771 5.856 1.587v11.636h2.434v-6.765l1.582-1.242 4.446 1.241v6.766h2.468v-7.823l2.375-1.562 3.505 1.121v2.865l2.721.874v4.525h4.91c1.972 0 3.108-1.157 3.108-3.107C75.109 14.884 58.295 0 37.555 0 16.814 0 0 14.884 0 33.243"/>
    
        <filter id="b" filterUnits="userSpaceOnUse" x="0" y="0" width="75.109" height="36.351">
            <feColorMatrix values="1 0 0 0 0 0 1 0 0 0 0 0 1 0 0 0 0 0 1 0"/>
        </filter>
    </defs><symbol id="icon-alpha" viewBox="19.3 -0.9 21.4 19.4">
    <path d="M39.2 12c0 1.3-.6 1.4-.8 1.4-.1-.1-.5-.5-1-1.8-.2-.7-.4-1.3-.5-1.6C38.3 5.2 38.1.1 38-.1v-.8h-5.1l.1.9s0 .6.1 1.5c-.2-.3-.4-.6-.7-.8-1.1-1.1-2.5-1.6-4.3-1.6h-.2c-.5 0-1.3 0-2.4.2-1.5.3-2.7 1-3.7 2-1.7 1.7-2.5 4.1-2.5 7.4 0 3.5.9 6.1 2.6 7.8.9.9 2.5 1.9 5 2h.8c1.7 0 3.2-.4 4.4-1.1.8-.5 1.5-1.1 2.1-1.8.3.5.5.9.9 1.3.9 1.1 1.9 1.6 2.9 1.6.3 0 1.1-.1 1.8-.7.6-.6.9-1.4.9-2.4V12h-1.5zM21 8.7c0-2.8.7-4.8 2-6.2.3-.3.6-.5.9-.7-.8 1.6-1.3 3.9-1.3 6.9 0 3.2.5 5.7 1.4 7.4-.4-.2-.8-.5-1-.8-1.3-1.4-2-3.6-2-6.6zm9.1 6.7c-.8.8-1.7 1.3-2.7 1.4-.3-.1-.7-.2-1.1-.6-.9-.8-2-2.8-2-7.5 0-4.5 1-6.4 1.8-7.2.6-.6 1.2-.7 1.6-.7h.4c3.2 0 4.4 4.5 4.8 6.5-.3 3-1.1 6.2-2.8 8.1zm9.1 0c0 .5-.1.9-.4 1.2-.3.2-.6.3-.7.3-1.3 0-2.4-1.9-2.8-3.2l-.2-.7H34l-.2.4c-.4.7-.8 1.2-1.3 1.7 1.2-2 2-5 2.3-8.8.2-2.4.1-4.4.1-5.6h1.7c0 1.6-.1 5.4-1.2 8.9l-.1.2v.2s.2 1.1.7 2.3c.4 1.2 1.1 2.7 2.4 2.7.1 0 .4 0 .8-.1v.5z"/>
</symbol><symbol id="icon-arrow-right" viewBox="0 0 31.49 31.49">
    <path d="M21.205 5.007a1.112 1.112 0 0 0-1.587 0 1.12 1.12 0 0 0 0 1.571l8.047 8.047H1.111A1.106 1.106 0 0 0 0 15.737c0 .619.492 1.127 1.111 1.127h26.554l-8.047 8.032c-.429.444-.429 1.159 0 1.587a1.112 1.112 0 0 0 1.587 0l9.952-9.952a1.093 1.093 0 0 0 0-1.571l-9.952-9.953z"/>
</symbol><symbol id="icon-basketball" viewBox="21.5 0.3 16.9 17">
    <style>
        .st0{fill:#231815}
    </style>
    <path class="st0" d="M30 17.3c-2.3 0-4.4-.9-6-2.5-3.3-3.3-3.3-8.7 0-12 1.6-1.6 3.7-2.5 6-2.5s4.4.9 6 2.5c3.3 3.3 3.3 8.7 0 12-1.6 1.6-3.7 2.5-6 2.5zm0-16c-2 0-3.9.8-5.3 2.2-2.9 2.9-2.9 7.7 0 10.6 1.4 1.4 3.3 2.2 5.3 2.2s3.9-.8 5.3-2.2c2.9-2.9 2.9-7.7 0-10.6C33.9 2.1 32 1.3 30 1.3zm6.038 2.265L24.724 14.879l-.707-.707L35.331 2.858zM22.3 6.7c1.6.5 3.4.1 4.5-1.1 1.2-1.2 1.6-2.9 1.1-4.5l1-.3c.6 2 .1 4.1-1.3 5.5-1 1-2.4 1.6-3.9 1.6-.6 0-1.1-.1-1.7-.3l.3-.9zm8.8 10.1c-.6-2-.1-4.1 1.3-5.5 1.4-1.4 3.6-2 5.5-1.3l-.3 1c-1.6-.5-3.4-.1-4.5 1.1-1.1 1.2-1.6 2.9-1.1 4.5l-.9.2zm4.175-1.922L23.961 3.564l.707-.707 11.314 11.314z"/>
</symbol><symbol id="icon-beta" viewBox="18.4 4.9 23.3 7.8">
    <path d="M18.5 11.9l.7-.2.2-.1s.1-.1.1-.2l1.2-5.6v-.2l-.1-.1-.7-.2.1-.4h3.4c.5 0 .9 0 1.2.1.3.1.6.2.7.3.2.1.3.3.4.5s.1.4.1.5c0 .3-.1.5-.2.7s-.2.4-.4.6c-.2.2-.4.3-.6.4s-.5.2-.8.3c.3 0 .5.1.8.2l.6.3c.2.1.3.3.4.5s.1.4.1.6c0 .3 0 .6-.1.8-.1.2-.2.4-.4.6-.2.2-.3.3-.6.5-.2.1-.4.2-.7.3-.2.1-.5.1-.8.2l-.8.1h-3.9l.1-.5zm3.6-.3c.6 0 1-.1 1.3-.4s.5-.7.5-1.3c0-.2 0-.4-.1-.6s-.2-.2-.4-.3-.3-.1-.5-.1h-1.2l-.6 2.8 1-.1zm.1-3.4c.3 0 .5 0 .8-.1.2-.1.4-.1.6-.3.2-.1.3-.3.4-.5s.1-.5.1-.8c0-.2 0-.4-.1-.5l-.3-.3c-.1-.1-.3-.1-.4-.1h-.8l-.6 2.6h.3zm6.3 4.2c-.2 0-.4 0-.6-.1s-.4-.1-.5-.2c-.2-.1-.3-.2-.4-.3l-.4-.4s-.2-.4-.2-.6c-.1-.2-.1-.4-.1-.7 0-.3 0-.6.1-.9s.2-.6.3-.8c.1-.3.3-.5.5-.7s.4-.4.7-.5c.3-.1.5-.3.8-.3s.6-.1.9-.1c.2 0 .4 0 .6.1.2 0 .4.1.6.2s.3.2.4.4c.1.1.2.3.2.6 0 .2 0 .4-.1.6s-.2.3-.3.5c-.1.1-.3.2-.5.3-.2.1-.4.2-.6.2s-.4.1-.6.1h-1.4v.4c0 .2 0 .4.1.6 0 .2.1.3.2.5.1.1.2.2.4.3.2.1.4.1.6.1h.5s.3-.1.5-.1.3-.1.4-.2.3-.1.4-.2h.2l-.1.6-.6.4-.6.3s-.4.1-.7.2c-.1-.3-.4-.3-.7-.3zm0-3.2c.2 0 .4 0 .6-.1.2 0 .3-.1.5-.2.1-.1.2-.2.3-.4.1-.2.1-.4.1-.6s-.1-.3-.2-.4-.2-.2-.4-.2h-.2s-.1.1-.2.1l-.3.3-.3.4s-.1.3-.2.5-.1.3-.1.5h.2s.1.1.2.1zm5.1 3.2c-.2 0-.4 0-.5-.1-.2 0-.3-.1-.4-.2l-.3-.3c-.1-.1-.1-.2-.1-.4v-.6c0-.1 0-.2.1-.2l.6-3h-.8v-.5c.2 0 .3 0 .5-.1l.3-.1s.2-.1.3-.2c.1-.1.1-.2.2-.4l.2-.7 1.4-.2-.3 1.6h1.8l-.1.7h-1.8l-.6 2.7v.8s0 .2.1.2c0 .1.1.1.2.2.1 0 .2.1.2.1h.9s.1 0 .2-.1h.2v.4c-.1 0-.2.1-.4.2s-.3.1-.5.2-.4.1-.5.1c-.6-.1-.8-.1-.9-.1zm3.9 0c-.2 0-.4 0-.6-.1s-.3-.2-.4-.3-.2-.3-.3-.4c-.1-.2-.1-.4-.1-.6 0-.3 0-.5.1-.7s.2-.4.3-.5c.1-.2.3-.3.5-.4l.6-.3c.2-.1.4-.1.6-.1h1.4v-.8c0-.3-.1-.5-.2-.6s-.3-.2-.6-.2c-.1 0-.3 0-.5.1s-.3.1-.5.2-.3.2-.5.3c-.2.1-.3.2-.4.3h-.3l.2-1.2c.2-.1.4-.1.5-.2.2 0 .4-.1.5-.1l.6-.1h.6s.4 0 .7.1c.2 0 .5.1.7.2s.4.2.5.4l.1.6v.8l-.3 1.3c0 .1 0 .2-.1.3 0 .1 0 .2-.1.3v.7l.1.1s.1.1.2.1h.5s.1 0 .1-.1h.2v.5l-.4.2s-.3.1-.4.1-.3.1-.4.1H40s-.3 0-.4-.1c-.1 0-.2-.1-.3-.2-.1-.1-.2-.2-.2-.3s-.1-.2-.1-.4c-.1.2-.3.3-.4.4s-.3.2-.4.3-.3.1-.4.2c.1.1-.1.1-.3.1zm.8-.9c.2 0 .4 0 .5-.1.2-.1.3-.2.5-.4l.3-1.5h-.7s-.4.1-.6.2-.3.2-.4.4c-.1.2-.2.4-.2.7v.3l.1.2c.1.1.1.1.2.1s.2.1.3.1z"/>
</symbol><symbol id="icon-coordinates" viewBox="23.6 -0.2 12.9 18">
    <style>
        .st0{fill:#231815}
    </style>
    <path class="st0" d="M30 17.8c-.5 0-1-.3-1.3-.8l-4.2-7.2c-1.8-3.1-.9-7.2 2.1-9 1-.6 2.2-1 3.4-1 2.3 0 4.5 1.2 5.6 3.3 1.1 2 1.2 4.4 0 6.4v.1l-4.3 7.5c-.3.4-.8.7-1.3.7zm0-17c-1 0-2 .3-2.9.8-2.5 1.5-3.3 5-1.7 7.6l4.2 7.3c.1.3.3.3.4.3s.3 0 .4-.3l4.3-7.4V9c1-1.7 1-3.8 0-5.5C33.8 1.9 32 .8 30 .8zm0 8c-1.4 0-2.5-1.1-2.5-2.5s1.1-2.5 2.5-2.5 2.5 1.1 2.5 2.5-1.1 2.5-2.5 2.5zm0-4c-.8 0-1.5.7-1.5 1.5s.7 1.5 1.5 1.5 1.5-.7 1.5-1.5-.7-1.5-1.5-1.5z"/>
</symbol><symbol id="icon-dollar" viewBox="21.5 0.3 17 17">
    <path d="M30 17.3c-4.7 0-8.5-3.8-8.5-8.5S25.3.3 30 .3s8.5 3.8 8.5 8.5-3.8 8.5-8.5 8.5zm0-16c-4.1 0-7.5 3.4-7.5 7.5s3.4 7.5 7.5 7.5 7.5-3.4 7.5-7.5-3.4-7.5-7.5-7.5zm0 11.6c-1.7 0-3.1-1-3.1-2.3 0-.3.2-.5.5-.5s.5.2.5.5c0 .7 1 1.3 2.1 1.3s2.1-.6 2.1-1.3c0-.7-1-1.3-2.1-1.3-1.7 0-3.1-1-3.1-2.3s1.4-2.3 3.1-2.3 3.1 1 3.1 2.3c0 .3-.2.5-.5.5s-.5-.2-.5-.5c0-.7-1-1.3-2.1-1.3s-2.1.6-2.1 1.3c0 .7 1 1.3 2.1 1.3 1.7 0 3.1 1 3.1 2.3s-1.4 2.3-3.1 2.3zm0 .9c-.3 0-.5-.2-.5-.5v-9c0-.3.2-.5.5-.5s.5.2.5.5v9c0 .3-.2.5-.5.5z"/>
</symbol><symbol id="icon-earth" viewBox="21.5 0.3 17 16.8">
    <style>
        .st0{fill:#231815}
    </style>
    <path class="st0" d="M30 17.3c-4.7 0-8.5-3.8-8.5-8.5S25.3.3 30 .3s8.5 3.8 8.5 8.5-3.8 8.5-8.5 8.5zm0-16c-4.1 0-7.5 3.4-7.5 7.5s3.4 7.5 7.5 7.5 7.5-3.4 7.5-7.5-3.4-7.5-7.5-7.5zm0 15.5c-.3 0-.5-.2-.5-.5v-15c0-.3.2-.5.5-.5s.5.2.5.5v15.1c0 .2-.2.4-.5.4zm7.5-7.5h-15c-.3 0-.5-.2-.5-.5s.2-.5.5-.5h15.1c.3 0 .5.2.5.5s-.3.5-.6.5zM29 17.1c-2.3-.8-4-4.2-4-8.3 0-4.2 1.7-7.6 4-8.3l1.5.3c0 .3-.2.5-.5.5-2.2 0-4 3.4-4 7.5s1.8 7.5 4 7.5c.3 0 .5.2.5.5l-1.5.3zm.5-.3c0-.3.2-.5.5-.5 2.2 0 4-3.4 4-7.5s-1.8-7.5-4-7.5c-.3 0-.5-.2-.5-.5l1.3-.4C33.2 1 35 4.5 35 8.8c0 4.2-1.7 7.6-4 8.3l-1.5-.3z"/>
</symbol><symbol id="icon-envelope" viewBox="21.5 0.3 17 13.4">
    <path d="M23.1 4.5c.2.2.9.6 1.9 1.4 1.1.7 1.9 1.3 2.5 1.7.1 0 .2.1.4.3.2.1.4.3.5.4.1.1.3.2.5.3.2.1.4.2.5.3.2.1.3.1.5.1.1 0 .3 0 .5-.1s.4-.1.5-.3c.2-.1.4-.2.5-.3.3-.2.4-.3.6-.5.2-.1.3-.2.4-.3.6-.4 2.1-1.4 4.4-3.1.5-.3.8-.7 1.2-1.2.3-.5.5-.9.5-1.4 0-.4-.2-.8-.5-1.1-.3-.3-.7-.4-1.1-.4H23c-.5 0-.9.2-1.1.5-.3.3-.4.7-.4 1.2 0 .4.2.8.5 1.3.4.5.7.9 1.1 1.2zm14.5 1C35.5 6.9 34 8 32.9 8.8c-.4.3-.7.5-.9.6-.2.1-.5.3-.9.5s-.7.2-1 .2c-.3 0-.7-.1-1-.2-.4-.2-.7-.3-.9-.5-.2-.1-.5-.4-.9-.6-.9-.6-2.4-1.7-4.7-3.3-.4-.2-.7-.5-1-.8v7.5c0 .4.1.8.4 1.1.3.3.7.4 1.1.4h14c.4 0 .8-.1 1.1-.4.3-.3.4-.7.4-1.1V4.6c-.4.4-.7.6-1 .9z"/>
</symbol><symbol id="icon-facebook-logo" viewBox="25.5 0.3 9.1 16.8">
    <path d="M34.3.4h-2.2c-2.4 0-4 1.6-4 4.1v1.9h-2.2c-.2 0-.3.2-.3.3v2.7c0 .2.2.3.3.3H28v7c0 .2.2.3.3.3h2.9c.2 0 .3-.2.3-.3v-7h2.6c.2 0 .3-.2.3-.3V6.8c0-.1 0-.2-.1-.2-.1-.1-.2-.1-.2-.1h-2.6V4.9c0-.8.2-1.2 1.2-1.2h1.5c.2 0 .3-.2.3-.3V.8c.1-.2 0-.4-.2-.4z"/>
</symbol><symbol id="icon-file" viewBox="23.5 0.3 13 17">
    <style>
        .st0{fill:#231815}
    </style>
    <path class="st0" d="M34 17.3h-8c-1.4 0-2.5-1.1-2.5-2.5v-12c0-1.4 1.1-2.5 2.5-2.5h3.6c.4 0 .8.2 1.1.4l5.4 5.4c.3.3.4.7.4 1.1v7.6c0 1.4-1.1 2.5-2.5 2.5zm-8-16c-.8 0-1.5.7-1.5 1.5v12c0 .8.7 1.5 1.5 1.5h8c.8 0 1.5-.7 1.5-1.5V7.2l-.1-.4L30 1.4c-.1-.1-.2-.1-.4-.1H26zm4.5-.5v4c0 .8.7 1.5 1.5 1.5h4v1h-4c-1.4 0-2.5-1.1-2.5-2.5v-4h1z"/>
</symbol><symbol id="icon-github" viewBox="21.5 0.3 17 16.8">
    <path d="M30 .4c-4.7 0-8.5 3.8-8.5 8.5 0 3.8 2.4 7 5.8 8.1.4.1.6-.2.6-.4v-1.5C25.5 15.7 25 14 25 14c-.4-1-.9-1.2-.9-1.2-.8-.5.1-.5.1-.5.9.1 1.3.9 1.3.9.8 1.3 2 .9 2.5.7.1-.6.3-.9.5-1.1-1.9-.2-3.9-.9-3.9-4.2 0-.9.3-1.7.9-2.3-.1-.3-.4-1.2 0-2.3 0 0 .7-.2 2.3.9.7-.2 1.4-.3 2.1-.3.7 0 1.4.1 2.1.3 1.8-1.2 2.5-.9 2.5-.9.5 1.2.2 2 .1 2.3.5.6.9 1.4.9 2.3 0 3.3-2 4-3.9 4.2.3.3.6.8.6 1.6v2.3c0 .2.2.5.6.4 3.4-1.1 5.8-4.3 5.8-8.1C38.5 4.2 34.7.4 30 .4z"/>
</symbol><symbol id="icon-linkedin-logo" viewBox="21.5 2 17 14.8">
    <path d="M37.3 2H22.7c-.7 0-1.3.5-1.3 1v12.6c0 .6.6 1.1 1.3 1.1h14.6c.7 0 1.3-.5 1.3-1.1V3c0-.5-.6-1-1.3-1zM26.6 14.3H24V7.7h2.6v6.6zm-1.3-7.5c-.9 0-1.5-.5-1.5-1.2s.6-1.2 1.5-1.2 1.4.5 1.4 1.2c.1.7-.5 1.2-1.4 1.2zM36 14.3h-2.6v-3.6c0-.9-.4-1.5-1.3-1.5-.7 0-1.1.4-1.3.8-.1.1-.1.3-.1.5v3.7h-2.6V7.5h2.6v.9c.3-.5 1-1.1 2.3-1.1 1.7 0 3 1 3 3v4zm-5.4-5.7z"/>
</symbol><symbol id="icon-logo_dark" viewBox="0 0 232.721 36.351">
    
    <use xlink:href="#a" overflow="visible"/>
    <clipPath id="c">
        <use xlink:href="#a" overflow="visible"/>
    </clipPath>
    
    <mask maskUnits="userSpaceOnUse" x="0" y="0" width="75.109" height="36.351" id="e">
        <g filter="url(#b)">
            <linearGradient id="d" gradientUnits="userSpaceOnUse" x1="-164.273" y1="374.084" x2="-163.273" y2="374.084" gradientTransform="matrix(0 -36.3499 -36.3499 0 13635.478 -5934.955)">
                <stop offset="0" stop-color="#fff"/>
                <stop offset=".6" stop-color="#fbfbfb"/>
                <stop offset="1" stop-color="#fbfbfb"/>
            </linearGradient>
            <path clip-path="url(#c)" d="M0 0h75.109v36.351H0z"/>
        </g>
    </mask>
    <path clip-path="url(#c)" mask="url(#e)" d="M0 0h75.109v36.351H0z"/>
    <path d="M86.104 36.144V20.756h1.694l4.468 9.118 4.465-9.118h1.695v15.388h-1.695V23.951l-3.694 7.618h-1.543l-3.696-7.618v12.193z"/>
    <path d="M110.982 21.299c.804-.499 1.772-.749 2.901-.749 1.131 0 2.098.25 2.901.749a4.604 4.604 0 0 1 1.793 2.022c.226.478.394 1.05.505 1.717.113.666.178 1.217.191 1.652.014.434.022 1.021.022 1.76 0 .738-.009 1.326-.022 1.761-.014.434-.078.985-.191 1.651-.111.667-.279 1.238-.505 1.717a4.602 4.602 0 0 1-1.793 2.021c-.804.5-1.771.749-2.901.749-1.129 0-2.098-.249-2.901-.749s-1.402-1.174-1.793-2.021c-.225-.479-.393-1.05-.505-1.717a12.697 12.697 0 0 1-.19-1.651 54.087 54.087 0 0 1-.022-1.761c0-.739.007-1.326.022-1.76.014-.436.077-.986.19-1.652.112-.667.28-1.239.505-1.717a4.623 4.623 0 0 1 1.793-2.022zm4.847 1.256c-.529-.323-1.177-.483-1.945-.483s-1.416.16-1.944.483c-.53.322-.924.77-1.185 1.342-.182.384-.317.863-.408 1.44-.09.575-.143 1.068-.157 1.479-.015.408-.022.953-.022 1.635 0 .681.008 1.226.022 1.635.015.41.067.903.157 1.478.091.577.227 1.058.408 1.44.261.573.654 1.02 1.185 1.342.528.323 1.177.484 1.944.484.769 0 1.416-.161 1.945-.484a2.988 2.988 0 0 0 1.186-1.342c.181-.383.315-.863.407-1.44.091-.574.143-1.067.157-1.478.015-.409.021-.954.021-1.635 0-.682-.007-1.227-.021-1.635-.015-.41-.066-.903-.157-1.479-.092-.577-.227-1.057-.407-1.44a2.988 2.988 0 0 0-1.186-1.342z"/>
    <path d="M128.298 34.895l.75-1.369c1.5.869 2.818 1.304 3.956 1.304.448 0 .851-.063 1.206-.189.355-.127.64-.29.853-.49a2.65 2.65 0 0 0 .534-.695c.14-.264.235-.521.286-.771a3.71 3.71 0 0 0 .076-.757c0-.578-.132-1.101-.396-1.564s-.697-.807-1.298-1.032c-.29-.108-.751-.227-1.386-.354-.635-.126-1.11-.244-1.43-.353-.912-.326-1.611-.84-2.097-1.544-.486-.703-.729-1.503-.729-2.4 0-1.16.392-2.139 1.174-2.935.782-.797 1.851-1.196 3.206-1.196 1.195 0 2.546.362 4.054 1.087l-.652 1.402c-1.333-.645-2.467-.967-3.401-.967-.892 0-1.562.253-2.011.76-.449.508-.674 1.123-.674 1.849 0 .564.142 1.075.424 1.531.283.457.721.786 1.315.989.268.095.726.207 1.374.337s1.146.261 1.494.392c.905.348 1.588.875 2.043 1.582.456.704.686 1.512.686 2.416 0 .588-.1 1.144-.299 1.67-.2.524-.485.993-.859 1.406-.373.413-.862.74-1.466.984-.606.242-1.281.363-2.027.363-.848 0-1.645-.13-2.391-.392a14.528 14.528 0 0 1-2.315-1.064z"/>
    <path d="M146.114 34.895l.75-1.369c1.5.869 2.818 1.304 3.956 1.304.448 0 .851-.063 1.206-.189.355-.127.64-.29.853-.49a2.65 2.65 0 0 0 .534-.695c.14-.264.235-.521.286-.771a3.71 3.71 0 0 0 .076-.757c0-.578-.132-1.101-.396-1.564s-.697-.807-1.298-1.032c-.29-.108-.751-.227-1.386-.354-.635-.126-1.11-.244-1.43-.353-.912-.326-1.611-.84-2.097-1.544-.486-.703-.729-1.503-.729-2.4 0-1.16.392-2.139 1.174-2.935.782-.797 1.851-1.196 3.206-1.196 1.195 0 2.546.362 4.054 1.087l-.652 1.402c-1.333-.645-2.467-.967-3.401-.967-.892 0-1.562.253-2.011.76-.449.508-.674 1.123-.674 1.849 0 .564.142 1.075.424 1.531.283.457.721.786 1.315.989.268.095.726.207 1.374.337s1.146.261 1.494.392c.905.348 1.588.875 2.043 1.582.456.704.686 1.512.686 2.416 0 .588-.1 1.144-.299 1.67-.2.524-.485.993-.859 1.406-.373.413-.862.74-1.466.984-.606.242-1.281.363-2.027.363-.848 0-1.645-.13-2.391-.392a14.568 14.568 0 0 1-2.315-1.064z"/>
    <path d="M165.19 20.756h1.696v13.867h6.129v1.521h-7.825z"/>
    <path d="M186.212 20.756h1.63l5.216 15.388h-1.771l-1.206-3.717h-6.107l-1.207 3.717h-1.771l5.216-15.388zm3.369 10.15l-2.555-7.857-2.554 7.857h5.109z"/>
    <path d="M210.58 20.756h1.695v15.388h-1.706l-6.748-12.345v12.345h-1.696V20.756h1.706l6.749 12.345z"/>
    <path d="M222.865 20.757h3.9c1.087 0 1.916.083 2.489.25a4.046 4.046 0 0 1 1.712.982c.474.46.845.991 1.113 1.592.195.449.345.987.445 1.613.102.627.159 1.147.175 1.561.014.412.021.978.021 1.695 0 .717-.007 1.282-.021 1.695-.016.413-.073.933-.175 1.56-.101.626-.25 1.164-.445 1.613a5.107 5.107 0 0 1-1.113 1.592 4.07 4.07 0 0 1-1.712.984c-.573.166-1.402.25-2.489.25h-3.9V20.757zm1.695 1.52v12.345h2.206c.37 0 .661-.003.875-.011.213-.007.479-.042.793-.103.316-.062.574-.15.777-.267.253-.145.478-.326.674-.544.196-.217.357-.433.483-.646.127-.214.233-.485.32-.816.087-.329.152-.615.196-.856.043-.244.076-.568.098-.974.021-.406.034-.723.037-.952.004-.227.006-.562.006-1.004s-.002-.777-.006-1.005a26.697 26.697 0 0 0-.037-.952 8.291 8.291 0 0 0-.098-.973 11.37 11.37 0 0 0-.196-.857 3.189 3.189 0 0 0-.32-.815c-.126-.213-.287-.429-.483-.646s-.421-.398-.674-.544a2.564 2.564 0 0 0-.777-.266 5.231 5.231 0 0 0-.793-.104 25.17 25.17 0 0 0-.875-.011h-2.206z"/>
</symbol><symbol id="icon-m" viewBox="23.1 4.7 12.4 8.3">
    <path d="M23.9 5.1v-.4c.7 0 1.3.1 1.7.1.5 0 1 0 1.6-.1.2.4.4 1 .6 1.6.7 1.6 1.4 3 1.9 4.2l1.5-3.2c.2-.5.4-.9.6-1.3s.3-.8.5-1.3c.7 0 1.3.1 1.6.1.3 0 .8 0 1.6-.1v.4h-.3l-.9.2-.2.4v5.8c0 .3 0 .5.1.6l.1.2c.1.1.4.2.9.2l.3.1v.4c-.9 0-1.7-.1-2.2-.1-.5 0-1.3 0-2.3.1v-.4c.6-.1 1-.2 1-.2s.1-.1.2-.1.1-.1.1-.2V6.5c-.2.4-1 2.2-2.4 5.2l-.6 1.3H29c-.4-1-1.4-3.2-3-6.6v1.3c0 1.9 0 3.2.1 3.9 0 .4 0 .6.1.6 0 .1.1.1.2.2l.8.2h.2v.4c-.6 0-1.1-.1-1.6-.1s-1.1 0-1.8.1v-.4l.9-.2s.2-.1.2-.2.1-.3.1-.5l.1-3.7V6.5c0-.5 0-.8-.1-1 0-.1-.1-.2-.2-.2l-.9-.2h-.2z"/>
</symbol><symbol id="icon-mosscoin" viewBox="22.7 4.6 14.6 8.5">
    <path d="M37.3 8.4V7.3h-2.8V4.6h-2.3L30 10.8l-2.2-6.2h-2.3v2.9h-2.8v1.1h2.8v.9h-2.8v1.1h2.8v2.5h1.8v-2.3l-.2-4.1 2.3 6.4h1.2l2.3-6.4-.2 4.1v2.3h1.8v-2.7h2.8V9.3h-2.8v-.9z"/>
</symbol><symbol id="icon-phone" viewBox="25 0.3 10 17">
    <style>
        .st0{fill:#231815}
    </style>
    <path class="st0" d="M32.6 17.3h-5.2c-1.3 0-2.4-1.1-2.4-2.4V2.7C25 1.4 26.1.3 27.4.3h5.2C33.9.3 35 1.4 35 2.7v12.2c0 1.3-1.1 2.4-2.4 2.4zm-5.2-16c-.8 0-1.4.6-1.4 1.4v12.2c0 .8.6 1.4 1.4 1.4h5.2c.8 0 1.4-.6 1.4-1.4V2.7c0-.8-.6-1.4-1.4-1.4h-5.2zm5.3 12h-5.4c-.3 0-.5-.2-.5-.5v-10c0-.3.2-.5.5-.5h5.4c.3 0 .5.2.5.5v10c0 .3-.2.5-.5.5zm-4.9-1h4.4v-9h-4.4v9zm2.2 3.5c-.3 0-.5-.1-.7-.3-.2-.2-.3-.4-.3-.7s.1-.5.3-.7c.4-.4 1-.4 1.4 0 .2.2.3.4.3.7 0 .3-.1.5-.3.7-.2.2-.4.3-.7.3z"/>
</symbol><symbol id="icon-play" viewBox="0 0 40 40">
    <path d="M17.7 25.5c-1 0-1.7-.8-1.7-1.7v-7.5c0-1 .8-1.7 1.7-1.7.3 0 .6.1.9.2l6.5 3.8c.5.3.9.9.9 1.5s-.3 1.2-.9 1.5l-6.5 3.8-.9.1zm0-10c-.4 0-.7.3-.7.7v7.5c0 .6.7.9 1.1.6l6.5-3.8c.2-.1.4-.4.4-.6s-.1-.5-.4-.6l-6.5-3.8h-.4z"/>
</symbol><symbol id="icon-power" viewBox="22.5 0.7 15 16.2">
    <style>
        .st0{fill:none;stroke:#768c03;stroke-linecap:round;stroke-linejoin:round;stroke-miterlimit:10}.st1{fill:#231815}
    </style>
    <path class="st1" d="M30 16.9c-4.1 0-7.5-3.4-7.5-7.5 0-2.7 1.5-5.2 3.9-6.6.2-.1.5 0 .7.2.1.2 0 .5-.2.7-2.1 1.1-3.4 3.3-3.4 5.7 0 3.6 2.9 6.5 6.5 6.5s6.5-2.9 6.5-6.5c0-2.4-1.3-4.5-3.4-5.7-.2-.1-.3-.4-.2-.7.1-.2.4-.3.7-.2 2.4 1.3 3.9 3.8 3.9 6.6 0 4.1-3.4 7.5-7.5 7.5zm0-10.2c-.3 0-.5-.2-.5-.5v-5c0-.3.2-.5.5-.5s.5.2.5.5v5c0 .3-.2.5-.5.5z"/>
</symbol><symbol id="icon-rocket" viewBox="21.5 0.4 17.1 16.9">
    <path d="M31.1 16c-.8 0-1.3-.3-1.4-.3l-.2-.2c0-.1-.4-.6-.3-1.5-1-.1-1.9-.7-2.8-1.5-.9-.9-1.4-1.8-1.5-2.8-.9 0-1.5-.3-1.5-.3-.1 0-.1-.1-.2-.2s-1.4-2.3 1.7-5.4c1.3-1.3 2.7-1.5 3.8-.6.2-.2.3-.3.4-.3C31.7.8 33.9.4 35.3.4c1.6 0 2.5.6 2.5.6.1 0 .1.1.2.2s2.1 3.6-2 8.7c-.1.1-.2.2-.3.4.9 1.2.7 2.5-.6 3.8-1.7 1.5-3.1 1.9-4 1.9zm-.8-1.2c.1.1.4.1.8.1.7 0 1.9-.3 3.3-1.7 1.3-1.3.8-2.2.3-2.7-.3-.3-.1-.7.3-1l.2-.2s0-.1.1-.1c3.3-4.1 2.3-6.9 2-7.5-.2-.1-.9-.4-1.9-.4-1.2 0-3.2.4-5.6 2.4 0 0-.1 0-.1.1-.1 0-.2.1-.2.2-.4.3-.5.4-.7.4l-.4-.1c-.8-.8-1.7-.7-2.7.3-2.1 2.1-1.8 3.6-1.6 4 .2.1.7.2 1.3.1.1 0 .3 0 .4.1.1.1.2.2.2.4 0 .9.4 1.8 1.3 2.6.8.8 1.7 1.3 2.6 1.3.1 0 .3.1.4.2s.1.3.1.4c-.3.5-.2.9-.1 1.1zm-7.7 1.9c-.1 0-.3 0-.4-.1-.2-.2-.2-.5 0-.7l2.5-2.5c.2-.2.5-.2.7 0 .2.2.2.5 0 .7L23 16.5c-.1.1-.2.2-.4.2zm-.6-3.2c-.1 0-.3 0-.4-.1-.2-.2-.2-.5 0-.7l1.3-1.3c.2-.2.5-.2.7 0 .2.2.2.5 0 .7l-1.3 1.3c0 .1-.2.1-.3.1zm3.8 3.8c-.1 0-.3 0-.4-.1-.2-.2-.2-.5 0-.7l1.3-1.3c.2-.2.5-.2.7 0s.2.5 0 .7l-1.3 1.3c-.1.1-.2.1-.3.1zM32.1 9c-.6 0-1.2-.2-1.6-.7-.9-.9-.9-2.3 0-3.2.9-.9 2.4-.9 3.2 0 .4.4.7 1 .7 1.6s-.2 1.2-.7 1.6c-.4.4-1 .7-1.6.7zm0-3.6c-.3 0-.7.1-.9.4-.5.5-.5 1.3 0 1.8s1.3.5 1.8 0c.2-.2.4-.6.4-.9s-.1-.7-.4-.9-.5-.4-.9-.4z"/>
</symbol><symbol id="icon-setting_wrench" viewBox="21.5 0.4 17.1 16.9">
    <style>
        .st0{fill:#231815}
    </style>
    <path class="st0" d="M25 17.3c-1.2 0-2.2-.6-2.9-1.5-.9-1.4-.7-3.2.5-4.4L28 6c-.1-1.5.4-3 1.5-4.1C30.9.5 32.9 0 34.7.6c.3.1.5.3.6.6.1.3 0 .6-.2.8l-2 2 .4 1.4 1.4.4 2-2c.4-.4 1.3-.2 1.5.4.5 1.9 0 3.9-1.3 5.2-1 1-2.3 1.5-3.7 1.5H33l-5.4 5.4c-.9.6-1.7 1-2.6 1zm-1.6-5.2c-.9.9-1.1 2.2-.4 3.2.5.7 1.2 1.1 2.1 1.1.7 0 1.3-.3 1.7-.7l5.5-5.5.1-.1c.1-.1.3-.2.4-.2 1.3.2 2.6-.3 3.5-1.2 1.1-1.1 1.5-2.6 1.1-4l-1.8 1.8c-.2.2-.4.3-.6.3h-.2l-1.5-.4c-.3-.1-.5-.3-.6-.6l-.4-1.5c-.1-.3 0-.6.2-.8l1.8-1.8c-1.4-.4-3 .1-4 1.1-.9.9-1.4 2.2-1.2 3.5 0 .2-.1.3-.2.4l-5.5 5.4z"/>
</symbol><symbol id="icon-steemit" viewBox="64 -10.2 37.1 38">
    <title>
        Steemit Logo
    </title>
    <path d="M96.7 1.2c-1.6-1.6-3.4-2.7-5.3-3.5 1.1-3.3 5.1-4.5 5.1-4.5s-9.4-4.9-19.7-2.9c-3.4.5-6.8 2.7-9.2 5.5C62.4 1.9 63 11 69.2 16.2c.9.8 3 2.1 3.1 2.1-1.4 3.5-5.8 4.5-5.8 4.5s5.8 3.6 13.6 4.6c2.1.3 4.3.3 6.5.1 3.6-.3 7.2-2.2 10-4.9 5.9-6 6-15.5.1-21.4zm-2.7 19c-2.2 2.2-5.5 3.5-8.1 3.7-1.8.2-3.7.2-5.6 0-2.7-.3-4.7-1.1-6.6-1.8 1-.9 2-2.2 2.4-3.4.3-.7.2-1.4-.1-2.1-2-4.2-1.1-9.3 2.3-12.6C80.8 1.6 84.2.5 87.6.9c2.5.3 4.8 1.4 6.6 3.2 4.4 4.3 4.2 11.8-.2 16.1z"/>
</symbol><symbol id="icon-twitter-logo-silhouette" viewBox="21.5 1.4 17 14.2">
    <style>
        .st0{fill:#010002}
    </style>
    <path class="st0" d="M38.5 3.5c-.6.3-1.3.5-2 .6.7-.4 1.3-1.1 1.5-1.9-.7.4-1.4.7-2.2.8-.6-.7-1.5-1.1-2.6-1.1-1.9 0-3.5 1.6-3.5 3.5 0 .3 0 .5.1.8-2.9-.1-5.5-1.5-7.2-3.7-.3.5-.5 1.1-.5 1.8 0 1.2.6 2.3 1.6 2.9-.6 0-1.1-.2-1.6-.4 0 1.7 1.2 3.1 2.8 3.4-.3.1-.6.1-.9.1-.2 0-.4 0-.7-.1.4 1.4 1.7 2.4 3.3 2.4-1.2.9-2.7 1.5-4.3 1.5h-.8c1.5 1 3.4 1.6 5.4 1.6 6.4 0 9.9-5.3 9.9-9.9v-.5c.6-.5 1.2-1.1 1.7-1.8z"/>
</symbol><symbol id="icon-umbrella" viewBox="21.5 0.3 17 16.8">
    <path d="M38 9.8c-.3 0-.5-.2-.5-.5 0-3.8-3.4-6.9-7.5-6.9s-7.5 3.1-7.5 6.9c0 .3-.2.5-.5.5s-.5-.2-.5-.5c0-4.3 3.8-7.9 8.5-7.9s8.5 3.5 8.5 7.9c0 .3-.2.5-.5.5zm0 0c-.3 0-.5-.2-.5-.5 0-.6-.5-1.1-1.1-1.1-.6 0-1.1.5-1.1 1.1 0 .3-.2.5-.5.5s-.5-.2-.5-.5c0-.6-.5-1.1-1.1-1.1-.6 0-1.1.5-1.1 1.1 0 .3-.2.5-.5.5s-.5-.2-.5-.5c0-.6-.5-1.1-1.1-1.1s-1.1.5-1.1 1.1c0 .3-.2.5-.5.5s-.5-.2-.5-.5c0-.6-.5-1.1-1.1-1.1s-1.1.5-1.1 1.1c0 .3-.2.5-.5.5s-.5-.2-.5-.5c0-.6-.5-1.1-1.1-1.1s-1.1.5-1.1 1.1c0 .3-.2.5-.5.5s-.5-.2-.5-.5c0-1.2.9-2.1 2.1-2.1.6 0 1.2.3 1.6.7.4-.5 1-.7 1.6-.7s1.2.3 1.6.7c.4-.5 1-.7 1.6-.7s1.2.3 1.6.7c.4-.5 1-.7 1.6-.7.6 0 1.2.3 1.6.7.4-.5 1-.7 1.6-.7 1.2 0 2.1.9 2.1 2.1 0 .3-.2.5-.5.5zm-8.5-7.9V.8c0-.3.2-.5.5-.5s.5.2.5.5v1.1h-1zm-.7 15.4c-.9 0-1.7-.8-1.7-1.7v-.9c0-.3.2-.5.5-.5s.5.2.5.5v.9c0 .4.3.7.7.7s.7-.3.7-.7V8.5c0-.3.2-.5.5-.5s.5.2.5.5v7.1c0 .9-.8 1.7-1.7 1.7z"/>
</symbol></svg>