<svg xmlns="http://www.w3.org/2000/svg" xmlns:xlink="http://www.w3.org/1999/xlink" viewBox="0 0 128 122.5"><defs><style>.cls-1,.cls-15,.cls-16,.cls-3{fill:none;}.cls-2{clip-path:url(#clip-path);}.cls-15,.cls-16,.cls-3{stroke:#000;stroke-miterlimit:10;}.cls-3{stroke-width:6px;}.cls-4{clip-path:url(#clip-path-2);}.cls-5{clip-path:url(#clip-path-3);}.cls-6{clip-path:url(#clip-path-4);}.cls-7{clip-path:url(#clip-path-5);}.cls-8{clip-path:url(#clip-path-6);}.cls-9{clip-path:url(#clip-path-7);}.cls-10{clip-path:url(#clip-path-8);}.cls-11{clip-path:url(#clip-path-9);}.cls-12{clip-path:url(#clip-path-10);}.cls-13{clip-path:url(#clip-path-11);}.cls-14{fill:#d8d8d8;}.cls-15{stroke-linecap:square;}.cls-15,.cls-16{stroke-width:3px;}.cls-17{clip-path:url(#clip-path-12);}</style><clipPath id="clip-path"><rect class="cls-1" x="3" y="3" width="122" height="97" rx="3" ry="3"/></clipPath><clipPath id="clip-path-2"><rect class="cls-1" x="61" y="88" width="4" height="4"/></clipPath><clipPath id="clip-path-3"><rect class="cls-1" x="11" y="11" width="106" height="73"/></clipPath><clipPath id="clip-path-4"><rect class="cls-1" x="70" y="31.94" width="34" height="2.74"/></clipPath><clipPath id="clip-path-5"><rect class="cls-1" x="70" y="44.54" width="34" height="2.74"/></clipPath><clipPath id="clip-path-6"><rect class="cls-1" x="73.89" y="30" width="2.91" height="6.79"/></clipPath><clipPath id="clip-path-7"><rect class="cls-1" x="96.23" y="42.61" width="2.91" height="6.79"/></clipPath><clipPath id="clip-path-8"><rect class="cls-1" x="70" y="57.15" width="34" height="2.74"/></clipPath><clipPath id="clip-path-9"><rect class="cls-1" x="73.89" y="55.21" width="2.91" height="6.79"/></clipPath><clipPath id="clip-path-10"><rect class="cls-1" x="46" y="97" width="35" height="22"/></clipPath><clipPath id="clip-path-11"><line class="cls-1" x1="33.49" y1="117.5" x2="92.58" y2="117.5"/></clipPath><clipPath id="clip-path-12"><line class="cls-1" x1="40.52" y1="48.51" x2="40.52" y2="67.15"/></clipPath></defs><title>Asset 3</title><g id="Layer_2" data-name="Layer 2"><g id="레이어_1" data-name="레이어 1"><g class="cls-2"><rect class="cls-3" x="3" y="3" width="122" height="97" rx="3" ry="3"/></g><g class="cls-4"><rect x="56" y="83" width="14" height="14"/></g><g class="cls-5"><rect class="cls-3" x="11" y="11" width="106" height="73"/></g><g class="cls-6"><rect x="65" y="26.94" width="44" height="12.74"/></g><g class="cls-7"><rect x="65" y="39.55" width="44" height="12.74"/></g><g class="cls-8"><rect x="68.89" y="25" width="12.91" height="16.79"/></g><g class="cls-9"><rect x="91.23" y="37.61" width="12.91" height="16.79"/></g><g class="cls-10"><rect x="65" y="52.15" width="44" height="12.74"/></g><g class="cls-11"><rect x="68.89" y="50.21" width="12.91" height="16.79"/></g><g class="cls-12"><rect class="cls-3" x="46" y="97" width="35" height="22"/></g><g class="cls-13"><rect class="cls-14" x="28.49" y="112.5" width="69.09" height="10"/></g><line class="cls-15" x1="33.49" y1="117.5" x2="92.58" y2="117.5"/><polygon class="cls-16" points="40.82 29 25 38.48 25 58.27 40.82 68.2 56.04 58.27 56.04 38.48 40.82 29"/><g class="cls-17"><rect class="cls-14" x="35.52" y="43.51" width="10" height="28.64"/></g><line class="cls-16" x1="40.51" y1="48.51" x2="40.51" y2="67.15"/><polyline class="cls-16" points="25 38 40.24 47.98 56.23 38"/></g></g></svg>