<svg xmlns="http://www.w3.org/2000/svg" xmlns:xlink="http://www.w3.org/1999/xlink" viewBox="0 0 128 117"><defs><style>.cls-1,.cls-2{fill:none;}.cls-2{stroke:#000;stroke-linejoin:round;stroke-width:3px;}.cls-3{clip-path:url(#clip-path);}.cls-4{isolation:isolate;}.cls-5{clip-path:url(#clip-path-2);}</style><clipPath id="clip-path" transform="translate(0 -1.5)"><rect class="cls-1" width="128" height="120"/></clipPath><clipPath id="clip-path-2" transform="translate(0 -1.5)"><rect class="cls-1" x="5" width="118" height="121"/></clipPath></defs><title>consulting</title><g id="Layer_2" data-name="Layer 2"><g id="레이어_1" data-name="레이어 1"><path class="cls-2" d="M120,77V55.46c0-9.6-6.55-13.46-13.33-13.46H85.33C78.55,42,72,45.86,72,55.46V77" transform="translate(0 -1.5)"/><line class="cls-2" x1="109" y1="73.5" x2="109" y2="54.5"/><line class="cls-2" x1="83" y1="54.5" x2="83" y2="73.5"/><line class="cls-2" y1="76.5" x2="13" y2="76.5"/><line class="cls-2" x1="62" y1="76.5" x2="128" y2="76.5"/><path class="cls-2" d="M96.5,32c6.12,0,10.5-4.25,10.5-10.4V16.4C107,10.25,102.62,6,96.5,6S86,10.25,86,16.4v5.2C86,27.75,90.38,32,96.5,32Z" transform="translate(0 -1.5)"/><path class="cls-2" d="M50.33,88C56.07,87.09,61,85.59,61,77.33v-24C61,43.82,54.45,40,47.67,40H26.33C19.55,40,13,43.82,13,53.33v24c0,8.26,4.93,9.76,10.67,10.67" transform="translate(0 -1.5)"/><g class="cls-3"><g class="cls-4"><g class="cls-5"><g class="cls-3"><rect class="cls-2" x="24" y="51.5" width="26" height="45"/><path class="cls-2" d="M36.5,29C42.62,29,47,24.75,47,18.6V13.4C47,7.25,42.62,3,36.5,3S26,7.25,26,13.4v5.2C26,24.75,30.38,29,36.5,29Z" transform="translate(0 -1.5)"/><line class="cls-2" x1="120" y1="76.5" x2="120" y2="113.5"/><line class="cls-2" x1="8" y1="77.5" x2="8" y2="114.5"/><line class="cls-2" x1="38" y1="97.5" x2="38" y2="116.5"/><line class="cls-2" x1="21" y1="115.5" x2="54" y2="115.5"/></g></g></g></g></g></g></svg>