<svg xmlns="http://www.w3.org/2000/svg" xmlns:xlink="http://www.w3.org/1999/xlink" viewBox="0 0 128 128"><defs><style>.cls-1,.cls-2{fill:none;}.cls-2{clip-rule:evenodd;}.cls-3{clip-path:url(#clip-path);}.cls-4{clip-path:url(#clip-path-2);}.cls-5{clip-path:url(#clip-path-3);}.cls-6{clip-path:url(#clip-path-4);}.cls-7{clip-path:url(#clip-path-5);}.cls-8{clip-path:url(#clip-path-6);}.cls-9{clip-path:url(#clip-path-7);}.cls-10{clip-path:url(#clip-path-8);}.cls-11{clip-path:url(#clip-path-9);}.cls-12{clip-path:url(#clip-path-10);}.cls-13{clip-path:url(#clip-path-11);}.cls-14{clip-path:url(#clip-path-12);}.cls-15{clip-path:url(#clip-path-13);}.cls-16{clip-path:url(#clip-path-14);}.cls-17{clip-path:url(#clip-path-15);}.cls-18{clip-path:url(#clip-path-16);}.cls-19{clip-path:url(#clip-path-17);}.cls-20{clip-path:url(#clip-path-18);}.cls-21{clip-path:url(#clip-path-19);}.cls-22{clip-path:url(#clip-path-20);}.cls-23{clip-path:url(#clip-path-21);}.cls-24{isolation:isolate;}.cls-25{clip-path:url(#clip-path-22);}.cls-26{clip-path:url(#clip-path-23);}.cls-27{clip-path:url(#clip-path-25);}.cls-28{clip-path:url(#clip-path-27);}.cls-29{clip-path:url(#clip-path-29);}.cls-30{clip-path:url(#clip-path-31);}.cls-31{clip-path:url(#clip-path-33);}.cls-32{clip-path:url(#clip-path-35);}.cls-33{clip-path:url(#clip-path-37);}.cls-34{clip-path:url(#clip-path-39);}.cls-35{clip-path:url(#clip-path-41);}.cls-36{clip-path:url(#clip-path-43);}.cls-37{clip-path:url(#clip-path-45);}.cls-38{clip-path:url(#clip-path-47);}.cls-39{clip-path:url(#clip-path-49);}.cls-40{clip-path:url(#clip-path-51);}.cls-41{clip-path:url(#clip-path-53);}.cls-42{clip-path:url(#clip-path-55);}.cls-43{clip-path:url(#clip-path-57);}.cls-44{clip-path:url(#clip-path-59);}.cls-45{clip-path:url(#clip-path-61);}</style><clipPath id="clip-path"><rect class="cls-1" x="48" y="10" width="62" height="3"/></clipPath><clipPath id="clip-path-2"><rect class="cls-1" x="40" y="18" width="3" height="62"/></clipPath><clipPath id="clip-path-3"><rect class="cls-1" x="48" y="85" width="62" height="3"/></clipPath><clipPath id="clip-path-4"><rect class="cls-1" x="114" y="18" width="3" height="62"/></clipPath><clipPath id="clip-path-5"><rect class="cls-1" x="18" y="40" width="62" height="3"/></clipPath><clipPath id="clip-path-6"><rect class="cls-1" x="10" y="48" width="3" height="62"/></clipPath><clipPath id="clip-path-7"><rect class="cls-1" x="18" y="114" width="62" height="3"/></clipPath><clipPath id="clip-path-8"><rect class="cls-1" x="85" y="48" width="3" height="62"/></clipPath><clipPath id="clip-path-9"><rect class="cls-1" x="10.48" y="26.14" width="33.04" height="3.73" transform="translate(-11.89 27.29) rotate(-45)"/></clipPath><clipPath id="clip-path-10"><rect class="cls-1" x="84.69" y="26.64" width="31.63" height="3.73" transform="translate(9.28 79.41) rotate(-45)"/></clipPath><clipPath id="clip-path-11"><rect class="cls-1" x="84.48" y="100.14" width="33.04" height="3.73" transform="translate(-42.54 101.29) rotate(-45)"/></clipPath><clipPath id="clip-path-12"><rect class="cls-1" x="10.48" y="100.14" width="33.04" height="3.73" transform="translate(-64.21 48.96) rotate(-45)"/></clipPath><clipPath id="clip-path-13"><path class="cls-2" d="M42.5,19A7.27,7.27,0,0,1,35,12a7.27,7.27,0,0,1,7.5-7A7.27,7.27,0,0,1,50,12a7.27,7.27,0,0,1-7.5,7m0-10.5A3.63,3.63,0,0,0,38.75,12a3.76,3.76,0,0,0,7.5,0A3.63,3.63,0,0,0,42.5,8.5"/></clipPath><clipPath id="clip-path-14"><path class="cls-2" d="M12,50a7.27,7.27,0,0,1-7-7.5A7.27,7.27,0,0,1,12,35a7.27,7.27,0,0,1,7,7.5A7.27,7.27,0,0,1,12,50m0-11.25a3.76,3.76,0,0,0,0,7.5,3.76,3.76,0,0,0,0-7.5"/></clipPath><clipPath id="clip-path-15"><path class="cls-2" d="M12,123a7,7,0,1,1,7-7,7,7,0,0,1-7,7m0-10.5a3.5,3.5,0,1,0,3.5,3.5,3.5,3.5,0,0,0-3.5-3.5"/></clipPath><clipPath id="clip-path-16"><path class="cls-2" d="M42.5,93a7,7,0,1,1,0-14,7,7,0,1,1,0,14m0-10.5A3.51,3.51,0,1,0,46.25,86a3.63,3.63,0,0,0-3.75-3.5"/></clipPath><clipPath id="clip-path-17"><path class="cls-2" d="M86,123a7,7,0,1,1,7-7,7,7,0,0,1-7,7m0-10.5a3.5,3.5,0,1,0,3.5,3.5,3.5,3.5,0,0,0-3.5-3.5"/></clipPath><clipPath id="clip-path-18"><path class="cls-2" d="M116,93a7,7,0,1,1,7-7,7,7,0,0,1-7,7m0-10.5a3.5,3.5,0,1,0,3.5,3.5,3.5,3.5,0,0,0-3.5-3.5"/></clipPath><clipPath id="clip-path-19"><path class="cls-2" d="M116,19a7,7,0,1,1,7-7,7,7,0,0,1-7,7m0-10.5a3.5,3.5,0,1,0,3.5,3.5A3.5,3.5,0,0,0,116,8.5"/></clipPath><clipPath id="clip-path-20"><path class="cls-2" d="M86,50a7.27,7.27,0,0,1-7-7.5,7,7,0,1,1,14,0A7.27,7.27,0,0,1,86,50m0-11.25a3.76,3.76,0,1,0,3.5,3.75A3.63,3.63,0,0,0,86,38.75"/></clipPath><clipPath id="clip-path-21"><rect class="cls-1" x="5" y="5" width="118" height="118"/></clipPath><clipPath id="clip-path-22"><rect class="cls-1" x="18" y="18" width="92" height="92"/></clipPath><clipPath id="clip-path-23"><rect class="cls-1" x="62" y="55" width="3" height="3"/></clipPath><clipPath id="clip-path-25"><rect class="cls-1" x="62" y="48" width="3" height="3"/></clipPath><clipPath id="clip-path-27"><rect class="cls-1" x="62" y="77" width="3" height="3"/></clipPath><clipPath id="clip-path-29"><rect class="cls-1" x="62" y="69" width="3" height="3"/></clipPath><clipPath id="clip-path-31"><rect class="cls-1" x="62" y="99" width="3" height="3"/></clipPath><clipPath id="clip-path-33"><rect class="cls-1" x="62" y="91" width="3" height="3"/></clipPath><clipPath id="clip-path-35"><rect class="cls-1" x="62" y="107" width="3" height="3"/></clipPath><clipPath id="clip-path-37"><rect class="cls-1" x="62" y="26" width="3" height="3"/></clipPath><clipPath id="clip-path-39"><rect class="cls-1" x="62" y="18" width="3" height="3"/></clipPath><clipPath id="clip-path-41"><rect class="cls-1" x="62" y="32" width="3" height="3"/></clipPath><clipPath id="clip-path-43"><rect class="cls-1" x="69" y="62" width="3" height="3"/></clipPath><clipPath id="clip-path-45"><rect class="cls-1" x="77" y="62" width="3" height="3"/></clipPath><clipPath id="clip-path-47"><rect class="cls-1" x="48" y="62" width="3" height="3"/></clipPath><clipPath id="clip-path-49"><rect class="cls-1" x="55" y="62" width="3" height="3"/></clipPath><clipPath id="clip-path-51"><rect class="cls-1" x="32" y="62" width="3" height="3"/></clipPath><clipPath id="clip-path-53"><rect class="cls-1" x="26" y="62" width="3" height="3"/></clipPath><clipPath id="clip-path-55"><rect class="cls-1" x="18" y="62" width="3" height="3"/></clipPath><clipPath id="clip-path-57"><rect class="cls-1" x="107" y="62" width="3" height="3"/></clipPath><clipPath id="clip-path-59"><rect class="cls-1" x="99" y="62" width="3" height="3"/></clipPath><clipPath id="clip-path-61"><rect class="cls-1" x="91" y="62" width="3" height="3"/></clipPath></defs><title>modeling</title><g id="Layer_2" data-name="Layer 2"><g id="레이어_1" data-name="레이어 1"><g class="cls-3"><rect x="43" y="5" width="72" height="13"/></g><g class="cls-4"><rect x="35" y="13" width="13" height="72"/></g><g class="cls-5"><rect x="43" y="80" width="72" height="13"/></g><g class="cls-6"><rect x="109" y="13" width="13" height="72"/></g><g class="cls-7"><rect x="13" y="35" width="72" height="13"/></g><g class="cls-8"><rect x="5" y="43" width="13" height="72"/></g><g class="cls-9"><rect x="13" y="109" width="72" height="13"/></g><g class="cls-10"><rect x="80" y="43" width="13" height="72"/></g><g class="cls-11"><rect x="9" y="10" width="36" height="36"/></g><g class="cls-12"><rect x="83" y="11" width="35" height="35"/></g><g class="cls-13"><rect x="83" y="84" width="36" height="36"/></g><g class="cls-14"><rect x="9" y="84" width="36" height="36"/></g><g class="cls-15"><rect x="30" width="25" height="24"/></g><g class="cls-16"><rect y="30" width="24" height="25"/></g><g class="cls-17"><rect y="104" width="24" height="24"/></g><g class="cls-18"><rect x="30" y="74" width="25" height="24"/></g><g class="cls-19"><rect x="74" y="104" width="24" height="24"/></g><g class="cls-20"><rect x="104" y="74" width="24" height="24"/></g><g class="cls-21"><rect x="104" width="24" height="24"/></g><g class="cls-22"><rect x="74" y="30" width="24" height="25"/></g><g class="cls-23"><g class="cls-24"><g class="cls-25"><g class="cls-26"><g class="cls-23"><rect x="57" y="50" width="13" height="13"/></g></g><g class="cls-27"><g class="cls-23"><rect x="57" y="43" width="13" height="13"/></g></g><g class="cls-28"><g class="cls-23"><rect x="57" y="72" width="13" height="13"/></g></g><g class="cls-29"><g class="cls-23"><rect x="57" y="64" width="13" height="13"/></g></g><g class="cls-30"><g class="cls-23"><rect x="57" y="94" width="13" height="13"/></g></g><g class="cls-31"><g class="cls-23"><rect x="57" y="86" width="13" height="13"/></g></g><g class="cls-32"><g class="cls-23"><rect x="57" y="102" width="13" height="13"/></g></g><g class="cls-33"><g class="cls-23"><rect x="57" y="21" width="13" height="13"/></g></g><g class="cls-34"><g class="cls-23"><rect x="57" y="13" width="13" height="13"/></g></g><g class="cls-35"><g class="cls-23"><rect x="57" y="27" width="13" height="13"/></g></g><g class="cls-36"><g class="cls-23"><rect x="64" y="57" width="13" height="13"/></g></g><g class="cls-37"><g class="cls-23"><rect x="72" y="57" width="13" height="13"/></g></g><g class="cls-38"><g class="cls-23"><rect x="43" y="57" width="13" height="13"/></g></g><g class="cls-39"><g class="cls-23"><rect x="50" y="57" width="13" height="13"/></g></g><g class="cls-40"><g class="cls-23"><rect x="27" y="57" width="13" height="13"/></g></g><g class="cls-41"><g class="cls-23"><rect x="21" y="57" width="13" height="13"/></g></g><g class="cls-42"><g class="cls-23"><rect x="13" y="57" width="13" height="13"/></g></g><g class="cls-43"><g class="cls-23"><rect x="102" y="57" width="13" height="13"/></g></g><g class="cls-44"><g class="cls-23"><rect x="94" y="57" width="13" height="13"/></g></g><g class="cls-45"><g class="cls-23"><rect x="86" y="57" width="13" height="13"/></g></g></g></g></g></g></g></svg>