<svg xmlns="http://www.w3.org/2000/svg" viewBox="0 0 108 129.5"><defs><style>.cls-1{fill:none;stroke:#000;stroke-linejoin:round;stroke-width:3px;}</style></defs><title>scan</title><g id="Layer_2" data-name="Layer 2"><g id="레이어_1" data-name="레이어 1"><path class="cls-1" d="M69.94,88.5c6.25,0,11.56-5.82,11.56-11.33V51.67c0-9.36-16-14.17-26-14.17s-26,4.81-26,14.17v25.5c0,5.51,5.31,11.33,11.56,11.33"/><path class="cls-1" d="M55,28.5c6.12,0,10.5-4.41,10.5-10.8V12.3C65.5,5.91,61.12,1.5,55,1.5S44.5,5.91,44.5,12.3v5.4C44.5,24.09,48.88,28.5,55,28.5Z"/><line class="cls-1" x1="68.5" y1="129.5" x2="68.5" y2="56.5"/><line class="cls-1" x1="39.5" y1="56.5" x2="39.5" y2="129.5"/><line class="cls-1" x1="54.5" y1="84.5" x2="54.5" y2="129.5"/><polyline class="cls-1" points="1.5 39.5 1.5 25.5 15.5 25.5"/><polyline class="cls-1" points="1.5 93.5 1.5 107.5 15.5 107.5"/><polyline class="cls-1" points="106.5 39.5 106.5 25.5 92.5 25.5"/><polyline class="cls-1" points="106.5 93.5 106.5 107.5 92.5 107.5"/></g></g></svg>